<svg width="631" height="194" viewBox="0 0 631 194" fill="none" xmlns="http://www.w3.org/2000/svg">
<mask id="path-1-outside-1_238_9767" maskUnits="userSpaceOnUse" x="67" y="24.0991" width="497" height="148" fill="black">
<rect fill="white" x="67" y="24.0991" width="497" height="148"/>
<path d="M124.267 129.098C126.516 129.098 128.526 128.955 130.296 128.667C132.067 128.38 133.55 127.806 134.747 126.945C135.991 126.083 136.924 124.839 137.546 123.212C138.216 121.585 138.551 119.408 138.551 116.681C138.551 114.336 138.168 112.374 137.402 110.795C136.637 109.168 135.56 107.876 134.172 106.919C132.833 105.962 131.229 105.292 129.363 104.909C127.497 104.479 125.463 104.263 123.262 104.263C120.965 104.263 118.549 104.359 116.013 104.55C113.477 104.694 110.893 104.933 108.261 105.268C105.629 105.555 103.021 105.89 100.437 106.273C97.853 106.656 95.3887 107.062 93.0439 107.493L84 100.028V42.75H171.712V76.7007H150.107C147.379 74.2603 144.341 72.4658 140.991 71.3174C137.642 70.1689 134.172 69.5947 130.583 69.5947H119.243L118.166 86.4624C120.75 85.3618 123.406 84.5483 126.133 84.022C128.909 83.4956 131.588 83.2324 134.172 83.2324C138.048 83.2324 141.853 83.5195 145.585 84.0938C149.365 84.6201 152.93 85.4814 156.28 86.6777C159.677 87.8262 162.788 89.2856 165.611 91.0562C168.434 92.8267 170.875 94.9321 172.932 97.3726C174.99 99.7651 176.593 102.517 177.741 105.627C178.89 108.737 179.464 112.183 179.464 115.963C179.464 120.557 178.818 124.72 177.526 128.452C176.234 132.185 174.416 135.51 172.071 138.429C169.774 141.3 167.022 143.789 163.816 145.894C160.61 148 157.093 149.746 153.265 151.134C149.437 152.474 145.346 153.455 140.991 154.077C136.685 154.747 132.258 155.082 127.712 155.082C124.028 155.082 120.271 154.866 116.443 154.436C112.663 154.053 108.907 153.502 105.174 152.785C101.442 152.019 97.7812 151.086 94.1924 149.985C90.6514 148.837 87.2539 147.545 84 146.109V119.049H105.461C108.189 122.495 111.108 125.031 114.218 126.658C117.329 128.285 120.678 129.098 124.267 129.098Z"/>
<path d="M289.857 71.8916C289.857 77.1074 288.398 81.749 285.479 85.8164C282.56 89.8838 278.564 93.4248 273.492 96.4395C276.507 97.875 279.234 99.502 281.675 101.32C284.163 103.091 286.269 105.053 287.991 107.206C289.762 109.312 291.102 111.584 292.011 114.025C292.968 116.417 293.446 118.978 293.446 121.705C293.446 127.352 292.37 132.28 290.216 136.491C288.063 140.654 284.761 144.124 280.311 146.899C275.861 149.626 270.238 151.66 263.443 153C256.648 154.388 248.633 155.082 239.398 155.082C230.545 155.082 222.889 154.364 216.429 152.928C209.969 151.445 204.634 149.292 200.423 146.468C196.212 143.645 193.078 140.176 191.02 136.061C188.962 131.897 187.934 127.112 187.934 121.705C187.934 118.978 188.388 116.417 189.297 114.025C190.254 111.584 191.594 109.312 193.317 107.206C195.04 105.053 197.121 103.091 199.562 101.32C202.05 99.502 204.801 97.875 207.816 96.4395C202.744 93.4248 198.748 89.8838 195.829 85.8164C192.958 81.749 191.522 77.1074 191.522 71.8916C191.522 66.9629 192.479 62.5845 194.394 58.7563C196.308 54.9282 199.274 51.7222 203.294 49.1382C207.313 46.5063 212.41 44.5205 218.583 43.1807C224.755 41.793 232.125 41.0991 240.69 41.0991C249.255 41.0991 256.625 41.793 262.797 43.1807C269.018 44.5205 274.114 46.5063 278.086 49.1382C282.105 51.77 285.072 55 286.986 58.8281C288.9 62.6562 289.857 67.0107 289.857 71.8916ZM240.69 86.7495C242.556 86.7495 244.231 86.6299 245.714 86.3906C247.198 86.1035 248.442 85.6011 249.447 84.8833C250.452 84.1655 251.217 83.1846 251.744 81.9404C252.27 80.6484 252.533 78.9736 252.533 76.916C252.533 74.7148 252.27 72.9204 251.744 71.5327C251.265 70.0972 250.523 68.9966 249.519 68.231C248.514 67.4175 247.27 66.8672 245.786 66.5801C244.303 66.293 242.604 66.1494 240.69 66.1494C238.728 66.1494 237.005 66.293 235.522 66.5801C234.086 66.8672 232.866 67.4175 231.861 68.231C230.856 68.9966 230.091 70.0972 229.564 71.5327C229.086 72.9204 228.847 74.7148 228.847 76.916C228.847 78.9736 229.11 80.6484 229.636 81.9404C230.163 83.1846 230.928 84.1655 231.933 84.8833C232.938 85.6011 234.182 86.1035 235.666 86.3906C237.149 86.6299 238.824 86.7495 240.69 86.7495ZM240.69 106.201C238.584 106.201 236.694 106.369 235.02 106.704C233.393 106.991 232.005 107.589 230.856 108.498C229.756 109.407 228.895 110.675 228.272 112.302C227.698 113.881 227.411 115.963 227.411 118.547C227.411 120.748 227.698 122.519 228.272 123.858C228.847 125.198 229.684 126.251 230.785 127.017C231.933 127.734 233.321 128.213 234.948 128.452C236.623 128.691 238.537 128.811 240.69 128.811C242.843 128.811 244.733 128.691 246.36 128.452C248.035 128.213 249.423 127.734 250.523 127.017C251.672 126.251 252.533 125.198 253.107 123.858C253.682 122.519 253.969 120.748 253.969 118.547C253.969 115.963 253.658 113.881 253.036 112.302C252.461 110.675 251.6 109.407 250.452 108.498C249.351 107.589 247.963 106.991 246.289 106.704C244.662 106.369 242.795 106.201 240.69 106.201Z"/>
<path d="M328.043 78.6387C325.555 78.6387 323.354 78.9736 321.439 79.6436C319.525 80.3135 317.922 81.1509 316.63 82.1558C315.338 83.1606 314.357 84.2612 313.688 85.4575C313.018 86.606 312.683 87.6826 312.683 88.6875H300.696V51.9375H398.6V88.6875H386.613C386.613 87.6826 386.278 86.606 385.608 85.4575C384.938 84.2612 383.958 83.1606 382.666 82.1558C381.374 81.1509 379.771 80.3135 377.856 79.6436C375.942 78.9736 373.741 78.6387 371.253 78.6387V122.71L379.866 124.361V153H319.43V124.361L328.043 122.71V78.6387Z"/>
<path d="M408.362 51.9375H468.798V80.3613L460.185 82.0122V93.8555H494.71V82.0122L486.097 80.3613V51.5786H546.533V80.3613L537.92 82.0122V122.71L546.533 124.361V153H486.097V124.361L494.71 122.71V110.723H460.185V122.71L468.798 124.361V153H408.362V124.361L416.975 122.71V82.0122L408.362 80.3613V51.9375Z"/>
</mask>
<path d="M124.267 129.098C126.516 129.098 128.526 128.955 130.296 128.667C132.067 128.38 133.55 127.806 134.747 126.945C135.991 126.083 136.924 124.839 137.546 123.212C138.216 121.585 138.551 119.408 138.551 116.681C138.551 114.336 138.168 112.374 137.402 110.795C136.637 109.168 135.56 107.876 134.172 106.919C132.833 105.962 131.229 105.292 129.363 104.909C127.497 104.479 125.463 104.263 123.262 104.263C120.965 104.263 118.549 104.359 116.013 104.55C113.477 104.694 110.893 104.933 108.261 105.268C105.629 105.555 103.021 105.89 100.437 106.273C97.853 106.656 95.3887 107.062 93.0439 107.493L84 100.028V42.75H171.712V76.7007H150.107C147.379 74.2603 144.341 72.4658 140.991 71.3174C137.642 70.1689 134.172 69.5947 130.583 69.5947H119.243L118.166 86.4624C120.75 85.3618 123.406 84.5483 126.133 84.022C128.909 83.4956 131.588 83.2324 134.172 83.2324C138.048 83.2324 141.853 83.5195 145.585 84.0938C149.365 84.6201 152.93 85.4814 156.28 86.6777C159.677 87.8262 162.788 89.2856 165.611 91.0562C168.434 92.8267 170.875 94.9321 172.932 97.3726C174.99 99.7651 176.593 102.517 177.741 105.627C178.89 108.737 179.464 112.183 179.464 115.963C179.464 120.557 178.818 124.72 177.526 128.452C176.234 132.185 174.416 135.51 172.071 138.429C169.774 141.3 167.022 143.789 163.816 145.894C160.61 148 157.093 149.746 153.265 151.134C149.437 152.474 145.346 153.455 140.991 154.077C136.685 154.747 132.258 155.082 127.712 155.082C124.028 155.082 120.271 154.866 116.443 154.436C112.663 154.053 108.907 153.502 105.174 152.785C101.442 152.019 97.7812 151.086 94.1924 149.985C90.6514 148.837 87.2539 147.545 84 146.109V119.049H105.461C108.189 122.495 111.108 125.031 114.218 126.658C117.329 128.285 120.678 129.098 124.267 129.098Z" fill="white"/>
<path d="M289.857 71.8916C289.857 77.1074 288.398 81.749 285.479 85.8164C282.56 89.8838 278.564 93.4248 273.492 96.4395C276.507 97.875 279.234 99.502 281.675 101.32C284.163 103.091 286.269 105.053 287.991 107.206C289.762 109.312 291.102 111.584 292.011 114.025C292.968 116.417 293.446 118.978 293.446 121.705C293.446 127.352 292.37 132.28 290.216 136.491C288.063 140.654 284.761 144.124 280.311 146.899C275.861 149.626 270.238 151.66 263.443 153C256.648 154.388 248.633 155.082 239.398 155.082C230.545 155.082 222.889 154.364 216.429 152.928C209.969 151.445 204.634 149.292 200.423 146.468C196.212 143.645 193.078 140.176 191.02 136.061C188.962 131.897 187.934 127.112 187.934 121.705C187.934 118.978 188.388 116.417 189.297 114.025C190.254 111.584 191.594 109.312 193.317 107.206C195.04 105.053 197.121 103.091 199.562 101.32C202.05 99.502 204.801 97.875 207.816 96.4395C202.744 93.4248 198.748 89.8838 195.829 85.8164C192.958 81.749 191.522 77.1074 191.522 71.8916C191.522 66.9629 192.479 62.5845 194.394 58.7563C196.308 54.9282 199.274 51.7222 203.294 49.1382C207.313 46.5063 212.41 44.5205 218.583 43.1807C224.755 41.793 232.125 41.0991 240.69 41.0991C249.255 41.0991 256.625 41.793 262.797 43.1807C269.018 44.5205 274.114 46.5063 278.086 49.1382C282.105 51.77 285.072 55 286.986 58.8281C288.9 62.6562 289.857 67.0107 289.857 71.8916ZM240.69 86.7495C242.556 86.7495 244.231 86.6299 245.714 86.3906C247.198 86.1035 248.442 85.6011 249.447 84.8833C250.452 84.1655 251.217 83.1846 251.744 81.9404C252.27 80.6484 252.533 78.9736 252.533 76.916C252.533 74.7148 252.27 72.9204 251.744 71.5327C251.265 70.0972 250.523 68.9966 249.519 68.231C248.514 67.4175 247.27 66.8672 245.786 66.5801C244.303 66.293 242.604 66.1494 240.69 66.1494C238.728 66.1494 237.005 66.293 235.522 66.5801C234.086 66.8672 232.866 67.4175 231.861 68.231C230.856 68.9966 230.091 70.0972 229.564 71.5327C229.086 72.9204 228.847 74.7148 228.847 76.916C228.847 78.9736 229.11 80.6484 229.636 81.9404C230.163 83.1846 230.928 84.1655 231.933 84.8833C232.938 85.6011 234.182 86.1035 235.666 86.3906C237.149 86.6299 238.824 86.7495 240.69 86.7495ZM240.69 106.201C238.584 106.201 236.694 106.369 235.02 106.704C233.393 106.991 232.005 107.589 230.856 108.498C229.756 109.407 228.895 110.675 228.272 112.302C227.698 113.881 227.411 115.963 227.411 118.547C227.411 120.748 227.698 122.519 228.272 123.858C228.847 125.198 229.684 126.251 230.785 127.017C231.933 127.734 233.321 128.213 234.948 128.452C236.623 128.691 238.537 128.811 240.69 128.811C242.843 128.811 244.733 128.691 246.36 128.452C248.035 128.213 249.423 127.734 250.523 127.017C251.672 126.251 252.533 125.198 253.107 123.858C253.682 122.519 253.969 120.748 253.969 118.547C253.969 115.963 253.658 113.881 253.036 112.302C252.461 110.675 251.6 109.407 250.452 108.498C249.351 107.589 247.963 106.991 246.289 106.704C244.662 106.369 242.795 106.201 240.69 106.201Z" fill="white"/>
<path d="M328.043 78.6387C325.555 78.6387 323.354 78.9736 321.439 79.6436C319.525 80.3135 317.922 81.1509 316.63 82.1558C315.338 83.1606 314.357 84.2612 313.688 85.4575C313.018 86.606 312.683 87.6826 312.683 88.6875H300.696V51.9375H398.6V88.6875H386.613C386.613 87.6826 386.278 86.606 385.608 85.4575C384.938 84.2612 383.958 83.1606 382.666 82.1558C381.374 81.1509 379.771 80.3135 377.856 79.6436C375.942 78.9736 373.741 78.6387 371.253 78.6387V122.71L379.866 124.361V153H319.43V124.361L328.043 122.71V78.6387Z" fill="white"/>
<path d="M408.362 51.9375H468.798V80.3613L460.185 82.0122V93.8555H494.71V82.0122L486.097 80.3613V51.5786H546.533V80.3613L537.92 82.0122V122.71L546.533 124.361V153H486.097V124.361L494.71 122.71V110.723H460.185V122.71L468.798 124.361V153H408.362V124.361L416.975 122.71V82.0122L408.362 80.3613V51.9375Z" fill="white"/>
<path d="M124.267 129.098C126.516 129.098 128.526 128.955 130.296 128.667C132.067 128.38 133.55 127.806 134.747 126.945C135.991 126.083 136.924 124.839 137.546 123.212C138.216 121.585 138.551 119.408 138.551 116.681C138.551 114.336 138.168 112.374 137.402 110.795C136.637 109.168 135.56 107.876 134.172 106.919C132.833 105.962 131.229 105.292 129.363 104.909C127.497 104.479 125.463 104.263 123.262 104.263C120.965 104.263 118.549 104.359 116.013 104.55C113.477 104.694 110.893 104.933 108.261 105.268C105.629 105.555 103.021 105.89 100.437 106.273C97.853 106.656 95.3887 107.062 93.0439 107.493L84 100.028V42.75H171.712V76.7007H150.107C147.379 74.2603 144.341 72.4658 140.991 71.3174C137.642 70.1689 134.172 69.5947 130.583 69.5947H119.243L118.166 86.4624C120.75 85.3618 123.406 84.5483 126.133 84.022C128.909 83.4956 131.588 83.2324 134.172 83.2324C138.048 83.2324 141.853 83.5195 145.585 84.0938C149.365 84.6201 152.93 85.4814 156.28 86.6777C159.677 87.8262 162.788 89.2856 165.611 91.0562C168.434 92.8267 170.875 94.9321 172.932 97.3726C174.99 99.7651 176.593 102.517 177.741 105.627C178.89 108.737 179.464 112.183 179.464 115.963C179.464 120.557 178.818 124.72 177.526 128.452C176.234 132.185 174.416 135.51 172.071 138.429C169.774 141.3 167.022 143.789 163.816 145.894C160.61 148 157.093 149.746 153.265 151.134C149.437 152.474 145.346 153.455 140.991 154.077C136.685 154.747 132.258 155.082 127.712 155.082C124.028 155.082 120.271 154.866 116.443 154.436C112.663 154.053 108.907 153.502 105.174 152.785C101.442 152.019 97.7812 151.086 94.1924 149.985C90.6514 148.837 87.2539 147.545 84 146.109V119.049H105.461C108.189 122.495 111.108 125.031 114.218 126.658C117.329 128.285 120.678 129.098 124.267 129.098Z" stroke="white" stroke-width="34" stroke-linejoin="round" mask="url(#path-1-outside-1_238_9767)"/>
<path d="M289.857 71.8916C289.857 77.1074 288.398 81.749 285.479 85.8164C282.56 89.8838 278.564 93.4248 273.492 96.4395C276.507 97.875 279.234 99.502 281.675 101.32C284.163 103.091 286.269 105.053 287.991 107.206C289.762 109.312 291.102 111.584 292.011 114.025C292.968 116.417 293.446 118.978 293.446 121.705C293.446 127.352 292.37 132.28 290.216 136.491C288.063 140.654 284.761 144.124 280.311 146.899C275.861 149.626 270.238 151.66 263.443 153C256.648 154.388 248.633 155.082 239.398 155.082C230.545 155.082 222.889 154.364 216.429 152.928C209.969 151.445 204.634 149.292 200.423 146.468C196.212 143.645 193.078 140.176 191.02 136.061C188.962 131.897 187.934 127.112 187.934 121.705C187.934 118.978 188.388 116.417 189.297 114.025C190.254 111.584 191.594 109.312 193.317 107.206C195.04 105.053 197.121 103.091 199.562 101.32C202.05 99.502 204.801 97.875 207.816 96.4395C202.744 93.4248 198.748 89.8838 195.829 85.8164C192.958 81.749 191.522 77.1074 191.522 71.8916C191.522 66.9629 192.479 62.5845 194.394 58.7563C196.308 54.9282 199.274 51.7222 203.294 49.1382C207.313 46.5063 212.41 44.5205 218.583 43.1807C224.755 41.793 232.125 41.0991 240.69 41.0991C249.255 41.0991 256.625 41.793 262.797 43.1807C269.018 44.5205 274.114 46.5063 278.086 49.1382C282.105 51.77 285.072 55 286.986 58.8281C288.9 62.6562 289.857 67.0107 289.857 71.8916ZM240.69 86.7495C242.556 86.7495 244.231 86.6299 245.714 86.3906C247.198 86.1035 248.442 85.6011 249.447 84.8833C250.452 84.1655 251.217 83.1846 251.744 81.9404C252.27 80.6484 252.533 78.9736 252.533 76.916C252.533 74.7148 252.27 72.9204 251.744 71.5327C251.265 70.0972 250.523 68.9966 249.519 68.231C248.514 67.4175 247.27 66.8672 245.786 66.5801C244.303 66.293 242.604 66.1494 240.69 66.1494C238.728 66.1494 237.005 66.293 235.522 66.5801C234.086 66.8672 232.866 67.4175 231.861 68.231C230.856 68.9966 230.091 70.0972 229.564 71.5327C229.086 72.9204 228.847 74.7148 228.847 76.916C228.847 78.9736 229.11 80.6484 229.636 81.9404C230.163 83.1846 230.928 84.1655 231.933 84.8833C232.938 85.6011 234.182 86.1035 235.666 86.3906C237.149 86.6299 238.824 86.7495 240.69 86.7495ZM240.69 106.201C238.584 106.201 236.694 106.369 235.02 106.704C233.393 106.991 232.005 107.589 230.856 108.498C229.756 109.407 228.895 110.675 228.272 112.302C227.698 113.881 227.411 115.963 227.411 118.547C227.411 120.748 227.698 122.519 228.272 123.858C228.847 125.198 229.684 126.251 230.785 127.017C231.933 127.734 233.321 128.213 234.948 128.452C236.623 128.691 238.537 128.811 240.69 128.811C242.843 128.811 244.733 128.691 246.36 128.452C248.035 128.213 249.423 127.734 250.523 127.017C251.672 126.251 252.533 125.198 253.107 123.858C253.682 122.519 253.969 120.748 253.969 118.547C253.969 115.963 253.658 113.881 253.036 112.302C252.461 110.675 251.6 109.407 250.452 108.498C249.351 107.589 247.963 106.991 246.289 106.704C244.662 106.369 242.795 106.201 240.69 106.201Z" stroke="white" stroke-width="34" stroke-linejoin="round" mask="url(#path-1-outside-1_238_9767)"/>
<path d="M328.043 78.6387C325.555 78.6387 323.354 78.9736 321.439 79.6436C319.525 80.3135 317.922 81.1509 316.63 82.1558C315.338 83.1606 314.357 84.2612 313.688 85.4575C313.018 86.606 312.683 87.6826 312.683 88.6875H300.696V51.9375H398.6V88.6875H386.613C386.613 87.6826 386.278 86.606 385.608 85.4575C384.938 84.2612 383.958 83.1606 382.666 82.1558C381.374 81.1509 379.771 80.3135 377.856 79.6436C375.942 78.9736 373.741 78.6387 371.253 78.6387V122.71L379.866 124.361V153H319.43V124.361L328.043 122.71V78.6387Z" stroke="white" stroke-width="34" stroke-linejoin="round" mask="url(#path-1-outside-1_238_9767)"/>
<path d="M408.362 51.9375H468.798V80.3613L460.185 82.0122V93.8555H494.71V82.0122L486.097 80.3613V51.5786H546.533V80.3613L537.92 82.0122V122.71L546.533 124.361V153H486.097V124.361L494.71 122.71V110.723H460.185V122.71L468.798 124.361V153H408.362V124.361L416.975 122.71V82.0122L408.362 80.3613V51.9375Z" stroke="white" stroke-width="34" stroke-linejoin="round" mask="url(#path-1-outside-1_238_9767)"/>
<mask id="path-2-outside-2_238_9767" maskUnits="userSpaceOnUse" x="53" y="10.0991" width="525" height="176" fill="black">
<rect fill="white" x="53" y="10.0991" width="525" height="176"/>
<path fill-rule="evenodd" clip-rule="evenodd" d="M127.508 117.945C127.534 117.599 127.551 117.179 127.551 116.681C127.551 116.273 127.527 115.975 127.501 115.771C127.41 115.744 127.295 115.714 127.153 115.685C127.065 115.667 126.977 115.648 126.89 115.627C125.945 115.409 124.752 115.263 123.262 115.263C121.379 115.263 119.365 115.337 117.217 115.491C117.976 116.118 118.679 116.577 119.317 116.911C120.817 117.696 122.413 118.098 124.267 118.098C125.539 118.098 126.612 118.04 127.508 117.945ZM78.337 109.617L76.9978 108.512C74.4661 106.422 73 103.311 73 100.028V42.75C73 36.6749 77.9249 31.75 84 31.75H171.712C177.787 31.75 182.712 36.6749 182.712 42.75V58.2199C183.228 56.7269 183.841 55.2644 184.555 53.837C187.446 48.0548 191.841 43.432 197.307 39.91C202.727 36.37 209.146 33.9765 216.21 32.4396C223.387 30.8301 231.594 30.0991 240.69 30.0991C249.782 30.0991 257.986 30.8296 265.162 32.4377C272.269 33.9731 278.726 36.3721 284.136 39.9516C286.835 41.7212 289.273 43.7546 291.396 46.0599C293.346 42.9813 296.782 40.9375 300.696 40.9375H398.6C400.353 40.9375 402.01 41.3475 403.481 42.0769C404.952 41.3475 406.609 40.9375 408.362 40.9375H468.798C472.227 40.9375 475.289 42.506 477.306 44.9647C479.314 42.3008 482.504 40.5786 486.097 40.5786H546.533C552.608 40.5786 557.533 45.5035 557.533 51.5786V80.3613C557.533 85.5301 553.938 89.9857 548.92 91.0993V113.623C553.938 114.736 557.533 119.192 557.533 124.361V153C557.533 159.075 552.608 164 546.533 164H486.097C482.587 164 479.462 162.357 477.448 159.797C475.433 162.357 472.308 164 468.798 164H408.362C402.287 164 397.362 159.075 397.362 153V124.361C397.362 119.192 400.957 114.736 405.975 113.623V96.8491C404.024 98.6132 401.438 99.6875 398.6 99.6875H386.613C385.064 99.6875 383.59 99.3673 382.253 98.7894V113.623C387.271 114.736 390.866 119.192 390.866 124.361V153C390.866 159.075 385.941 164 379.866 164H319.43C313.355 164 308.43 159.075 308.43 153V124.361C308.43 119.192 312.025 114.736 317.043 113.623V98.7894C315.706 99.3673 314.232 99.6875 312.683 99.6875H300.696C298.168 99.6875 295.84 98.835 293.982 97.4018C294.866 98.3049 295.705 99.2473 296.497 100.23C298.963 103.185 300.917 106.467 302.273 110.063C303.746 113.793 304.446 117.705 304.446 121.705C304.446 128.758 303.096 135.465 300.01 141.499L299.987 141.545C296.821 147.666 292.055 152.539 286.132 156.233C286.108 156.248 286.084 156.263 286.059 156.278C280.208 159.864 273.276 162.27 265.609 163.785C257.905 165.355 249.131 166.082 239.398 166.082C229.994 166.082 221.498 165.323 214.043 163.666L213.967 163.649C206.581 161.953 199.907 159.366 194.297 155.605C189.344 152.284 185.27 148.119 182.323 143.086C181.791 143.844 181.235 144.586 180.652 145.311C177.603 149.12 173.982 152.378 169.855 155.089C165.89 157.692 161.598 159.814 157.014 161.475C156.992 161.483 156.97 161.491 156.948 161.499C156.931 161.505 156.915 161.511 156.899 161.516C152.363 163.104 147.593 164.241 142.614 164.956C137.746 165.71 132.777 166.082 127.712 166.082C123.619 166.082 119.472 165.843 115.275 165.373C111.19 164.958 107.13 164.362 103.097 163.587C103.053 163.578 103.008 163.569 102.964 163.56C98.8945 162.726 94.8951 161.706 90.9673 160.502C90.911 160.485 90.8548 160.467 90.7988 160.449C86.9189 159.19 83.1711 157.767 79.56 156.173C75.5728 154.414 73 150.467 73 146.109V119.049C73 115.045 75.1392 111.541 78.337 109.617ZM116.443 154.436C120.271 154.866 124.028 155.082 127.712 155.082C132.258 155.082 136.685 154.747 140.991 154.077C145.346 153.455 149.437 152.474 153.265 151.134C157.093 149.746 160.61 148 163.816 145.894C167.022 143.789 169.774 141.3 172.071 138.429C174.356 135.585 176.141 132.354 177.426 128.736C177.46 128.642 177.493 128.547 177.526 128.452C178.257 126.341 178.781 124.092 179.098 121.705C179.342 119.872 179.464 117.958 179.464 115.963C179.464 113.953 179.302 112.038 178.977 110.218C178.691 108.614 178.279 107.084 177.741 105.627C176.593 102.517 174.99 99.7651 172.932 97.3726C170.875 94.9321 168.434 92.8267 165.611 91.0562C163.567 89.7747 161.374 88.6562 159.03 87.7007C158.135 87.336 157.218 86.995 156.28 86.6777C154.298 85.9698 152.24 85.3792 150.107 84.9058C148.635 84.5793 147.128 84.3086 145.585 84.0938C144.967 83.9987 144.348 83.9116 143.726 83.8323C142.836 83.7187 141.942 83.6213 141.044 83.54C138.779 83.3349 136.488 83.2324 134.172 83.2324C132.609 83.2324 131.01 83.3288 129.376 83.5216C128.31 83.6473 127.229 83.8141 126.133 84.022C123.406 84.5483 120.75 85.3618 118.166 86.4624L119.243 69.5947H130.583C134.172 69.5947 137.642 70.1689 140.991 71.3174C142.227 71.7412 143.421 72.2531 144.573 72.853C145.388 73.2775 146.182 73.7462 146.954 74.2589C146.998 74.2878 147.041 74.3168 147.085 74.3459C148.131 75.0494 149.139 75.8344 150.107 76.7007H171.712V42.75H84V100.028L93.0439 107.493C95.3887 107.062 97.853 106.656 100.437 106.273C103.021 105.89 105.629 105.555 108.261 105.268C110.893 104.933 113.477 104.694 116.013 104.55C118.549 104.359 120.965 104.263 123.262 104.263C125.463 104.263 127.497 104.479 129.363 104.909C131.229 105.292 132.833 105.962 134.172 106.919C135.56 107.876 136.637 109.168 137.402 110.795C138.168 112.374 138.551 114.336 138.551 116.681C138.551 119.408 138.216 121.585 137.546 123.212C136.924 124.839 135.991 126.083 134.747 126.945C133.55 127.806 132.067 128.38 130.296 128.667C128.526 128.955 126.516 129.098 124.267 129.098C120.678 129.098 117.329 128.285 114.218 126.658C111.108 125.031 108.189 122.495 105.461 119.049H84V146.109C87.2539 147.545 90.6514 148.837 94.1924 149.985C97.7812 151.086 101.442 152.019 105.174 152.785C108.907 153.502 112.663 154.053 116.443 154.436ZM177.337 86.1557C178.75 87.4224 180.076 88.7842 181.308 90.2414C183.399 92.6807 185.138 95.3548 186.534 98.2303C187.441 97.2445 188.397 96.3021 189.4 95.4019C188.516 94.3831 187.679 93.3261 186.892 92.2299C186.876 92.2066 186.859 92.1833 186.842 92.1599C184.456 88.7791 182.756 85.1247 181.724 81.2633C180.792 83.306 179.252 85.0136 177.337 86.1557ZM198.404 88.9687C200.964 91.7413 204.101 94.2316 207.816 96.4395C204.801 97.875 202.05 99.502 199.562 101.32C198.875 101.819 198.216 102.332 197.586 102.861C195.978 104.211 194.555 105.659 193.317 107.206C192.12 108.669 191.108 110.213 190.281 111.837C189.917 112.551 189.589 113.28 189.297 114.025C189.056 114.659 188.847 115.305 188.67 115.963C188.179 117.786 187.934 119.701 187.934 121.705C187.934 124.448 188.198 127.031 188.728 129.454C189.242 131.807 190.006 134.009 191.02 136.061C193.078 140.176 196.212 143.645 200.423 146.468C204.634 149.292 209.969 151.445 216.429 152.928C222.889 154.364 230.545 155.082 239.398 155.082C248.633 155.082 256.648 154.388 263.443 153C270.238 151.66 275.861 149.626 280.311 146.899C284.761 144.124 288.063 140.654 290.216 136.491C292.37 132.28 293.446 127.352 293.446 121.705C293.446 118.978 292.968 116.417 292.011 114.025C291.102 111.584 289.762 109.312 287.991 107.206C286.758 105.664 285.328 104.221 283.703 102.875C283.058 102.342 282.382 101.823 281.675 101.32C279.234 99.502 276.507 97.875 273.492 96.4395C277.205 94.233 280.34 91.7446 282.899 88.9742C283.837 87.9594 284.696 86.9068 285.479 85.8164C287.837 82.5305 289.243 78.8698 289.696 74.8343C289.804 73.8746 289.857 72.8937 289.857 71.8916C289.857 70.7336 289.804 69.6052 289.696 68.5064C289.349 64.9741 288.446 61.748 286.986 58.8281C285.072 55 282.105 51.77 278.086 49.1382C274.114 46.5063 269.018 44.5205 262.797 43.1807C256.625 41.793 249.255 41.0991 240.69 41.0991C232.125 41.0991 224.755 41.793 218.583 43.1807C212.41 44.5205 207.313 46.5063 203.294 49.1382C199.274 51.7222 196.308 54.9282 194.394 58.7563C192.479 62.5845 191.522 66.9629 191.522 71.8916C191.522 77.1074 192.958 81.749 195.829 85.8164C196.61 86.9049 197.468 87.9556 198.404 88.9687ZM291.947 95.3564C291.93 95.3758 291.914 95.3951 291.897 95.4144C292.011 95.5162 292.125 95.6185 292.238 95.7214C292.139 95.6019 292.042 95.4802 291.947 95.3564ZM317.043 81.8481C318.259 80.9788 319.724 80.2439 321.439 79.6436C323.354 78.9736 325.555 78.6387 328.043 78.6387V122.71L319.43 124.361V153H379.866V124.361L371.253 122.71V78.6387C373.741 78.6387 375.942 78.9736 377.856 79.6436C379.572 80.2439 381.037 80.9788 382.253 81.8481C382.394 81.9488 382.531 82.0514 382.666 82.1558C383.958 83.1606 384.938 84.2612 385.608 85.4575C386.278 86.606 386.613 87.6826 386.613 88.6875H398.6V51.9375H300.696V88.6875H312.683C312.683 87.6826 313.018 86.606 313.688 85.4575C314.357 84.2612 315.338 83.1606 316.63 82.1558C316.765 82.0514 316.902 81.9488 317.043 81.8481ZM416.975 82.0122V122.71L408.362 124.361V153H468.798V124.361L460.185 122.71V110.723H494.71V122.71L486.097 124.361V153H546.533V124.361L537.92 122.71V82.0122L546.533 80.3613V51.5786H486.097V80.3613L494.71 82.0122V93.8555H460.185V82.0122L468.798 80.3613V51.9375H408.362V80.3613L416.975 82.0122ZM246.289 106.704C244.662 106.369 242.795 106.201 240.69 106.201C238.584 106.201 236.694 106.369 235.02 106.704C233.393 106.991 232.005 107.589 230.856 108.498C229.756 109.407 228.895 110.675 228.272 112.302C227.698 113.881 227.411 115.963 227.411 118.547C227.411 120.748 227.698 122.519 228.272 123.858C228.847 125.198 229.684 126.251 230.785 127.017C231.933 127.734 233.321 128.213 234.948 128.452C236.623 128.691 238.537 128.811 240.69 128.811C242.843 128.811 244.733 128.691 246.36 128.452C248.035 128.213 249.423 127.734 250.523 127.017C251.672 126.251 252.533 125.198 253.107 123.858C253.682 122.519 253.969 120.748 253.969 118.547C253.969 115.963 253.658 113.881 253.036 112.302C252.461 110.675 251.6 109.407 250.452 108.498C249.351 107.589 247.963 106.991 246.289 106.704ZM231.861 68.231C232.866 67.4175 234.086 66.8672 235.522 66.5801C237.005 66.293 238.728 66.1494 240.69 66.1494C242.604 66.1494 244.303 66.293 245.786 66.5801C247.27 66.8672 248.514 67.4175 249.519 68.231C250.523 68.9966 251.265 70.0972 251.744 71.5327C252.27 72.9204 252.533 74.7148 252.533 76.916C252.533 78.9736 252.27 80.6484 251.744 81.9404C251.217 83.1846 250.452 84.1655 249.447 84.8833C248.442 85.6011 247.198 86.1035 245.714 86.3906C244.231 86.6299 242.556 86.7495 240.69 86.7495C238.824 86.7495 237.149 86.6299 235.666 86.3906C234.182 86.1035 232.938 85.6011 231.933 84.8833C230.928 84.1655 230.163 83.1846 229.636 81.9404C229.11 80.6484 228.847 78.9736 228.847 76.916C228.847 74.7148 229.086 72.9204 229.564 71.5327C230.091 70.0972 230.856 68.9966 231.861 68.231ZM242.952 117.748C242.945 117.588 242.936 117.441 242.926 117.306C242.317 117.242 241.578 117.201 240.69 117.201C239.823 117.201 239.08 117.241 238.449 117.304C238.44 117.442 238.432 117.59 238.426 117.749C239.096 117.788 239.849 117.811 240.69 117.811C241.543 117.811 242.294 117.788 242.952 117.748Z"/>
</mask>
<path fill-rule="evenodd" clip-rule="evenodd" d="M127.508 117.945C127.534 117.599 127.551 117.179 127.551 116.681C127.551 116.273 127.527 115.975 127.501 115.771C127.41 115.744 127.295 115.714 127.153 115.685C127.065 115.667 126.977 115.648 126.89 115.627C125.945 115.409 124.752 115.263 123.262 115.263C121.379 115.263 119.365 115.337 117.217 115.491C117.976 116.118 118.679 116.577 119.317 116.911C120.817 117.696 122.413 118.098 124.267 118.098C125.539 118.098 126.612 118.04 127.508 117.945ZM78.337 109.617L76.9978 108.512C74.4661 106.422 73 103.311 73 100.028V42.75C73 36.6749 77.9249 31.75 84 31.75H171.712C177.787 31.75 182.712 36.6749 182.712 42.75V58.2199C183.228 56.7269 183.841 55.2644 184.555 53.837C187.446 48.0548 191.841 43.432 197.307 39.91C202.727 36.37 209.146 33.9765 216.21 32.4396C223.387 30.8301 231.594 30.0991 240.69 30.0991C249.782 30.0991 257.986 30.8296 265.162 32.4377C272.269 33.9731 278.726 36.3721 284.136 39.9516C286.835 41.7212 289.273 43.7546 291.396 46.0599C293.346 42.9813 296.782 40.9375 300.696 40.9375H398.6C400.353 40.9375 402.01 41.3475 403.481 42.0769C404.952 41.3475 406.609 40.9375 408.362 40.9375H468.798C472.227 40.9375 475.289 42.506 477.306 44.9647C479.314 42.3008 482.504 40.5786 486.097 40.5786H546.533C552.608 40.5786 557.533 45.5035 557.533 51.5786V80.3613C557.533 85.5301 553.938 89.9857 548.92 91.0993V113.623C553.938 114.736 557.533 119.192 557.533 124.361V153C557.533 159.075 552.608 164 546.533 164H486.097C482.587 164 479.462 162.357 477.448 159.797C475.433 162.357 472.308 164 468.798 164H408.362C402.287 164 397.362 159.075 397.362 153V124.361C397.362 119.192 400.957 114.736 405.975 113.623V96.8491C404.024 98.6132 401.438 99.6875 398.6 99.6875H386.613C385.064 99.6875 383.59 99.3673 382.253 98.7894V113.623C387.271 114.736 390.866 119.192 390.866 124.361V153C390.866 159.075 385.941 164 379.866 164H319.43C313.355 164 308.43 159.075 308.43 153V124.361C308.43 119.192 312.025 114.736 317.043 113.623V98.7894C315.706 99.3673 314.232 99.6875 312.683 99.6875H300.696C298.168 99.6875 295.84 98.835 293.982 97.4018C294.866 98.3049 295.705 99.2473 296.497 100.23C298.963 103.185 300.917 106.467 302.273 110.063C303.746 113.793 304.446 117.705 304.446 121.705C304.446 128.758 303.096 135.465 300.01 141.499L299.987 141.545C296.821 147.666 292.055 152.539 286.132 156.233C286.108 156.248 286.084 156.263 286.059 156.278C280.208 159.864 273.276 162.27 265.609 163.785C257.905 165.355 249.131 166.082 239.398 166.082C229.994 166.082 221.498 165.323 214.043 163.666L213.967 163.649C206.581 161.953 199.907 159.366 194.297 155.605C189.344 152.284 185.27 148.119 182.323 143.086C181.791 143.844 181.235 144.586 180.652 145.311C177.603 149.12 173.982 152.378 169.855 155.089C165.89 157.692 161.598 159.814 157.014 161.475C156.992 161.483 156.97 161.491 156.948 161.499C156.931 161.505 156.915 161.511 156.899 161.516C152.363 163.104 147.593 164.241 142.614 164.956C137.746 165.71 132.777 166.082 127.712 166.082C123.619 166.082 119.472 165.843 115.275 165.373C111.19 164.958 107.13 164.362 103.097 163.587C103.053 163.578 103.008 163.569 102.964 163.56C98.8945 162.726 94.8951 161.706 90.9673 160.502C90.911 160.485 90.8548 160.467 90.7988 160.449C86.9189 159.19 83.1711 157.767 79.56 156.173C75.5728 154.414 73 150.467 73 146.109V119.049C73 115.045 75.1392 111.541 78.337 109.617ZM116.443 154.436C120.271 154.866 124.028 155.082 127.712 155.082C132.258 155.082 136.685 154.747 140.991 154.077C145.346 153.455 149.437 152.474 153.265 151.134C157.093 149.746 160.61 148 163.816 145.894C167.022 143.789 169.774 141.3 172.071 138.429C174.356 135.585 176.141 132.354 177.426 128.736C177.46 128.642 177.493 128.547 177.526 128.452C178.257 126.341 178.781 124.092 179.098 121.705C179.342 119.872 179.464 117.958 179.464 115.963C179.464 113.953 179.302 112.038 178.977 110.218C178.691 108.614 178.279 107.084 177.741 105.627C176.593 102.517 174.99 99.7651 172.932 97.3726C170.875 94.9321 168.434 92.8267 165.611 91.0562C163.567 89.7747 161.374 88.6562 159.03 87.7007C158.135 87.336 157.218 86.995 156.28 86.6777C154.298 85.9698 152.24 85.3792 150.107 84.9058C148.635 84.5793 147.128 84.3086 145.585 84.0938C144.967 83.9987 144.348 83.9116 143.726 83.8323C142.836 83.7187 141.942 83.6213 141.044 83.54C138.779 83.3349 136.488 83.2324 134.172 83.2324C132.609 83.2324 131.01 83.3288 129.376 83.5216C128.31 83.6473 127.229 83.8141 126.133 84.022C123.406 84.5483 120.75 85.3618 118.166 86.4624L119.243 69.5947H130.583C134.172 69.5947 137.642 70.1689 140.991 71.3174C142.227 71.7412 143.421 72.2531 144.573 72.853C145.388 73.2775 146.182 73.7462 146.954 74.2589C146.998 74.2878 147.041 74.3168 147.085 74.3459C148.131 75.0494 149.139 75.8344 150.107 76.7007H171.712V42.75H84V100.028L93.0439 107.493C95.3887 107.062 97.853 106.656 100.437 106.273C103.021 105.89 105.629 105.555 108.261 105.268C110.893 104.933 113.477 104.694 116.013 104.55C118.549 104.359 120.965 104.263 123.262 104.263C125.463 104.263 127.497 104.479 129.363 104.909C131.229 105.292 132.833 105.962 134.172 106.919C135.56 107.876 136.637 109.168 137.402 110.795C138.168 112.374 138.551 114.336 138.551 116.681C138.551 119.408 138.216 121.585 137.546 123.212C136.924 124.839 135.991 126.083 134.747 126.945C133.55 127.806 132.067 128.38 130.296 128.667C128.526 128.955 126.516 129.098 124.267 129.098C120.678 129.098 117.329 128.285 114.218 126.658C111.108 125.031 108.189 122.495 105.461 119.049H84V146.109C87.2539 147.545 90.6514 148.837 94.1924 149.985C97.7812 151.086 101.442 152.019 105.174 152.785C108.907 153.502 112.663 154.053 116.443 154.436ZM177.337 86.1557C178.75 87.4224 180.076 88.7842 181.308 90.2414C183.399 92.6807 185.138 95.3548 186.534 98.2303C187.441 97.2445 188.397 96.3021 189.4 95.4019C188.516 94.3831 187.679 93.3261 186.892 92.2299C186.876 92.2066 186.859 92.1833 186.842 92.1599C184.456 88.7791 182.756 85.1247 181.724 81.2633C180.792 83.306 179.252 85.0136 177.337 86.1557ZM198.404 88.9687C200.964 91.7413 204.101 94.2316 207.816 96.4395C204.801 97.875 202.05 99.502 199.562 101.32C198.875 101.819 198.216 102.332 197.586 102.861C195.978 104.211 194.555 105.659 193.317 107.206C192.12 108.669 191.108 110.213 190.281 111.837C189.917 112.551 189.589 113.28 189.297 114.025C189.056 114.659 188.847 115.305 188.67 115.963C188.179 117.786 187.934 119.701 187.934 121.705C187.934 124.448 188.198 127.031 188.728 129.454C189.242 131.807 190.006 134.009 191.02 136.061C193.078 140.176 196.212 143.645 200.423 146.468C204.634 149.292 209.969 151.445 216.429 152.928C222.889 154.364 230.545 155.082 239.398 155.082C248.633 155.082 256.648 154.388 263.443 153C270.238 151.66 275.861 149.626 280.311 146.899C284.761 144.124 288.063 140.654 290.216 136.491C292.37 132.28 293.446 127.352 293.446 121.705C293.446 118.978 292.968 116.417 292.011 114.025C291.102 111.584 289.762 109.312 287.991 107.206C286.758 105.664 285.328 104.221 283.703 102.875C283.058 102.342 282.382 101.823 281.675 101.32C279.234 99.502 276.507 97.875 273.492 96.4395C277.205 94.233 280.34 91.7446 282.899 88.9742C283.837 87.9594 284.696 86.9068 285.479 85.8164C287.837 82.5305 289.243 78.8698 289.696 74.8343C289.804 73.8746 289.857 72.8937 289.857 71.8916C289.857 70.7336 289.804 69.6052 289.696 68.5064C289.349 64.9741 288.446 61.748 286.986 58.8281C285.072 55 282.105 51.77 278.086 49.1382C274.114 46.5063 269.018 44.5205 262.797 43.1807C256.625 41.793 249.255 41.0991 240.69 41.0991C232.125 41.0991 224.755 41.793 218.583 43.1807C212.41 44.5205 207.313 46.5063 203.294 49.1382C199.274 51.7222 196.308 54.9282 194.394 58.7563C192.479 62.5845 191.522 66.9629 191.522 71.8916C191.522 77.1074 192.958 81.749 195.829 85.8164C196.61 86.9049 197.468 87.9556 198.404 88.9687ZM291.947 95.3564C291.93 95.3758 291.914 95.3951 291.897 95.4144C292.011 95.5162 292.125 95.6185 292.238 95.7214C292.139 95.6019 292.042 95.4802 291.947 95.3564ZM317.043 81.8481C318.259 80.9788 319.724 80.2439 321.439 79.6436C323.354 78.9736 325.555 78.6387 328.043 78.6387V122.71L319.43 124.361V153H379.866V124.361L371.253 122.71V78.6387C373.741 78.6387 375.942 78.9736 377.856 79.6436C379.572 80.2439 381.037 80.9788 382.253 81.8481C382.394 81.9488 382.531 82.0514 382.666 82.1558C383.958 83.1606 384.938 84.2612 385.608 85.4575C386.278 86.606 386.613 87.6826 386.613 88.6875H398.6V51.9375H300.696V88.6875H312.683C312.683 87.6826 313.018 86.606 313.688 85.4575C314.357 84.2612 315.338 83.1606 316.63 82.1558C316.765 82.0514 316.902 81.9488 317.043 81.8481ZM416.975 82.0122V122.71L408.362 124.361V153H468.798V124.361L460.185 122.71V110.723H494.71V122.71L486.097 124.361V153H546.533V124.361L537.92 122.71V82.0122L546.533 80.3613V51.5786H486.097V80.3613L494.71 82.0122V93.8555H460.185V82.0122L468.798 80.3613V51.9375H408.362V80.3613L416.975 82.0122ZM246.289 106.704C244.662 106.369 242.795 106.201 240.69 106.201C238.584 106.201 236.694 106.369 235.02 106.704C233.393 106.991 232.005 107.589 230.856 108.498C229.756 109.407 228.895 110.675 228.272 112.302C227.698 113.881 227.411 115.963 227.411 118.547C227.411 120.748 227.698 122.519 228.272 123.858C228.847 125.198 229.684 126.251 230.785 127.017C231.933 127.734 233.321 128.213 234.948 128.452C236.623 128.691 238.537 128.811 240.69 128.811C242.843 128.811 244.733 128.691 246.36 128.452C248.035 128.213 249.423 127.734 250.523 127.017C251.672 126.251 252.533 125.198 253.107 123.858C253.682 122.519 253.969 120.748 253.969 118.547C253.969 115.963 253.658 113.881 253.036 112.302C252.461 110.675 251.6 109.407 250.452 108.498C249.351 107.589 247.963 106.991 246.289 106.704ZM231.861 68.231C232.866 67.4175 234.086 66.8672 235.522 66.5801C237.005 66.293 238.728 66.1494 240.69 66.1494C242.604 66.1494 244.303 66.293 245.786 66.5801C247.27 66.8672 248.514 67.4175 249.519 68.231C250.523 68.9966 251.265 70.0972 251.744 71.5327C252.27 72.9204 252.533 74.7148 252.533 76.916C252.533 78.9736 252.27 80.6484 251.744 81.9404C251.217 83.1846 250.452 84.1655 249.447 84.8833C248.442 85.6011 247.198 86.1035 245.714 86.3906C244.231 86.6299 242.556 86.7495 240.69 86.7495C238.824 86.7495 237.149 86.6299 235.666 86.3906C234.182 86.1035 232.938 85.6011 231.933 84.8833C230.928 84.1655 230.163 83.1846 229.636 81.9404C229.11 80.6484 228.847 78.9736 228.847 76.916C228.847 74.7148 229.086 72.9204 229.564 71.5327C230.091 70.0972 230.856 68.9966 231.861 68.231ZM242.952 117.748C242.945 117.588 242.936 117.441 242.926 117.306C242.317 117.242 241.578 117.201 240.69 117.201C239.823 117.201 239.08 117.241 238.449 117.304C238.44 117.442 238.432 117.59 238.426 117.749C239.096 117.788 239.849 117.811 240.69 117.811C241.543 117.811 242.294 117.788 242.952 117.748Z" stroke="white" stroke-width="40" stroke-linejoin="round" mask="url(#path-2-outside-2_238_9767)"/>
<path d="M124.267 129.098C126.516 129.098 128.526 128.955 130.296 128.667C132.067 128.38 133.55 127.806 134.747 126.945C135.991 126.083 136.924 124.839 137.546 123.212C138.216 121.585 138.551 119.408 138.551 116.681C138.551 114.336 138.168 112.374 137.402 110.795C136.637 109.168 135.56 107.876 134.172 106.919C132.833 105.962 131.229 105.292 129.363 104.909C127.497 104.479 125.463 104.263 123.262 104.263C120.965 104.263 118.549 104.359 116.013 104.55C113.477 104.694 110.893 104.933 108.261 105.268C105.629 105.555 103.021 105.89 100.437 106.273C97.853 106.656 95.3887 107.062 93.0439 107.493L84 100.028V42.75H171.712V76.7007H150.107C147.379 74.2603 144.341 72.4658 140.991 71.3174C137.642 70.1689 134.172 69.5947 130.583 69.5947H119.243L118.166 86.4624C120.75 85.3618 123.406 84.5483 126.133 84.022C128.909 83.4956 131.588 83.2324 134.172 83.2324C138.048 83.2324 141.853 83.5195 145.585 84.0938C149.365 84.6201 152.93 85.4814 156.28 86.6777C159.677 87.8262 162.788 89.2856 165.611 91.0562C168.434 92.8267 170.875 94.9321 172.932 97.3726C174.99 99.7651 176.593 102.517 177.741 105.627C178.89 108.737 179.464 112.183 179.464 115.963C179.464 120.557 178.818 124.72 177.526 128.452C176.234 132.185 174.416 135.51 172.071 138.429C169.774 141.3 167.022 143.789 163.816 145.894C160.61 148 157.093 149.746 153.265 151.134C149.437 152.474 145.346 153.455 140.991 154.077C136.685 154.747 132.258 155.082 127.712 155.082C124.028 155.082 120.271 154.866 116.443 154.436C112.663 154.053 108.907 153.502 105.174 152.785C101.442 152.019 97.7812 151.086 94.1924 149.985C90.6514 148.837 87.2539 147.545 84 146.109V119.049H105.461C108.189 122.495 111.108 125.031 114.218 126.658C117.329 128.285 120.678 129.098 124.267 129.098Z" fill="white"/>
<path d="M289.857 71.8916C289.857 77.1074 288.398 81.749 285.479 85.8164C282.56 89.8838 278.564 93.4248 273.492 96.4395C276.507 97.875 279.234 99.502 281.675 101.32C284.163 103.091 286.269 105.053 287.991 107.206C289.762 109.312 291.102 111.584 292.011 114.025C292.968 116.417 293.446 118.978 293.446 121.705C293.446 127.352 292.37 132.28 290.216 136.491C288.063 140.654 284.761 144.124 280.311 146.899C275.861 149.626 270.238 151.66 263.443 153C256.648 154.388 248.633 155.082 239.398 155.082C230.545 155.082 222.889 154.364 216.429 152.928C209.969 151.445 204.634 149.292 200.423 146.468C196.212 143.645 193.078 140.176 191.02 136.061C188.962 131.897 187.934 127.112 187.934 121.705C187.934 118.978 188.388 116.417 189.297 114.025C190.254 111.584 191.594 109.312 193.317 107.206C195.04 105.053 197.121 103.091 199.562 101.32C202.05 99.502 204.801 97.875 207.816 96.4395C202.744 93.4248 198.748 89.8838 195.829 85.8164C192.958 81.749 191.522 77.1074 191.522 71.8916C191.522 66.9629 192.479 62.5845 194.394 58.7563C196.308 54.9282 199.274 51.7222 203.294 49.1382C207.313 46.5063 212.41 44.5205 218.583 43.1807C224.755 41.793 232.125 41.0991 240.69 41.0991C249.255 41.0991 256.625 41.793 262.797 43.1807C269.018 44.5205 274.114 46.5063 278.086 49.1382C282.105 51.77 285.072 55 286.986 58.8281C288.9 62.6562 289.857 67.0107 289.857 71.8916ZM240.69 86.7495C242.556 86.7495 244.231 86.6299 245.714 86.3906C247.198 86.1035 248.442 85.6011 249.447 84.8833C250.452 84.1655 251.217 83.1846 251.744 81.9404C252.27 80.6484 252.533 78.9736 252.533 76.916C252.533 74.7148 252.27 72.9204 251.744 71.5327C251.265 70.0972 250.523 68.9966 249.519 68.231C248.514 67.4175 247.27 66.8672 245.786 66.5801C244.303 66.293 242.604 66.1494 240.69 66.1494C238.728 66.1494 237.005 66.293 235.522 66.5801C234.086 66.8672 232.866 67.4175 231.861 68.231C230.856 68.9966 230.091 70.0972 229.564 71.5327C229.086 72.9204 228.847 74.7148 228.847 76.916C228.847 78.9736 229.11 80.6484 229.636 81.9404C230.163 83.1846 230.928 84.1655 231.933 84.8833C232.938 85.6011 234.182 86.1035 235.666 86.3906C237.149 86.6299 238.824 86.7495 240.69 86.7495ZM240.69 106.201C238.584 106.201 236.694 106.369 235.02 106.704C233.393 106.991 232.005 107.589 230.856 108.498C229.756 109.407 228.895 110.675 228.272 112.302C227.698 113.881 227.411 115.963 227.411 118.547C227.411 120.748 227.698 122.519 228.272 123.858C228.847 125.198 229.684 126.251 230.785 127.017C231.933 127.734 233.321 128.213 234.948 128.452C236.623 128.691 238.537 128.811 240.69 128.811C242.843 128.811 244.733 128.691 246.36 128.452C248.035 128.213 249.423 127.734 250.523 127.017C251.672 126.251 252.533 125.198 253.107 123.858C253.682 122.519 253.969 120.748 253.969 118.547C253.969 115.963 253.658 113.881 253.036 112.302C252.461 110.675 251.6 109.407 250.452 108.498C249.351 107.589 247.963 106.991 246.289 106.704C244.662 106.369 242.795 106.201 240.69 106.201Z" fill="white"/>
<path d="M328.043 78.6387C325.555 78.6387 323.354 78.9736 321.439 79.6436C319.525 80.3135 317.922 81.1509 316.63 82.1558C315.338 83.1606 314.357 84.2612 313.688 85.4575C313.018 86.606 312.683 87.6826 312.683 88.6875H300.696V51.9375H398.6V88.6875H386.613C386.613 87.6826 386.278 86.606 385.608 85.4575C384.938 84.2612 383.958 83.1606 382.666 82.1558C381.374 81.1509 379.771 80.3135 377.856 79.6436C375.942 78.9736 373.741 78.6387 371.253 78.6387V122.71L379.866 124.361V153H319.43V124.361L328.043 122.71V78.6387Z" fill="white"/>
<path d="M408.362 51.9375H468.798V80.3613L460.185 82.0122V93.8555H494.71V82.0122L486.097 80.3613V51.5786H546.533V80.3613L537.92 82.0122V122.71L546.533 124.361V153H486.097V124.361L494.71 122.71V110.723H460.185V122.71L468.798 124.361V153H408.362V124.361L416.975 122.71V82.0122L408.362 80.3613V51.9375Z" fill="white"/>
<path fill-rule="evenodd" clip-rule="evenodd" d="M110.679 104.986C112.48 104.795 114.258 104.65 116.013 104.55C118.549 104.359 120.965 104.263 123.262 104.263C125.463 104.263 127.497 104.479 129.363 104.909C131.229 105.292 132.833 105.962 134.172 106.919C135.56 107.876 136.637 109.168 137.402 110.795C138.168 112.374 138.551 114.336 138.551 116.681C138.551 119.408 138.216 121.585 137.546 123.212C136.924 124.839 135.991 126.083 134.747 126.945C133.55 127.806 132.067 128.38 130.296 128.667C128.526 128.955 126.516 129.098 124.267 129.098C120.678 129.098 117.329 128.285 114.218 126.658C111.579 125.277 109.078 123.242 106.714 120.552C106.292 120.072 105.875 119.571 105.461 119.049H84V146.109C87.2539 147.545 90.6514 148.837 94.1924 149.985C97.7812 151.086 101.442 152.019 105.174 152.785C108.907 153.502 112.663 154.053 116.443 154.436C120.271 154.866 124.028 155.082 127.712 155.082C132.258 155.082 136.685 154.747 140.991 154.077C145.346 153.455 149.437 152.474 153.265 151.134C157.093 149.746 160.61 148 163.816 145.894C167.022 143.789 169.774 141.3 172.071 138.429C172.994 137.28 173.835 136.069 174.594 134.794C175.765 132.83 176.742 130.716 177.526 128.452C178.257 126.341 178.781 124.092 179.098 121.705C179.342 119.872 179.464 117.958 179.464 115.963C179.464 113.908 179.294 111.952 178.955 110.095C178.947 110.049 178.938 110.004 178.93 109.959C178.646 108.449 178.25 107.005 177.741 105.627C177.586 105.206 177.422 104.792 177.25 104.385C176.151 101.779 174.711 99.4415 172.932 97.3726C171.119 95.2218 169.008 93.3311 166.6 91.7007C166.276 91.4811 165.946 91.2663 165.611 91.0562C162.788 89.2856 159.677 87.8262 156.28 86.6777C154.298 85.9698 152.24 85.3792 150.107 84.9058C148.635 84.5793 147.128 84.3086 145.585 84.0938C144.967 83.9987 144.348 83.9116 143.726 83.8323C141.473 83.5448 139.194 83.3607 136.89 83.2799C135.988 83.2482 135.082 83.2324 134.172 83.2324C133.917 83.2324 133.66 83.235 133.402 83.2402C132.475 83.2587 131.535 83.3107 130.583 83.3961C129.128 83.5266 127.645 83.7353 126.133 84.022C125.287 84.1853 124.448 84.3762 123.616 84.5947C121.765 85.0807 119.948 85.7032 118.166 86.4624L119.243 69.5947H130.583C131.793 69.5947 132.99 69.66 134.172 69.7905C136.498 70.0471 138.771 70.5561 140.991 71.3174C143.103 72.0413 145.09 73.0218 146.954 74.2589C146.998 74.2878 147.041 74.3168 147.085 74.3459C148.131 75.0494 149.139 75.8344 150.107 76.7007H171.712V42.75H84V100.028L93.0439 107.493C95.3887 107.062 97.853 106.656 100.437 106.273C102.102 106.026 103.777 105.8 105.461 105.593C106.392 105.478 107.325 105.37 108.261 105.268C109.071 105.165 109.877 105.071 110.679 104.986ZM72.4 109.539C70.2202 106.88 69 103.525 69 100.028V42.75C69 34.4657 75.7157 27.75 84 27.75H171.712C179.996 27.75 186.712 34.4657 186.712 42.75V43.6571C189.168 40.9348 192.002 38.571 195.13 36.5545C201.057 32.685 207.957 30.1428 215.347 28.5337C222.889 26.8438 231.401 26.0991 240.69 26.0991C249.974 26.0991 258.482 26.843 266.021 28.5311C273.454 30.1381 280.405 32.6881 286.338 36.612C288.058 37.7405 289.689 38.9726 291.218 40.3107C293.801 38.2021 297.101 36.9375 300.696 36.9375H398.6C400.309 36.9375 401.951 37.2232 403.481 37.7495C405.011 37.2232 406.653 36.9375 408.362 36.9375H468.798C471.909 36.9375 474.798 37.8842 477.194 39.5052C479.684 37.6659 482.763 36.5786 486.097 36.5786H546.533C554.817 36.5786 561.533 43.2943 561.533 51.5786V80.3613C561.533 86.2786 558.078 91.5104 552.92 93.9357V110.786C558.078 113.212 561.533 118.444 561.533 124.361V153C561.533 161.284 554.817 168 546.533 168H486.097C482.876 168 479.892 166.985 477.448 165.257C475.003 166.985 472.019 168 468.798 168H408.362C401.72 168 396.087 163.684 394.114 157.703C392.141 163.684 386.508 168 379.866 168H319.43C311.145 168 304.43 161.284 304.43 153V141.538C304.159 142.137 303.873 142.731 303.571 143.321L303.54 143.383C300.005 150.216 294.707 155.599 288.249 159.627C288.216 159.647 288.183 159.668 288.149 159.688C281.788 163.587 274.379 166.128 266.394 167.707C258.361 169.343 249.311 170.082 239.398 170.082C229.793 170.082 220.993 169.308 213.175 167.571C213.141 167.563 213.106 167.556 213.072 167.548C205.348 165.774 198.188 163.029 192.07 158.927C188.259 156.372 184.892 153.335 182.089 149.805C179.145 153.107 175.781 155.982 172.05 158.432C167.81 161.217 163.236 163.475 158.377 165.236C158.325 165.255 158.273 165.273 158.22 165.292C153.427 166.969 148.411 168.163 143.205 168.913C138.133 169.697 132.966 170.082 127.712 170.082C123.47 170.082 119.181 169.835 114.849 169.351C110.653 168.923 106.484 168.311 102.342 167.515C102.281 167.503 102.221 167.491 102.16 167.479C97.9681 166.619 93.8455 165.568 89.7945 164.326C89.7178 164.303 89.6412 164.278 89.5648 164.254C85.5616 162.955 81.6865 161.484 77.9454 159.833C72.5083 157.434 69 152.052 69 146.109V119.049C69 115.439 70.2753 112.127 72.4 109.539ZM190.835 135.678C190.896 135.806 190.957 135.934 191.02 136.061C193.078 140.176 196.212 143.645 200.423 146.468C204.634 149.292 209.969 151.445 216.429 152.928C222.889 154.364 230.545 155.082 239.398 155.082C248.633 155.082 256.648 154.388 263.443 153C270.238 151.66 275.861 149.626 280.311 146.899C284.761 144.124 288.063 140.654 290.216 136.491C292.37 132.28 293.446 127.352 293.446 121.705C293.446 118.978 292.968 116.417 292.011 114.025C291.102 111.584 289.762 109.312 287.991 107.206C287.571 106.68 287.127 106.166 286.661 105.663C285.218 104.106 283.556 102.659 281.675 101.32C279.234 99.502 276.507 97.875 273.492 96.4395C278.554 93.4309 282.544 89.8981 285.461 85.8411C285.467 85.8329 285.473 85.8246 285.479 85.8164C285.552 85.7144 285.624 85.6121 285.696 85.5094C288.47 81.5159 289.857 76.9767 289.857 71.8916C289.857 67.0107 288.9 62.6562 286.986 58.8281C286.599 58.0539 286.169 57.3041 285.696 56.5788C283.829 53.7179 281.293 51.2377 278.086 49.1382C274.114 46.5063 269.018 44.5205 262.797 43.1807C256.625 41.793 249.255 41.0991 240.69 41.0991C232.125 41.0991 224.755 41.793 218.583 43.1807C212.41 44.5205 207.313 46.5063 203.294 49.1382C199.274 51.7222 196.308 54.9282 194.394 58.7563C192.479 62.5845 191.522 66.9629 191.522 71.8916C191.522 77.1074 192.958 81.749 195.829 85.8164C195.833 85.8221 195.837 85.8279 195.841 85.8336C198.759 89.8938 202.751 93.4291 207.816 96.4395C204.801 97.875 202.05 99.502 199.562 101.32C197.718 102.658 196.079 104.105 194.645 105.661C194.286 106.051 193.94 106.447 193.607 106.85C193.509 106.968 193.412 107.087 193.317 107.206C191.594 109.312 190.254 111.584 189.297 114.025C189.056 114.659 188.847 115.305 188.67 115.963C188.179 117.786 187.934 119.701 187.934 121.705C187.934 125.685 188.491 129.328 189.606 132.634C189.959 133.682 190.369 134.697 190.835 135.678ZM231.861 68.231C230.856 68.9966 230.091 70.0972 229.564 71.5327C229.086 72.9204 228.847 74.7148 228.847 76.916C228.847 78.9736 229.11 80.6484 229.636 81.9404C230.163 83.1846 230.928 84.1655 231.933 84.8833C232.938 85.6011 234.182 86.1035 235.666 86.3906C237.149 86.6299 238.824 86.7495 240.69 86.7495C242.556 86.7495 244.231 86.6299 245.714 86.3906C247.198 86.1035 248.442 85.6011 249.447 84.8833C250.452 84.1655 251.217 83.1846 251.744 81.9404C252.27 80.6484 252.533 78.9736 252.533 76.916C252.533 74.7148 252.27 72.9204 251.744 71.5327C251.265 70.0972 250.523 68.9966 249.519 68.231C248.514 67.4175 247.27 66.8672 245.786 66.5801C244.303 66.293 242.604 66.1494 240.69 66.1494C238.728 66.1494 237.005 66.293 235.522 66.5801C234.086 66.8672 232.866 67.4175 231.861 68.231ZM240.689 80.3359C240.689 80.3357 240.69 80.3354 240.69 80.3351C240.775 80.2789 240.862 80.2198 240.948 80.1575C241.014 80.1105 241.08 80.0617 241.145 80.011C241.197 79.9697 241.247 79.9282 241.297 79.8866C241.935 79.3507 242.419 78.7965 242.782 78.2893L240.69 77.4371L238.586 78.2941C238.967 78.8146 239.457 79.3629 240.083 79.8868C240.133 79.9286 240.184 79.9703 240.235 80.0117C240.301 80.0623 240.366 80.111 240.431 80.1579C240.518 80.2204 240.604 80.2797 240.689 80.3359ZM238.509 78.1866L240.481 77.3521L237.852 76.281C237.785 76.4464 237.73 76.5969 237.687 76.73C237.695 76.7502 237.704 76.7706 237.713 76.7912C237.721 76.8091 237.729 76.8272 237.737 76.8455C237.748 76.8687 237.758 76.8923 237.769 76.916C237.942 77.29 238.183 77.7258 238.509 78.1866ZM238.61 74.8494C238.377 75.1955 238.187 75.5362 238.035 75.8578C237.998 75.9384 237.962 76.0178 237.929 76.0958L240.69 77.2639L242.782 76.379L238.61 74.8494ZM243.048 76.4765L240.898 77.3521L242.858 78.181C243.198 77.6885 243.422 77.246 243.561 76.916C243.587 76.8536 243.611 76.7951 243.631 76.7412C243.637 76.7259 243.642 76.711 243.648 76.6965L243.048 76.4765ZM240.69 72.7048C240.731 72.7345 240.772 72.7645 240.812 72.7946C241.549 73.3471 242.135 73.9694 242.585 74.5856C242.667 74.6971 242.744 74.8083 242.816 74.9189C243.028 75.2411 243.203 75.5578 243.344 75.8578C243.382 75.9384 243.418 76.0178 243.451 76.0958L243.157 76.2199L238.72 74.6898C239.18 74.0398 239.789 73.3782 240.568 72.7946C240.608 72.7645 240.649 72.7345 240.69 72.7048ZM243.559 76.3583C243.549 76.3329 243.538 76.3071 243.528 76.281L243.439 76.3171L243.559 76.3583ZM235.02 106.704C233.393 106.991 232.005 107.589 230.856 108.498C229.756 109.407 228.895 110.675 228.272 112.302C227.698 113.881 227.411 115.963 227.411 118.547C227.411 120.748 227.698 122.519 228.272 123.858C228.847 125.198 229.684 126.251 230.785 127.017C231.933 127.734 233.321 128.213 234.948 128.452C236.623 128.691 238.537 128.811 240.69 128.811C242.843 128.811 244.733 128.691 246.36 128.452C248.035 128.213 249.423 127.734 250.523 127.017C251.672 126.251 252.533 125.198 253.107 123.858C253.682 122.519 253.969 120.748 253.969 118.547C253.969 115.963 253.658 113.881 253.036 112.302C252.461 110.675 251.6 109.407 250.452 108.498C249.351 107.589 247.963 106.991 246.289 106.704C244.662 106.369 242.795 106.201 240.69 106.201C238.584 106.201 236.694 106.369 235.02 106.704ZM240.66 119.847C240.67 119.838 240.68 119.829 240.69 119.82C241.04 119.502 241.321 119.189 241.544 118.902C241.64 118.778 241.726 118.659 241.802 118.547C241.928 118.359 242.027 118.191 242.102 118.049C242.088 118.017 242.074 117.983 242.06 117.95C241.996 117.801 241.923 117.647 241.84 117.49L239.963 116.772C239.921 116.835 239.881 116.897 239.842 116.959C239.692 117.199 239.564 117.431 239.457 117.652C239.407 117.754 239.362 117.853 239.32 117.95C239.299 117.998 239.28 118.046 239.261 118.092C239.342 118.235 239.435 118.388 239.542 118.547C239.623 118.666 239.711 118.789 239.808 118.915C240.04 119.216 240.322 119.533 240.66 119.847ZM240.084 116.597C240.187 116.451 240.3 116.303 240.421 116.154C240.505 116.053 240.59 115.953 240.677 115.857C240.681 115.861 240.686 115.866 240.69 115.871C240.875 116.072 241.045 116.276 241.198 116.48C241.293 116.607 241.383 116.734 241.466 116.86C241.535 116.964 241.6 117.068 241.662 117.171L240.084 116.597ZM303.713 103.688C304.591 105.265 305.358 106.91 306.005 108.622C306.81 110.666 307.408 112.755 307.811 114.873C309.213 113.157 310.994 111.75 313.043 110.786V103.683C312.923 103.686 312.803 103.688 312.683 103.688H303.713ZM315.696 82.9496C315.987 82.6786 316.298 82.414 316.63 82.1558C317.922 81.1509 319.525 80.3135 321.439 79.6436C323.354 78.9736 325.555 78.6387 328.043 78.6387V122.71L319.43 124.361V153H379.866V124.361L371.253 122.71V78.6387C373.741 78.6387 375.942 78.9736 377.856 79.6436C379.771 80.3135 381.374 81.1509 382.666 82.1558C382.998 82.414 383.309 82.6786 383.6 82.9496C384.441 83.7327 385.111 84.5687 385.608 85.4575C385.877 85.9182 386.092 86.3674 386.253 86.805C386.493 87.4583 386.613 88.0857 386.613 88.6875H398.6V51.9375H300.696V88.6875H312.683C312.683 88.0857 312.803 87.4583 313.043 86.805C313.204 86.3674 313.419 85.9182 313.688 85.4575C314.185 84.5687 314.855 83.7327 315.696 82.9496ZM401.975 103.306C400.89 103.556 399.761 103.688 398.6 103.688H386.613C386.493 103.688 386.373 103.686 386.253 103.683V110.786C389.988 112.543 392.83 115.77 394.114 119.664C395.398 115.77 398.24 112.543 401.975 110.786V103.306ZM416.975 122.71L408.362 124.361V153H468.798V124.361L460.185 122.71V110.723H494.71V122.71L486.097 124.361V153H546.533V124.361L537.92 122.71V82.0122L546.533 80.3613V51.5786H486.097V80.3613L494.71 82.0122V93.8555H460.185V82.0122L468.798 80.3613V51.9375H408.362V80.3613L416.975 82.0122V122.71Z" fill="#E25550"/>
</svg>
