<svg width="337" height="470" viewBox="0 0 337 470" fill="none" xmlns="http://www.w3.org/2000/svg">
<path d="M152.658 0.758609C152.711 0.561982 152.824 0.386392 152.981 0.255763C153.139 0.125134 153.333 0.0458126 153.538 0.0286054C155.811 -0.164728 156.958 0.621939 156.978 2.38861C157.078 11.1753 157.915 19.3386 159.488 26.8786C163.308 45.1686 174.948 47.7886 191.998 47.5086C192.158 47.5057 192.317 47.5415 192.46 47.6129C192.602 47.6843 192.725 47.7892 192.818 47.9186C194.578 50.3486 192.448 51.4186 190.378 51.9186C179.128 54.6486 168.288 55.3886 163.318 67.5486C158.648 78.9986 160.688 91.9386 160.088 103.939C160.078 104.196 159.967 104.439 159.781 104.616C159.594 104.794 159.345 104.891 159.088 104.889H155.988C155.856 104.889 155.725 104.862 155.603 104.812C155.481 104.761 155.37 104.686 155.277 104.592C155.184 104.498 155.111 104.387 155.061 104.264C155.012 104.142 154.987 104.011 154.988 103.879C155.028 94.6919 154.448 86.1953 153.248 78.3886C151.908 69.6419 147.595 63.3886 140.308 59.6286C134.928 56.8486 126.498 55.9886 119.858 54.4786C119.601 54.4142 119.379 54.257 119.238 54.0386C117.478 51.2686 119.398 49.7186 122.148 49.9086C133.208 50.6986 142.998 50.0086 148.108 38.8386C152.528 29.1786 152.518 16.1986 152.108 5.63861C152.041 3.95861 152.225 2.33194 152.658 0.758609Z" fill="#FEFEFE"/>
<path d="M208.268 211.669C208.081 211.61 207.915 211.498 207.79 211.347C207.666 211.196 207.589 211.012 207.568 210.819C206.768 203.549 216.908 204.649 222.448 205.119C225.348 205.359 229.215 204.979 234.048 203.979C244.838 201.739 256.958 195.569 260.698 184.309C266.388 167.169 265.768 150.169 265.598 132.389C265.551 127.589 266.681 123.105 268.988 118.939C269.955 117.192 271.365 116.699 273.218 117.459C277.398 119.189 278.698 123.069 278.708 127.639C278.741 137.532 278.658 147.422 278.458 157.309C278.218 169.409 283.288 180.649 291.138 189.579C301.598 201.469 314.938 199.579 329.938 199.129C337.518 198.909 339.868 208.589 331.368 209.219C323.921 209.765 317.035 210.922 310.708 212.689C286.818 219.369 280.848 247.889 279.738 268.819C279.205 278.759 278.911 289.109 278.858 299.869C278.859 300.011 278.828 300.153 278.767 300.283C278.707 300.412 278.619 300.528 278.509 300.621C278.399 300.714 278.269 300.783 278.129 300.822C277.989 300.861 277.842 300.87 277.698 300.849L272.428 299.999C272.2 299.962 271.991 299.847 271.838 299.674C271.685 299.501 271.597 299.28 271.588 299.049C270.668 273.819 273.558 238.019 248.398 221.519C236.048 213.409 221.698 215.819 208.268 211.669Z" fill="#FEFEFE"/>
<path d="M2.11796 343.439C0.0712903 342.285 -0.492046 340.765 0.427954 338.879C1.78795 336.112 3.7713 333.912 6.37797 332.279C6.56428 332.163 6.78311 332.111 7.00138 332.131C7.21965 332.151 7.42555 332.241 7.58799 332.389C9.55799 334.199 11.268 332.739 13.058 332.599C17.6113 332.245 22.1546 332.092 26.688 332.139C28.368 332.159 30.478 333.179 32.738 332.999C46.578 331.919 54.068 329.189 64.448 320.979C73.678 313.679 75.668 305.739 79.158 292.999C80.978 286.332 82.5546 279.609 83.888 272.829C84.498 269.729 83.548 266.869 83.498 263.779C83.3913 257.479 83.1979 251.185 82.9179 244.899C82.4879 235.429 82.698 222.979 86.438 214.189C91.638 201.999 99.658 211.969 99.578 219.829C99.448 234.209 99.018 248.869 100.198 263.209C101.048 273.559 101.808 278.529 105.188 288.309C112.058 308.219 129.398 327.489 151.938 326.669C162.318 326.299 173.578 325.409 183.878 326.329C184.109 326.348 184.327 326.446 184.493 326.607C184.659 326.767 184.763 326.98 184.788 327.209C185.328 331.929 186.118 338.569 179.838 339.099C168.958 340.039 159.751 341.162 152.218 342.469C136.918 345.119 122.448 359.159 115.218 372.129C111.268 379.209 108.208 389.699 106.038 397.459C105.568 399.159 106.018 401.259 105.758 403.009C103.391 419.135 102.221 430.365 102.248 436.699C102.288 447.352 102.191 458.005 101.958 468.659C101.953 468.92 101.845 469.17 101.658 469.353C101.471 469.536 101.22 469.639 100.958 469.639H92.208C92.0758 469.639 91.945 469.612 91.823 469.562C91.701 469.511 91.5903 469.436 91.4973 469.342C91.4043 469.248 91.3309 469.137 91.2812 469.014C91.2316 468.892 91.2067 468.761 91.208 468.629C91.3947 444.729 90.468 423.569 88.428 405.149C86.588 388.509 76.938 374.099 65.588 362.009C58.098 354.049 52.2179 351.639 40.798 349.649C30.1313 347.789 19.4213 346.262 8.66794 345.069C6.20794 344.789 4.32796 344.689 2.11796 343.439Z" fill="#FEFEFE"/>
</svg>
