<svg width="336" height="293" viewBox="0 0 336 293" fill="none" xmlns="http://www.w3.org/2000/svg">
<path d="M4.10383 105.698C12.8538 93.5079 20.0938 86.8279 32.3838 75.7979C39.8438 69.0979 40.5638 61.5579 41.4138 50.3879C42.4738 36.3679 44.9538 22.5812 48.8538 9.02789C49.9138 5.34789 51.3338 2.45787 53.1138 0.357873C53.2045 0.248602 53.3179 0.160635 53.4457 0.100152C53.5736 0.0396691 53.7129 0.00817351 53.8538 0.00789747C58.8138 -0.0787692 63.1372 0.547872 66.8238 1.88787C82.3538 7.55787 101.924 16.1779 112.784 29.1279C113.83 30.3812 115.174 30.9979 116.814 30.9779C133.094 30.8079 148.474 34.1679 165.294 39.1979C169.514 40.4579 172.244 42.7179 171.494 47.3079C170.061 56.0146 167.774 68.0812 164.634 83.5079C161.114 100.818 160.474 111.598 165.374 127.518C168.407 137.371 171.584 147.418 174.904 157.658C175.49 159.458 174.904 160.708 173.144 161.408C166.824 163.928 159.98 165.728 152.614 166.808C151.167 167.021 147.27 166.728 140.924 165.928C133.094 164.938 125.994 164.208 118.584 161.528C118.398 161.46 118.197 161.448 118.004 161.494C117.812 161.54 117.638 161.643 117.504 161.788C106.704 173.668 97.1338 186.698 86.8838 199.058C84.5572 201.871 82.0005 204.525 79.2138 207.018C79.043 207.171 78.8251 207.261 78.5961 207.274C78.3671 207.287 78.1406 207.221 77.9538 207.088C68.7938 200.478 61.6238 184.108 58.9738 173.358C57.2538 166.405 55.9272 159.365 54.9938 152.238C54.7338 150.245 53.7038 148.805 51.9038 147.918C39.2038 141.638 25.4938 137.518 12.1738 132.718C10.3938 132.071 8.36383 130.828 6.08383 128.988C-1.65617 122.718 -1.66617 113.728 4.10383 105.698ZM18.0838 119.098C33.6772 124.498 48.9605 130.618 63.9338 137.458C65.8938 138.351 67.7272 139.298 69.4338 140.298C70.7605 141.071 71.4372 142.225 71.4638 143.758C71.6838 154.928 71.8638 168.168 76.4838 178.438C77.3372 180.331 78.5205 180.568 80.0338 179.148C91.3738 168.498 100.404 154.948 109.904 142.378C111.244 140.598 112.78 140.411 114.514 141.818C119.394 145.788 122.254 147.518 128.614 148.528C138.744 150.128 149.154 152.698 157.144 151.008C157.284 150.978 157.415 150.918 157.53 150.833C157.645 150.748 157.74 150.639 157.809 150.514C157.878 150.389 157.92 150.25 157.931 150.108C157.942 149.965 157.923 149.822 157.874 149.688C154.267 139.808 151.194 129.738 148.654 119.478C145.564 107.008 145.044 96.7479 147.424 84.7879C149.197 75.8679 151.054 66.9445 152.994 58.0179C153.614 55.1579 155.934 51.9779 151.124 50.7479C139.214 47.7079 127.134 47.7879 114.554 47.9879C111.204 48.0379 109.584 47.0079 108.004 43.9379C105.257 38.6112 101.86 34.7379 97.8138 32.3179C87.8405 26.3512 77.4572 21.1812 66.6638 16.8079C66.5238 16.7519 66.3729 16.7284 66.2225 16.7389C66.0721 16.7495 65.926 16.794 65.7952 16.869C65.6644 16.944 65.5523 17.0477 65.4672 17.1722C65.3821 17.2967 65.3262 17.4388 65.3038 17.5879C64.4305 23.3346 63.4738 29.1179 62.4338 34.9379C60.0138 48.5079 59.6338 62.0179 57.1238 76.0279C56.0838 81.8379 53.7338 84.1679 48.5038 87.4579C37.2738 94.5279 23.6138 105.678 17.5138 117.708C17.4506 117.835 17.4153 117.975 17.4102 118.117C17.4051 118.259 17.4304 118.4 17.4844 118.532C17.5383 118.663 17.6197 118.782 17.723 118.88C17.8264 118.977 17.9494 119.052 18.0838 119.098Z" fill="#FEFEFE"/>
<path d="M284.134 84.578C285.334 75.0246 287.057 65.568 289.304 56.208C289.351 56.0065 289.459 55.8249 289.613 55.6886C289.767 55.5522 289.96 55.4681 290.164 55.448L297.874 54.648C299.294 54.5013 300.44 55.3146 301.314 57.088L311.694 78.238C311.804 78.4611 311.994 78.6349 312.227 78.7255C312.46 78.8161 312.719 78.817 312.954 78.728C317.587 76.9213 322.394 75.8946 327.374 75.648C327.564 75.636 327.754 75.6797 327.921 75.7737C328.087 75.8677 328.224 76.0081 328.314 76.178C330.187 79.7313 330.424 83.3446 329.024 87.018C328.946 87.2188 328.806 87.3875 328.624 87.4979L322.444 91.408C322.332 91.479 322.236 91.5715 322.16 91.6801C322.085 91.7886 322.032 91.9111 322.004 92.0404C321.976 92.1696 321.974 92.3031 321.998 92.4332C322.022 92.5632 322.072 92.6872 322.144 92.798C326.317 99.2913 330.827 105.541 335.674 111.548C335.826 111.734 335.904 111.969 335.895 112.21C335.886 112.451 335.79 112.681 335.624 112.858C330.024 118.858 320.244 117.638 313.744 114.278C313.544 114.175 313.315 114.142 313.094 114.183C312.873 114.225 312.673 114.339 312.524 114.508C308.684 118.915 305.247 123.601 302.214 128.568C300.954 130.621 299.43 131.195 297.644 130.288C290.17 126.481 287.137 120.331 288.544 111.838C288.565 111.708 288.561 111.575 288.53 111.447C288.5 111.318 288.445 111.197 288.368 111.09C288.291 110.983 288.193 110.893 288.081 110.824C287.969 110.755 287.844 110.709 287.714 110.688C281.814 109.768 275.294 108.598 272.414 102.218C268.834 94.278 276.284 87.748 283.454 85.398C283.635 85.3412 283.796 85.2334 283.917 85.0878C284.037 84.9422 284.113 84.7651 284.134 84.578Z" fill="#FEFEFE"/>
<path d="M188.274 255.468C180.154 251.858 171.974 249.578 172.274 239.068C172.334 237.061 173.357 235.855 175.344 235.448C183.037 233.895 190.59 231.835 198.004 229.268C198.136 229.221 198.257 229.148 198.358 229.053C198.46 228.958 198.54 228.844 198.594 228.718C200.88 223.518 203.344 218.258 205.984 212.938C208.184 208.498 212.894 204.428 218.064 207.178C222.734 209.658 225.784 219.098 226.734 223.938C227.474 227.698 228.924 228.788 232.364 229.768C240.464 232.068 259.694 239.388 260.844 248.288C260.866 248.431 260.853 248.579 260.808 248.719C260.763 248.859 260.687 248.989 260.584 249.098C256.994 252.958 249.094 249.858 245.144 248.378C243.424 247.731 241.77 247.871 240.184 248.798C237.464 250.388 237.344 251.888 238.524 254.798C241.724 262.668 247.884 278.878 239.144 284.618C237.864 285.465 236.544 285.411 235.184 284.458L221.584 274.988C221.472 274.909 221.345 274.854 221.211 274.826C221.077 274.799 220.938 274.8 220.804 274.829C220.67 274.858 220.542 274.915 220.431 274.995C220.319 275.076 220.224 275.179 220.154 275.298C218.007 278.925 215.75 282.511 213.384 286.058C208.384 293.548 197.844 295.398 192.694 286.948C187.764 278.868 187.794 265.548 188.864 256.498C188.887 256.286 188.842 256.072 188.736 255.887C188.63 255.702 188.468 255.555 188.274 255.468ZM215.951 228.213C215.894 228.053 215.799 227.909 215.669 227.789C215.539 227.669 215.378 227.575 215.195 227.512C215.011 227.45 214.809 227.42 214.6 227.425C214.391 227.43 214.178 227.47 213.975 227.541C213.565 227.686 213.217 227.952 213.007 228.283C212.797 228.613 212.743 228.98 212.857 229.303C212.913 229.462 213.009 229.607 213.139 229.727C213.268 229.847 213.429 229.941 213.613 230.004C213.796 230.066 213.998 230.095 214.208 230.091C214.417 230.086 214.629 230.046 214.832 229.975C215.243 229.83 215.591 229.563 215.801 229.233C216.01 228.903 216.064 228.536 215.951 228.213ZM207.254 247.578C206.164 252.688 211.214 255.208 214.504 257.248C214.708 257.373 214.949 257.421 215.185 257.384C215.422 257.348 215.637 257.229 215.794 257.048C218.674 253.701 220.907 249.931 222.494 245.738C222.541 245.614 222.563 245.482 222.559 245.349C222.554 245.217 222.523 245.086 222.467 244.966C222.411 244.845 222.332 244.738 222.233 244.649C222.135 244.56 222.019 244.491 221.894 244.448C216.46 242.541 211.687 243.405 207.574 247.038C207.411 247.181 207.299 247.37 207.254 247.578ZM208.704 268.728C203.574 266.038 200.084 270.758 203.394 274.608C203.484 274.715 203.595 274.802 203.721 274.863C203.847 274.923 203.985 274.957 204.125 274.96C204.265 274.964 204.404 274.938 204.533 274.884C204.662 274.831 204.778 274.75 204.874 274.648L208.964 270.298C209.069 270.186 209.148 270.051 209.193 269.904C209.238 269.756 209.248 269.6 209.223 269.449C209.198 269.297 209.138 269.152 209.048 269.027C208.958 268.902 208.84 268.8 208.704 268.728Z" fill="#FEFEFE"/>
</svg>
