<svg width="535" height="114" viewBox="0 0 535 114" fill="none" xmlns="http://www.w3.org/2000/svg">
<g clip-path="url(#clip0_237_28912)">
<path d="M11.383 0H0V11.4H11.383V0Z" fill="black"/>
<path d="M22.7659 0H11.3829V11.4H22.7659V0Z" fill="black"/>
<path d="M34.149 0H22.766V11.4H34.149V0Z" fill="black"/>
<path d="M45.5319 0H34.1489V11.4H45.5319V0Z" fill="black"/>
<path d="M56.9148 0H45.5319V11.4H56.9148V0Z" fill="black"/>
<path d="M68.2979 0H56.9149V11.4H68.2979V0Z" fill="black"/>
<path d="M79.6808 0H68.2979V11.4H79.6808V0Z" fill="black"/>
<path d="M91.0639 0H79.6809V11.4H91.0639V0Z" fill="black"/>
<path d="M102.447 0H91.0638V11.4H102.447V0Z" fill="black"/>
<path d="M113.83 0H102.447V11.4H113.83V0Z" fill="black"/>
<path d="M125.213 0H113.83V11.4H125.213V0Z" fill="black"/>
<path d="M136.596 0H125.213V11.4H136.596V0Z" fill="black"/>
<path d="M147.979 0H136.596V11.4H147.979V0Z" fill="black"/>
<path d="M159.362 0H147.979V11.4H159.362V0Z" fill="black"/>
<path d="M170.745 0H159.362V11.4H170.745V0Z" fill="black"/>
<path d="M182.128 0H170.745V11.4H182.128V0Z" fill="black"/>
<path d="M193.511 0H182.128V11.4H193.511V0Z" fill="black"/>
<path d="M204.894 0H193.511V11.4H204.894V0Z" fill="black"/>
<path d="M216.277 0H204.894V11.4H216.277V0Z" fill="black"/>
<path d="M227.66 0H216.277V11.4H227.66V0Z" fill="black"/>
<path d="M239.043 0H227.66V11.4H239.043V0Z" fill="black"/>
<path d="M250.426 0H239.043V11.4H250.426V0Z" fill="black"/>
<path d="M261.809 0H250.426V11.4H261.809V0Z" fill="black"/>
<path d="M273.192 0H261.809V11.4H273.192V0Z" fill="black"/>
<path d="M284.574 0H273.191V11.4H284.574V0Z" fill="black"/>
<path d="M295.957 0H284.574V11.4H295.957V0Z" fill="black"/>
<path d="M307.34 0H295.957V11.4H307.34V0Z" fill="black"/>
<path d="M318.723 0H307.34V11.4H318.723V0Z" fill="black"/>
<path d="M330.106 0H318.723V11.4H330.106V0Z" fill="black"/>
<path d="M341.489 0H330.106V11.4H341.489V0Z" fill="black"/>
<path d="M352.872 0H341.489V11.4H352.872V0Z" fill="black"/>
<path d="M364.255 0H352.872V11.4H364.255V0Z" fill="black"/>
<path d="M375.638 0H364.255V11.4H375.638V0Z" fill="black"/>
<path d="M387.021 0H375.638V11.4H387.021V0Z" fill="black"/>
<path d="M398.404 0H387.021V11.4H398.404V0Z" fill="black"/>
<path d="M409.787 0H398.404V11.4H409.787V0Z" fill="black"/>
<path d="M421.17 0H409.787V11.4H421.17V0Z" fill="black"/>
<path d="M432.553 0H421.17V11.4H432.553V0Z" fill="black"/>
<path d="M443.936 0H432.553V11.4H443.936V0Z" fill="black"/>
<path d="M455.319 0H443.936V11.4H455.319V0Z" fill="black"/>
<path d="M466.702 0H455.319V11.4H466.702V0Z" fill="black"/>
<path d="M478.085 0H466.702V11.4H478.085V0Z" fill="black"/>
<path d="M489.468 0H478.085V11.4H489.468V0Z" fill="black"/>
<path d="M500.851 0H489.468V11.4H500.851V0Z" fill="black"/>
<path d="M512.234 0H500.851V11.4H512.234V0Z" fill="black"/>
<path d="M523.617 0H512.234V11.4H523.617V0Z" fill="black"/>
<path d="M535 0H523.617V11.4H535V0Z" fill="black"/>
<path d="M11.383 11.3999H0V22.7999H11.383V11.3999Z" fill="black"/>
<path d="M22.7659 11.3999H11.3829V22.7999H22.7659V11.3999Z" fill="black"/>
<path d="M34.149 11.3999H22.766V22.7999H34.149V11.3999Z" fill="black"/>
<path d="M45.5319 11.3999H34.1489V22.7999H45.5319V11.3999Z" fill="black"/>
<path d="M56.9148 11.3999H45.5319V22.7999H56.9148V11.3999Z" fill="black"/>
<path d="M68.2979 11.3999H56.9149V22.7999H68.2979V11.3999Z" fill="black"/>
<path d="M79.6808 11.3999H68.2979V22.7999H79.6808V11.3999Z" fill="black"/>
<path d="M91.0639 11.3999H79.6809V22.7999H91.0639V11.3999Z" fill="black"/>
<path d="M102.447 11.3999H91.0638V22.7999H102.447V11.3999Z" fill="black"/>
<path d="M113.83 11.3999H102.447V22.7999H113.83V11.3999Z" fill="black"/>
<path d="M125.213 11.3999H113.83V22.7999H125.213V11.3999Z" fill="black"/>
<path d="M136.596 11.3999H125.213V22.7999H136.596V11.3999Z" fill="black"/>
<path d="M147.979 11.3999H136.596V22.7999H147.979V11.3999Z" fill="black"/>
<path d="M159.362 11.3999H147.979V22.7999H159.362V11.3999Z" fill="black"/>
<path d="M170.745 11.3999H159.362V22.7999H170.745V11.3999Z" fill="black"/>
<path d="M182.128 11.3999H170.745V22.7999H182.128V11.3999Z" fill="black"/>
<path d="M193.511 11.3999H182.128V22.7999H193.511V11.3999Z" fill="black"/>
<path d="M204.894 11.3999H193.511V22.7999H204.894V11.3999Z" fill="black"/>
<path d="M216.277 11.3999H204.894V22.7999H216.277V11.3999Z" fill="black"/>
<path d="M227.66 11.3999H216.277V22.7999H227.66V11.3999Z" fill="black"/>
<path d="M239.043 11.3999H227.66V22.7999H239.043V11.3999Z" fill="black"/>
<path d="M250.426 11.3999H239.043V22.7999H250.426V11.3999Z" fill="black"/>
<path d="M261.809 11.3999H250.426V22.7999H261.809V11.3999Z" fill="black"/>
<path d="M273.192 11.3999H261.809V22.7999H273.192V11.3999Z" fill="black"/>
<path d="M284.574 11.3999H273.191V22.7999H284.574V11.3999Z" fill="black"/>
<path d="M295.957 11.3999H284.574V22.7999H295.957V11.3999Z" fill="black"/>
<path d="M307.34 11.3999H295.957V22.7999H307.34V11.3999Z" fill="black"/>
<path d="M318.723 11.3999H307.34V22.7999H318.723V11.3999Z" fill="black"/>
<path d="M330.106 11.3999H318.723V22.7999H330.106V11.3999Z" fill="black"/>
<path d="M341.489 11.3999H330.106V22.7999H341.489V11.3999Z" fill="black"/>
<path d="M352.872 11.3999H341.489V22.7999H352.872V11.3999Z" fill="black"/>
<path d="M364.255 11.3999H352.872V22.7999H364.255V11.3999Z" fill="black"/>
<path d="M375.638 11.3999H364.255V22.7999H375.638V11.3999Z" fill="black"/>
<path d="M387.021 11.3999H375.638V22.7999H387.021V11.3999Z" fill="black"/>
<path d="M398.404 11.3999H387.021V22.7999H398.404V11.3999Z" fill="black"/>
<path d="M409.787 11.3999H398.404V22.7999H409.787V11.3999Z" fill="black"/>
<path d="M421.17 11.3999H409.787V22.7999H421.17V11.3999Z" fill="black"/>
<path d="M432.553 11.3999H421.17V22.7999H432.553V11.3999Z" fill="black"/>
<path d="M443.936 11.3999H432.553V22.7999H443.936V11.3999Z" fill="black"/>
<path d="M455.319 11.3999H443.936V22.7999H455.319V11.3999Z" fill="black"/>
<path d="M466.702 11.3999H455.319V22.7999H466.702V11.3999Z" fill="black"/>
<path d="M478.085 11.3999H466.702V22.7999H478.085V11.3999Z" fill="black"/>
<path d="M489.468 11.3999H478.085V22.7999H489.468V11.3999Z" fill="black"/>
<path d="M500.851 11.3999H489.468V22.7999H500.851V11.3999Z" fill="black"/>
<path d="M512.234 11.3999H500.851V22.7999H512.234V11.3999Z" fill="black"/>
<path d="M523.617 11.3999H512.234V22.7999H523.617V11.3999Z" fill="black"/>
<path d="M535 11.3999H523.617V22.7999H535V11.3999Z" fill="black"/>
<path d="M11.383 22.8H0V34.2H11.383V22.8Z" fill="black"/>
<path d="M22.7659 22.8H11.3829V34.2H22.7659V22.8Z" fill="black"/>
<path d="M34.149 22.8H22.766V34.2H34.149V22.8Z" fill="black"/>
<path d="M45.5319 22.8H34.1489V34.2H45.5319V22.8Z" fill="black"/>
<path d="M56.9148 22.8H45.5319V34.2H56.9148V22.8Z" fill="white"/>
<path d="M68.2979 22.8H56.9149V34.2H68.2979V22.8Z" fill="white"/>
<path d="M79.6808 22.8H68.2979V34.2H79.6808V22.8Z" fill="black"/>
<path d="M91.0639 22.8H79.6809V34.2H91.0639V22.8Z" fill="black"/>
<path d="M102.447 22.8H91.0638V34.2H102.447V22.8Z" fill="white"/>
<path d="M113.83 22.8H102.447V34.2H113.83V22.8Z" fill="white"/>
<path d="M125.213 22.8H113.83V34.2H125.213V22.8Z" fill="black"/>
<path d="M136.596 22.8H125.213V34.2H136.596V22.8Z" fill="black"/>
<path d="M147.979 22.8H136.596V34.2H147.979V22.8Z" fill="black"/>
<path d="M159.362 22.8H147.979V34.2H159.362V22.8Z" fill="black"/>
<path d="M170.745 22.8H159.362V34.2H170.745V22.8Z" fill="black"/>
<path d="M182.128 22.8H170.745V34.2H182.128V22.8Z" fill="black"/>
<path d="M193.511 22.8H182.128V34.2H193.511V22.8Z" fill="black"/>
<path d="M204.894 22.8H193.511V34.2H204.894V22.8Z" fill="black"/>
<path d="M216.277 22.8H204.894V34.2H216.277V22.8Z" fill="black"/>
<path d="M227.66 22.8H216.277V34.2H227.66V22.8Z" fill="black"/>
<path d="M239.043 22.8H227.66V34.2H239.043V22.8Z" fill="black"/>
<path d="M250.426 22.8H239.043V34.2H250.426V22.8Z" fill="black"/>
<path d="M261.809 22.8H250.426V34.2H261.809V22.8Z" fill="black"/>
<path d="M273.192 22.8H261.809V34.2H273.192V22.8Z" fill="black"/>
<path d="M284.574 22.8H273.191V34.2H284.574V22.8Z" fill="black"/>
<path d="M295.957 22.8H284.574V34.2H295.957V22.8Z" fill="black"/>
<path d="M307.34 22.8H295.957V34.2H307.34V22.8Z" fill="black"/>
<path d="M318.723 22.8H307.34V34.2H318.723V22.8Z" fill="white"/>
<path d="M330.106 22.8H318.723V34.2H330.106V22.8Z" fill="white"/>
<path d="M341.489 22.8H330.106V34.2H341.489V22.8Z" fill="black"/>
<path d="M352.872 22.8H341.489V34.2H352.872V22.8Z" fill="black"/>
<path d="M364.255 22.8H352.872V34.2H364.255V22.8Z" fill="white"/>
<path d="M375.638 22.8H364.255V34.2H375.638V22.8Z" fill="white"/>
<path d="M387.021 22.8H375.638V34.2H387.021V22.8Z" fill="black"/>
<path d="M398.404 22.8H387.021V34.2H398.404V22.8Z" fill="black"/>
<path d="M409.787 22.8H398.404V34.2H409.787V22.8Z" fill="black"/>
<path d="M421.17 22.8H409.787V34.2H421.17V22.8Z" fill="black"/>
<path d="M432.553 22.8H421.17V34.2H432.553V22.8Z" fill="black"/>
<path d="M443.936 22.8H432.553V34.2H443.936V22.8Z" fill="black"/>
<path d="M455.319 22.8H443.936V34.2H455.319V22.8Z" fill="black"/>
<path d="M466.702 22.8H455.319V34.2H466.702V22.8Z" fill="black"/>
<path d="M478.085 22.8H466.702V34.2H478.085V22.8Z" fill="black"/>
<path d="M489.468 22.8H478.085V34.2H489.468V22.8Z" fill="black"/>
<path d="M500.851 22.8H489.468V34.2H500.851V22.8Z" fill="black"/>
<path d="M512.234 22.8H500.851V34.2H512.234V22.8Z" fill="black"/>
<path d="M523.617 22.8H512.234V34.2H523.617V22.8Z" fill="black"/>
<path d="M535 22.8H523.617V34.2H535V22.8Z" fill="black"/>
<path d="M11.383 34.2H0V45.6H11.383V34.2Z" fill="black"/>
<path d="M22.7659 34.2H11.3829V45.6H22.7659V34.2Z" fill="black"/>
<path d="M34.149 34.2H22.766V45.6H34.149V34.2Z" fill="black"/>
<path d="M45.5319 34.2H34.1489V45.6H45.5319V34.2Z" fill="black"/>
<path d="M56.9148 34.2H45.5319V45.6H56.9148V34.2Z" fill="white"/>
<path d="M68.2979 34.2H56.9149V45.6H68.2979V34.2Z" fill="white"/>
<path d="M79.6808 34.2H68.2979V45.6H79.6808V34.2Z" fill="black"/>
<path d="M91.0639 34.2H79.6809V45.6H91.0639V34.2Z" fill="black"/>
<path d="M102.447 34.2H91.0638V45.6H102.447V34.2Z" fill="white"/>
<path d="M113.83 34.2H102.447V45.6H113.83V34.2Z" fill="white"/>
<path d="M125.213 34.2H113.83V45.6H125.213V34.2Z" fill="black"/>
<path d="M136.596 34.2H125.213V45.6H136.596V34.2Z" fill="black"/>
<path d="M147.979 34.2H136.596V45.6H147.979V34.2Z" fill="black"/>
<path d="M159.362 34.2H147.979V45.6H159.362V34.2Z" fill="black"/>
<path d="M170.745 34.2H159.362V45.6H170.745V34.2Z" fill="black"/>
<path d="M182.128 34.2H170.745V45.6H182.128V34.2Z" fill="black"/>
<path d="M193.511 34.2H182.128V45.6H193.511V34.2Z" fill="black"/>
<path d="M204.894 34.2H193.511V45.6H204.894V34.2Z" fill="black"/>
<path d="M216.277 34.2H204.894V45.6H216.277V34.2Z" fill="black"/>
<path d="M227.66 34.2H216.277V45.6H227.66V34.2Z" fill="black"/>
<path d="M239.043 34.2H227.66V45.6H239.043V34.2Z" fill="black"/>
<path d="M250.426 34.2H239.043V45.6H250.426V34.2Z" fill="black"/>
<path d="M261.809 34.2H250.426V45.6H261.809V34.2Z" fill="black"/>
<path d="M273.192 34.2H261.809V45.6H273.192V34.2Z" fill="black"/>
<path d="M284.574 34.2H273.191V45.6H284.574V34.2Z" fill="black"/>
<path d="M295.957 34.2H284.574V45.6H295.957V34.2Z" fill="black"/>
<path d="M307.34 34.2H295.957V45.6H307.34V34.2Z" fill="black"/>
<path d="M318.723 34.2H307.34V45.6H318.723V34.2Z" fill="white"/>
<path d="M330.106 34.2H318.723V45.6H330.106V34.2Z" fill="white"/>
<path d="M341.489 34.2H330.106V45.6H341.489V34.2Z" fill="black"/>
<path d="M352.872 34.2H341.489V45.6H352.872V34.2Z" fill="black"/>
<path d="M364.255 34.2H352.872V45.6H364.255V34.2Z" fill="white"/>
<path d="M375.638 34.2H364.255V45.6H375.638V34.2Z" fill="white"/>
<path d="M387.021 34.2H375.638V45.6H387.021V34.2Z" fill="black"/>
<path d="M398.404 34.2H387.021V45.6H398.404V34.2Z" fill="black"/>
<path d="M409.787 34.2H398.404V45.6H409.787V34.2Z" fill="black"/>
<path d="M421.17 34.2H409.787V45.6H421.17V34.2Z" fill="black"/>
<path d="M432.553 34.2H421.17V45.6H432.553V34.2Z" fill="black"/>
<path d="M443.936 34.2H432.553V45.6H443.936V34.2Z" fill="black"/>
<path d="M455.319 34.2H443.936V45.6H455.319V34.2Z" fill="black"/>
<path d="M466.702 34.2H455.319V45.6H466.702V34.2Z" fill="black"/>
<path d="M478.085 34.2H466.702V45.6H478.085V34.2Z" fill="black"/>
<path d="M489.468 34.2H478.085V45.6H489.468V34.2Z" fill="black"/>
<path d="M500.851 34.2H489.468V45.6H500.851V34.2Z" fill="black"/>
<path d="M512.234 34.2H500.851V45.6H512.234V34.2Z" fill="black"/>
<path d="M523.617 34.2H512.234V45.6H523.617V34.2Z" fill="black"/>
<path d="M535 34.2H523.617V45.6H535V34.2Z" fill="black"/>
<path d="M34.149 45.6001H22.766V57.0001H34.149V45.6001Z" fill="black"/>
<path d="M45.5319 45.6001H34.1489V57.0001H45.5319V45.6001Z" fill="black"/>
<path d="M56.9148 45.6001H45.5319V57.0001H56.9148V45.6001Z" fill="black"/>
<path d="M68.2979 45.6001H56.9149V57.0001H68.2979V45.6001Z" fill="black"/>
<path d="M79.6808 45.6001H68.2979V57.0001H79.6808V45.6001Z" fill="white"/>
<path d="M91.0639 45.6001H79.6809V57.0001H91.0639V45.6001Z" fill="white"/>
<path d="M102.447 45.6001H91.0638V57.0001H102.447V45.6001Z" fill="black"/>
<path d="M113.83 45.6001H102.447V57.0001H113.83V45.6001Z" fill="black"/>
<path d="M125.213 45.6001H113.83V57.0001H125.213V45.6001Z" fill="white"/>
<path d="M136.596 45.6001H125.213V57.0001H136.596V45.6001Z" fill="white"/>
<path d="M147.979 45.6001H136.596V57.0001H147.979V45.6001Z" fill="black"/>
<path d="M159.362 45.6001H147.979V57.0001H159.362V45.6001Z" fill="black"/>
<path d="M170.745 45.6001H159.362V57.0001H170.745V45.6001Z" fill="black"/>
<path d="M182.128 45.6001H170.745V57.0001H182.128V45.6001Z" fill="black"/>
<path d="M193.511 45.6001H182.128V57.0001H193.511V45.6001Z" fill="black"/>
<path d="M204.894 45.6001H193.511V57.0001H204.894V45.6001Z" fill="black"/>
<path d="M216.277 45.6001H204.894V57.0001H216.277V45.6001Z" fill="black"/>
<path d="M227.66 45.6001H216.277V57.0001H227.66V45.6001Z" fill="black"/>
<path d="M239.043 45.6001H227.66V57.0001H239.043V45.6001Z" fill="black"/>
<path d="M250.426 45.6001H239.043V57.0001H250.426V45.6001Z" fill="black"/>
<path d="M295.957 45.6001H284.574V57.0001H295.957V45.6001Z" fill="black"/>
<path d="M307.34 45.6001H295.957V57.0001H307.34V45.6001Z" fill="black"/>
<path d="M318.723 45.6001H307.34V57.0001H318.723V45.6001Z" fill="black"/>
<path d="M330.106 45.6001H318.723V57.0001H330.106V45.6001Z" fill="black"/>
<path d="M341.489 45.6001H330.106V57.0001H341.489V45.6001Z" fill="white"/>
<path d="M352.872 45.6001H341.489V57.0001H352.872V45.6001Z" fill="white"/>
<path d="M364.255 45.6001H352.872V57.0001H364.255V45.6001Z" fill="black"/>
<path d="M375.638 45.6001H364.255V57.0001H375.638V45.6001Z" fill="black"/>
<path d="M387.021 45.6001H375.638V57.0001H387.021V45.6001Z" fill="white"/>
<path d="M398.404 45.6001H387.021V57.0001H398.404V45.6001Z" fill="white"/>
<path d="M409.787 45.6001H398.404V57.0001H409.787V45.6001Z" fill="black"/>
<path d="M421.17 45.6001H409.787V57.0001H421.17V45.6001Z" fill="black"/>
<path d="M432.553 45.6001H421.17V57.0001H432.553V45.6001Z" fill="black"/>
<path d="M443.936 45.6001H432.553V57.0001H443.936V45.6001Z" fill="black"/>
<path d="M455.319 45.6001H443.936V57.0001H455.319V45.6001Z" fill="black"/>
<path d="M466.702 45.6001H455.319V57.0001H466.702V45.6001Z" fill="black"/>
<path d="M478.085 45.6001H466.702V57.0001H478.085V45.6001Z" fill="black"/>
<path d="M489.468 45.6001H478.085V57.0001H489.468V45.6001Z" fill="black"/>
<path d="M500.851 45.6001H489.468V57.0001H500.851V45.6001Z" fill="black"/>
<path d="M512.234 45.6001H500.851V57.0001H512.234V45.6001Z" fill="black"/>
<path d="M34.149 57H22.766V68.4H34.149V57Z" fill="black"/>
<path d="M45.5319 57H34.1489V68.4H45.5319V57Z" fill="black"/>
<path d="M56.9148 57H45.5319V68.4H56.9148V57Z" fill="black"/>
<path d="M68.2979 57H56.9149V68.4H68.2979V57Z" fill="black"/>
<path d="M79.6808 57H68.2979V68.4H79.6808V57Z" fill="white"/>
<path d="M91.0639 57H79.6809V68.4H91.0639V57Z" fill="white"/>
<path d="M102.447 57H91.0638V68.4H102.447V57Z" fill="black"/>
<path d="M113.83 57H102.447V68.4H113.83V57Z" fill="black"/>
<path d="M125.213 57H113.83V68.4H125.213V57Z" fill="white"/>
<path d="M136.596 57H125.213V68.4H136.596V57Z" fill="white"/>
<path d="M147.979 57H136.596V68.4H147.979V57Z" fill="black"/>
<path d="M159.362 57H147.979V68.4H159.362V57Z" fill="black"/>
<path d="M170.745 57H159.362V68.4H170.745V57Z" fill="black"/>
<path d="M182.128 57H170.745V68.4H182.128V57Z" fill="black"/>
<path d="M193.511 57H182.128V68.4H193.511V57Z" fill="black"/>
<path d="M204.894 57H193.511V68.4H204.894V57Z" fill="black"/>
<path d="M216.277 57H204.894V68.4H216.277V57Z" fill="black"/>
<path d="M227.66 57H216.277V68.4H227.66V57Z" fill="black"/>
<path d="M239.043 57H227.66V68.4H239.043V57Z" fill="black"/>
<path d="M250.426 57H239.043V68.4H250.426V57Z" fill="black"/>
<path d="M295.957 57H284.574V68.4H295.957V57Z" fill="black"/>
<path d="M307.34 57H295.957V68.4H307.34V57Z" fill="black"/>
<path d="M318.723 57H307.34V68.4H318.723V57Z" fill="black"/>
<path d="M330.106 57H318.723V68.4H330.106V57Z" fill="black"/>
<path d="M341.489 57H330.106V68.4H341.489V57Z" fill="white"/>
<path d="M352.872 57H341.489V68.4H352.872V57Z" fill="white"/>
<path d="M364.255 57H352.872V68.4H364.255V57Z" fill="black"/>
<path d="M375.638 57H364.255V68.4H375.638V57Z" fill="black"/>
<path d="M387.021 57H375.638V68.4H387.021V57Z" fill="white"/>
<path d="M398.404 57H387.021V68.4H398.404V57Z" fill="white"/>
<path d="M409.787 57H398.404V68.4H409.787V57Z" fill="black"/>
<path d="M421.17 57H409.787V68.4H421.17V57Z" fill="black"/>
<path d="M432.553 57H421.17V68.4H432.553V57Z" fill="black"/>
<path d="M443.936 57H432.553V68.4H443.936V57Z" fill="black"/>
<path d="M455.319 57H443.936V68.4H455.319V57Z" fill="black"/>
<path d="M466.702 57H455.319V68.4H466.702V57Z" fill="black"/>
<path d="M478.085 57H466.702V68.4H478.085V57Z" fill="black"/>
<path d="M489.468 57H478.085V68.4H489.468V57Z" fill="black"/>
<path d="M500.851 57H489.468V68.4H500.851V57Z" fill="black"/>
<path d="M512.234 57H500.851V68.4H512.234V57Z" fill="black"/>
<path d="M56.9148 68.3999H45.5319V79.7999H56.9148V68.3999Z" fill="black"/>
<path d="M68.2979 68.3999H56.9149V79.7999H68.2979V68.3999Z" fill="black"/>
<path d="M79.6808 68.3999H68.2979V79.7999H79.6808V68.3999Z" fill="black"/>
<path d="M91.0639 68.3999H79.6809V79.7999H91.0639V68.3999Z" fill="black"/>
<path d="M102.447 68.3999H91.0638V79.7999H102.447V68.3999Z" fill="white"/>
<path d="M113.83 68.3999H102.447V79.7999H113.83V68.3999Z" fill="white"/>
<path d="M125.213 68.3999H113.83V79.7999H125.213V68.3999Z" fill="black"/>
<path d="M136.596 68.3999H125.213V79.7999H136.596V68.3999Z" fill="black"/>
<path d="M147.979 68.3999H136.596V79.7999H147.979V68.3999Z" fill="white"/>
<path d="M159.362 68.3999H147.979V79.7999H159.362V68.3999Z" fill="white"/>
<path d="M170.745 68.3999H159.362V79.7999H170.745V68.3999Z" fill="black"/>
<path d="M182.128 68.3999H170.745V79.7999H182.128V68.3999Z" fill="black"/>
<path d="M193.511 68.3999H182.128V79.7999H193.511V68.3999Z" fill="black"/>
<path d="M204.894 68.3999H193.511V79.7999H204.894V68.3999Z" fill="black"/>
<path d="M216.277 68.3999H204.894V79.7999H216.277V68.3999Z" fill="black"/>
<path d="M227.66 68.3999H216.277V79.7999H227.66V68.3999Z" fill="black"/>
<path d="M318.723 68.3999H307.34V79.7999H318.723V68.3999Z" fill="black"/>
<path d="M330.106 68.3999H318.723V79.7999H330.106V68.3999Z" fill="black"/>
<path d="M341.489 68.3999H330.106V79.7999H341.489V68.3999Z" fill="black"/>
<path d="M352.872 68.3999H341.489V79.7999H352.872V68.3999Z" fill="black"/>
<path d="M364.255 68.3999H352.872V79.7999H364.255V68.3999Z" fill="white"/>
<path d="M375.638 68.3999H364.255V79.7999H375.638V68.3999Z" fill="white"/>
<path d="M387.021 68.3999H375.638V79.7999H387.021V68.3999Z" fill="black"/>
<path d="M398.404 68.3999H387.021V79.7999H398.404V68.3999Z" fill="black"/>
<path d="M409.787 68.3999H398.404V79.7999H409.787V68.3999Z" fill="white"/>
<path d="M421.17 68.3999H409.787V79.7999H421.17V68.3999Z" fill="white"/>
<path d="M432.553 68.3999H421.17V79.7999H432.553V68.3999Z" fill="black"/>
<path d="M443.936 68.3999H432.553V79.7999H443.936V68.3999Z" fill="black"/>
<path d="M455.319 68.3999H443.936V79.7999H455.319V68.3999Z" fill="black"/>
<path d="M466.702 68.3999H455.319V79.7999H466.702V68.3999Z" fill="black"/>
<path d="M478.085 68.3999H466.702V79.7999H478.085V68.3999Z" fill="black"/>
<path d="M489.468 68.3999H478.085V79.7999H489.468V68.3999Z" fill="black"/>
<path d="M56.9148 79.8H45.5319V91.2H56.9148V79.8Z" fill="black"/>
<path d="M68.2979 79.8H56.9149V91.2H68.2979V79.8Z" fill="black"/>
<path d="M79.6808 79.8H68.2979V91.2H79.6808V79.8Z" fill="black"/>
<path d="M91.0639 79.8H79.6809V91.2H91.0639V79.8Z" fill="black"/>
<path d="M102.447 79.8H91.0638V91.2H102.447V79.8Z" fill="white"/>
<path d="M113.83 79.8H102.447V91.2H113.83V79.8Z" fill="white"/>
<path d="M125.213 79.8H113.83V91.2H125.213V79.8Z" fill="black"/>
<path d="M136.596 79.8H125.213V91.2H136.596V79.8Z" fill="black"/>
<path d="M147.979 79.8H136.596V91.2H147.979V79.8Z" fill="white"/>
<path d="M159.362 79.8H147.979V91.2H159.362V79.8Z" fill="white"/>
<path d="M170.745 79.8H159.362V91.2H170.745V79.8Z" fill="black"/>
<path d="M182.128 79.8H170.745V91.2H182.128V79.8Z" fill="black"/>
<path d="M193.511 79.8H182.128V91.2H193.511V79.8Z" fill="black"/>
<path d="M204.894 79.8H193.511V91.2H204.894V79.8Z" fill="black"/>
<path d="M216.277 79.8H204.894V91.2H216.277V79.8Z" fill="black"/>
<path d="M227.66 79.8H216.277V91.2H227.66V79.8Z" fill="black"/>
<path d="M318.723 79.8H307.34V91.2H318.723V79.8Z" fill="black"/>
<path d="M330.106 79.8H318.723V91.2H330.106V79.8Z" fill="black"/>
<path d="M341.489 79.8H330.106V91.2H341.489V79.8Z" fill="black"/>
<path d="M352.872 79.8H341.489V91.2H352.872V79.8Z" fill="black"/>
<path d="M364.255 79.8H352.872V91.2H364.255V79.8Z" fill="white"/>
<path d="M375.638 79.8H364.255V91.2H375.638V79.8Z" fill="white"/>
<path d="M387.021 79.8H375.638V91.2H387.021V79.8Z" fill="black"/>
<path d="M398.404 79.8H387.021V91.2H398.404V79.8Z" fill="black"/>
<path d="M409.787 79.8H398.404V91.2H409.787V79.8Z" fill="white"/>
<path d="M421.17 79.8H409.787V91.2H421.17V79.8Z" fill="white"/>
<path d="M432.553 79.8H421.17V91.2H432.553V79.8Z" fill="black"/>
<path d="M443.936 79.8H432.553V91.2H443.936V79.8Z" fill="black"/>
<path d="M455.319 79.8H443.936V91.2H455.319V79.8Z" fill="black"/>
<path d="M466.702 79.8H455.319V91.2H466.702V79.8Z" fill="black"/>
<path d="M478.085 79.8H466.702V91.2H478.085V79.8Z" fill="black"/>
<path d="M489.468 79.8H478.085V91.2H489.468V79.8Z" fill="black"/>
<path d="M79.6808 91.2H68.2979V102.6H79.6808V91.2Z" fill="black"/>
<path d="M91.0639 91.2H79.6809V102.6H91.0639V91.2Z" fill="black"/>
<path d="M102.447 91.2H91.0638V102.6H102.447V91.2Z" fill="black"/>
<path d="M113.83 91.2H102.447V102.6H113.83V91.2Z" fill="black"/>
<path d="M125.213 91.2H113.83V102.6H125.213V91.2Z" fill="black"/>
<path d="M136.596 91.2H125.213V102.6H136.596V91.2Z" fill="black"/>
<path d="M147.979 91.2H136.596V102.6H147.979V91.2Z" fill="black"/>
<path d="M159.362 91.2H147.979V102.6H159.362V91.2Z" fill="black"/>
<path d="M170.745 91.2H159.362V102.6H170.745V91.2Z" fill="black"/>
<path d="M182.128 91.2H170.745V102.6H182.128V91.2Z" fill="black"/>
<path d="M193.511 91.2H182.128V102.6H193.511V91.2Z" fill="black"/>
<path d="M204.894 91.2H193.511V102.6H204.894V91.2Z" fill="black"/>
<path d="M341.489 91.2H330.106V102.6H341.489V91.2Z" fill="black"/>
<path d="M352.872 91.2H341.489V102.6H352.872V91.2Z" fill="black"/>
<path d="M364.255 91.2H352.872V102.6H364.255V91.2Z" fill="black"/>
<path d="M375.638 91.2H364.255V102.6H375.638V91.2Z" fill="black"/>
<path d="M387.021 91.2H375.638V102.6H387.021V91.2Z" fill="black"/>
<path d="M398.404 91.2H387.021V102.6H398.404V91.2Z" fill="black"/>
<path d="M409.787 91.2H398.404V102.6H409.787V91.2Z" fill="black"/>
<path d="M421.17 91.2H409.787V102.6H421.17V91.2Z" fill="black"/>
<path d="M432.553 91.2H421.17V102.6H432.553V91.2Z" fill="black"/>
<path d="M443.936 91.2H432.553V102.6H443.936V91.2Z" fill="black"/>
<path d="M455.319 91.2H443.936V102.6H455.319V91.2Z" fill="black"/>
<path d="M466.702 91.2H455.319V102.6H466.702V91.2Z" fill="black"/>
<path d="M79.6808 102.6H68.2979V114H79.6808V102.6Z" fill="black"/>
<path d="M91.0639 102.6H79.6809V114H91.0639V102.6Z" fill="black"/>
<path d="M102.447 102.6H91.0638V114H102.447V102.6Z" fill="black"/>
<path d="M113.83 102.6H102.447V114H113.83V102.6Z" fill="black"/>
<path d="M125.213 102.6H113.83V114H125.213V102.6Z" fill="black"/>
<path d="M136.596 102.6H125.213V114H136.596V102.6Z" fill="black"/>
<path d="M147.979 102.6H136.596V114H147.979V102.6Z" fill="black"/>
<path d="M159.362 102.6H147.979V114H159.362V102.6Z" fill="black"/>
<path d="M170.745 102.6H159.362V114H170.745V102.6Z" fill="black"/>
<path d="M182.128 102.6H170.745V114H182.128V102.6Z" fill="black"/>
<path d="M193.511 102.6H182.128V114H193.511V102.6Z" fill="black"/>
<path d="M204.894 102.6H193.511V114H204.894V102.6Z" fill="black"/>
<path d="M341.489 102.6H330.106V114H341.489V102.6Z" fill="black"/>
<path d="M352.872 102.6H341.489V114H352.872V102.6Z" fill="black"/>
<path d="M364.255 102.6H352.872V114H364.255V102.6Z" fill="black"/>
<path d="M375.638 102.6H364.255V114H375.638V102.6Z" fill="black"/>
<path d="M387.021 102.6H375.638V114H387.021V102.6Z" fill="black"/>
<path d="M398.404 102.6H387.021V114H398.404V102.6Z" fill="black"/>
<path d="M409.787 102.6H398.404V114H409.787V102.6Z" fill="black"/>
<path d="M421.17 102.6H409.787V114H421.17V102.6Z" fill="black"/>
<path d="M432.553 102.6H421.17V114H432.553V102.6Z" fill="black"/>
<path d="M443.936 102.6H432.553V114H443.936V102.6Z" fill="black"/>
<path d="M455.319 102.6H443.936V114H455.319V102.6Z" fill="black"/>
<path d="M466.702 102.6H455.319V114H466.702V102.6Z" fill="black"/>
</g>
<defs>
<clipPath id="clip0_237_28912">
<rect width="535" height="114" fill="white"/>
</clipPath>
</defs>
</svg>
