<svg width="662" height="168" viewBox="0 0 662 168" fill="none" xmlns="http://www.w3.org/2000/svg">
<g clip-path="url(#clip0_238_16)">
<rect width="662" height="168" rx="27" fill="white"/>
<path fill-rule="evenodd" clip-rule="evenodd" d="M78.5 46C96.1731 46 109.547 60.3327 110 78C110.5 97.5 78.5 122.5 78.5 122.5C78.5 122.5 46.9999 98 47 78C47 60.3269 60.8269 46 78.5 46ZM79 89C85.0751 89 90 84.0751 90 78C90 71.9249 85.0751 67 79 67C72.9249 67 68 71.9249 68 78C68 84.0751 72.9249 89 79 89Z" fill="#E25550"/>
<path d="M178.078 135.213L174.533 133.279H174.641V121.141L178.078 103.953V95.7891L178.723 95.252V83.0059H174.641C167.837 93.8913 161.392 104.633 155.305 115.232L152.297 115.662L149.074 111.365C160.819 92.3158 172.492 73.0514 184.094 53.5723L189.465 52.8203L191.613 54.6465V57.7617C187.603 62.2734 184.595 67.7161 182.59 74.0898L185.49 77.6348V92.2441L184.846 92.8887V105.027L181.301 123.182V132.957L179.475 135.213H178.078ZM200.207 130.271L196.447 126.512V125.652C201.962 109.109 206.903 91.4206 211.271 72.5859H201.389C199.527 71.2253 198.452 69.6497 198.166 67.8594L200.959 66.6777L203.537 67.6445L204.396 66.5703H212.238C215.031 61.4857 216.428 57.0814 216.428 53.3574L220.402 52.8203L223.195 54.7539L223.84 59.1582L222.658 63.3477L229.104 64.5293L247.688 61.8438L249.836 64.207V66.0332C247.043 68.11 243.57 69.1484 239.416 69.1484H230.93L220.832 71.2969C218.182 76.3099 216.678 81.8958 216.32 88.0547L223.518 90.0957L234.152 87.8398H241.135L243.391 86.5508H251.232L254.885 88.5918L255.314 90.5254L251.984 92.459H241.672L238.234 100.623V110.613L237.697 116.736L239.846 119.422H250.588L254.348 121.463L254.562 122.215L252.414 124.256H231.037L230.285 125.008H223.303L218.039 122.537L215.998 119.637C216.571 118.634 217.86 118.348 219.865 118.777L228.244 119.529L231.574 110.291V101.912L232.434 97.1855L229.855 94.5H215.246C210.878 107.176 206.545 118.956 202.248 129.842L200.207 130.271ZM290.441 132.527L286.789 128.768V126.297C300.754 109.539 313.716 91.4564 325.676 72.0488V67.8594L305.588 64.207C297.424 73.2305 290.012 82.2897 283.352 91.3848H282.17L278.195 90.418L276.047 87.0879C286.216 76.4173 294.667 64.8874 301.398 52.498L304.943 51.8535L309.025 54.8613L310.529 57.8691C320.269 59.7311 329.006 63.097 336.74 67.9668L337.277 69.9004L333.41 73.6602C330.546 79.6758 327.395 85.8704 323.957 92.2441L332.229 103.416C338.244 108.071 344.331 111.938 350.49 115.018L351.457 117.703C350.383 118.921 348.771 119.207 346.623 118.562C338.244 115.197 330.546 109.611 323.527 101.805L322.668 99.0117H317.512C310.35 109.897 303.439 120.138 296.779 129.734L290.441 132.527ZM415.373 134.139C412.795 133.064 410.969 131.023 409.895 128.016L408.605 122.537V114.266L409.25 113.514V104.705L411.291 95.0371C408.14 91.8145 404.523 90.0241 400.441 89.666C396.503 91.3132 392.349 92.3516 387.98 92.7812C385.975 91.9219 384.865 90.5612 384.65 88.6992C390.38 87.3385 396.61 85.7272 403.342 83.8652L404.631 82.4688V75.916L405.275 75.3789V68.2891L408.068 48.7383L401.301 42.8301V42.1855L401.945 41.6484H410.646L427.404 37.6738H435.031L435.783 37.0293H441.799L444.162 38.9629V40.7891C440.581 42.651 436.499 43.7611 431.916 44.1191H421.818L415.91 47.2344L414.084 54.9688L422.678 55.9355L423.322 55.1836H434.172L439.113 57.4395L439.543 59.2656L438.039 60.4473H431.271L425.363 59.6953L413.332 61.8438L412.258 67.2148L418.811 69.6855L425.471 68.2891H433.957L438.898 67.6445L442.98 69.9004L443.41 71.6191L442.336 72.6934H424.182L423.43 73.3379H416.232L411.828 75.0566L410.969 81.1797C413.475 83.1133 416.197 83.7936 419.133 83.2207L432.668 81.3945H441.799L451.467 79.2461H459.523L462.424 81.3945L462.854 83.2207L460.92 84.4023H453.293L451.682 84.832L451.145 84.4023H444.055L440.08 85.7988H433.098L420.422 88.5918C418.417 93.3184 417.271 98.8685 416.984 105.242H421.174C428.765 100.444 436.535 96.5768 444.484 93.6406H450.285L452.004 94.8223V96.3262C444.27 98.8327 436.499 102.378 428.693 106.961L427.619 110.613C440.152 115.698 452.04 120.031 463.283 123.611L463.498 124.9L459.846 126.297C445.021 123.432 430.412 118.169 416.018 110.506L415.051 115.018V122.645L420.744 127.693V129.09L416.984 134.139H415.373ZM512.805 132.527C510.441 131.095 509.403 129.233 509.689 126.941L510.549 125.975H516.887L519.035 126.727L519.787 125.975H526.232C528.238 123.182 529.24 119.852 529.24 115.984L527.307 114.373H519.25L516.027 110.398V108.787L516.564 108.572H527.307L529.885 105.994V98.2598L525.91 96.6484L513.02 99.7637L510.119 94.9297C514.846 93.0677 520.575 91.6712 527.307 90.7402V88.4844C525.66 86.3359 524.836 83.9368 524.836 81.2871L521.506 80.5352L494.65 84.6172L490.783 79.7832C492.43 79.2819 494.722 78.5299 497.658 77.5273L498.41 71.5117L497.766 70.8672V58.9434L498.41 58.2988V46.0527C494.686 45.4798 491.714 44.0833 489.494 41.8633L489.064 39.7148L493.791 38.748H516.457C521.542 37.1009 526.841 36.2773 532.355 36.2773L535.578 38.3184V39.3926L534.074 41.541L530.1 42.9375L529.348 49.9199L530.529 54.8613L529.885 57.0098L530.529 57.6543V67.6445L532.355 76.9902V87.5176L537.512 89.666L548.254 88.377L552.551 91.0625V92.7812L549.436 94.8223H538.264L536.223 103.201L537.619 107.176L542.775 107.928L547.717 107.283L552.658 109.539L552.98 110.506L550.617 113.084H537.834L535.578 116.092V122.967L537.834 125.975H552.121L562.004 124.793L566.408 127.049L566.945 129.09L563.938 131.131H554.377L553.625 131.775H522.902L522.258 132.527H512.805ZM548.146 79.8906L542.238 75.7012L541.701 73.3379C542.99 71.2611 543.42 68.6113 542.99 65.3887C542.561 59.8743 541.379 55.0762 539.445 50.9941C543.742 49.5618 548.576 48.8457 553.947 48.8457C560.106 49.2754 565.549 51.4596 570.275 55.3984L572.639 64.4219C573.14 69.1484 571.815 73.0514 568.664 76.1309C565.012 77.7064 561.359 78.9596 557.707 79.8906H548.146ZM524.191 75.0566V69.6855L522.365 67.8594H514.416L506.145 70.0078L505.285 74.9492L510.979 77.2051L511.623 76.5605H518.391L524.191 75.0566ZM561.467 71.9414C564.188 69.2201 565.37 65.7826 565.012 61.6289L562.326 56.6875C559.462 54.8971 556.132 54.2168 552.336 54.6465L549.328 58.4062L550.08 60.5547L549.436 63.0254L552.014 73.123L554.699 74.0898L561.467 71.9414ZM522.473 61.9512L523.869 60.6621L521.184 57.1172H517.961L517.316 57.7617H509.904L506.145 59.373L505.178 63.2402L511.945 63.8848L522.473 61.9512ZM522.258 50.8867L522.902 46.5898L520.539 43.2598H515.061L511.945 43.9043L509.367 43.2598L506.145 44.8711L505.393 50.7793L507.219 52.6055H514.094L514.846 51.9609H521.076L522.258 50.8867Z" fill="#E25550"/>
</g>
<defs>
<clipPath id="clip0_238_16">
<rect width="662" height="168" fill="white"/>
</clipPath>
</defs>
</svg>
