<svg width="314" height="391" viewBox="0 0 314 391" fill="none" xmlns="http://www.w3.org/2000/svg">
<path d="M246.377 81.8727L241.197 103.333C238.637 111.786 235.501 120.066 231.787 128.173C231.729 128.297 231.698 128.432 231.695 128.57C231.692 128.707 231.718 128.844 231.77 128.972C231.823 129.099 231.901 129.215 232 129.311C232.1 129.408 232.218 129.483 232.347 129.533C237.414 131.379 244.217 134.109 252.757 137.723C265.184 142.976 276.481 149.026 286.647 155.873L296.547 163.873L305.087 174.163C305.254 175.436 305.794 176.489 306.707 177.323C316.127 196.263 315.654 214.566 305.287 232.233C303.227 235.733 300.387 239.073 297.687 242.363C297.556 242.521 297.477 242.716 297.461 242.922C297.445 243.127 297.493 243.334 297.597 243.513C312.297 268.013 305.307 297.983 283.197 315.243C283.058 315.352 282.95 315.497 282.885 315.663C282.82 315.828 282.8 316.007 282.827 316.183C287.117 343.893 272.857 369.283 246.077 378.633C234.264 382.759 221.614 384.809 208.127 384.783C206.107 384.776 204.117 385.056 202.157 385.623C179.947 392.063 156.827 391.273 134.297 387.003C112.784 382.929 91.5474 377.723 70.5874 371.383C57.7974 367.513 43.4572 362.283 32.9772 355.353C11.4372 341.123 -0.952675 315.813 0.057325 289.813C0.210658 285.939 1.18391 279.353 2.97725 270.053C8.12391 243.486 13.324 216.926 18.5773 190.373C23.1173 167.463 27.1374 151.213 44.9274 134.493C47.4808 132.093 50.0474 129.719 52.6274 127.373L77.5773 112.963C96.8107 104.729 108.481 99.9493 112.587 98.6227C124.247 94.8493 131.921 87.0926 135.607 75.3526C139.481 65.826 141.364 55.8393 141.257 45.3927C146.227 20.8626 165.477 2.14265 190.527 0.172651C223.277 -2.40735 251.467 24.2726 249.557 57.1226C249.184 63.596 248.124 71.846 246.377 81.8727ZM231.387 44.2426C222.047 10.1426 174.277 7.38265 160.537 39.7826C158.537 44.5027 157.367 51.8726 156.887 56.6826C154.487 80.9926 145.977 103.663 121.387 113.183C89.2574 125.633 45.7373 139.743 38.0473 178.613C31.4673 211.879 24.9274 245.159 18.4274 278.453C14.4474 298.813 18.7139 316.513 31.2272 331.553C41.1372 343.463 56.4674 349.193 71.3974 353.953C91.5041 360.373 111.927 365.559 132.667 369.513C136.601 370.266 136.767 369.766 133.167 368.013C130.701 366.806 128.274 365.526 125.887 364.173C91.0874 344.373 88.8574 296.913 120.397 272.893C120.535 272.788 120.643 272.651 120.711 272.493C120.78 272.335 120.806 272.163 120.787 271.993L119.527 259.093C119.511 258.934 119.456 258.782 119.369 258.648C119.281 258.515 119.163 258.405 119.024 258.326C118.885 258.248 118.729 258.204 118.57 258.198C118.41 258.192 118.252 258.225 118.107 258.293C113.814 260.299 109.421 262.033 104.927 263.493C96.7974 266.143 89.1573 258.833 94.0073 251.283C96.5173 247.383 104.727 245.793 109.017 243.753C133.507 232.063 146.467 209.333 150.167 183.103C150.192 182.929 150.261 182.764 150.368 182.626C150.475 182.487 150.616 182.379 150.777 182.313C201.507 161.533 226.267 116.703 231.957 64.0827C232.871 55.596 232.681 48.9826 231.387 44.2426ZM220.237 150.063C223.484 151.003 226.697 151.753 229.877 152.313C231.844 152.666 234.164 152.849 236.837 152.863C242.907 152.903 248.777 152.783 249.537 159.913C251.447 177.833 215.597 166.493 208.137 163.993C207.958 163.933 207.765 163.924 207.581 163.969C207.398 164.013 207.23 164.108 207.097 164.243C195.091 176.563 181.354 186.489 165.887 194.023C165.758 194.086 165.644 194.177 165.553 194.289C165.461 194.401 165.395 194.532 165.357 194.673C163.077 203.473 160.087 212.026 156.387 220.333C156.296 220.536 156.276 220.764 156.331 220.98C156.385 221.196 156.511 221.387 156.687 221.523C159.521 223.716 162.524 225.616 165.697 227.223C192.027 240.583 222.447 247.263 251.507 244.013C263.587 242.663 276.757 238.793 285.367 230.253C301.117 214.623 299.997 188.953 282.867 174.593C266.587 160.953 244.077 151.453 223.647 144.383C223.445 144.313 223.226 144.309 223.023 144.372C222.82 144.435 222.642 144.561 222.517 144.733L219.707 148.513C219.611 148.641 219.548 148.791 219.523 148.949C219.498 149.108 219.512 149.27 219.564 149.423C219.616 149.575 219.705 149.713 219.822 149.825C219.939 149.936 220.082 150.018 220.237 150.063ZM141.277 279.473C144.087 285.103 150.657 291.523 156.147 294.303C187.397 310.103 231.647 320.043 265.027 306.063C284.487 297.913 292.877 277.253 286.007 257.423C285.541 256.089 284.731 254.719 283.577 253.313C283.441 253.148 283.256 253.032 283.049 252.982C282.842 252.931 282.624 252.949 282.427 253.033C243.217 269.293 196.007 260.923 158.927 242.913C157.087 242.019 155.111 240.886 152.997 239.513C151.204 238.346 149.394 237.183 147.567 236.023C147.356 235.893 147.106 235.844 146.863 235.885C146.621 235.925 146.402 236.052 146.247 236.243C135.321 249.789 133.664 264.199 141.277 279.473ZM115.077 315.363C114.517 332.123 123.697 344.663 138.527 351.653C163.527 363.439 189.377 368.836 216.077 367.843C227.647 367.413 243.157 363.263 252.187 356.383C261.854 349.016 266.757 338.516 266.897 324.883C266.899 324.724 266.863 324.567 266.791 324.425C266.72 324.283 266.616 324.161 266.488 324.067C266.36 323.973 266.212 323.911 266.055 323.886C265.899 323.861 265.738 323.873 265.587 323.923C242.527 331.363 216.977 330.673 193.517 325.343C177.627 321.743 160.627 316.093 146.647 308.303C139.261 304.189 133.017 298.139 127.917 290.153C127.838 290.027 127.731 289.922 127.605 289.843C127.479 289.764 127.338 289.714 127.19 289.697C127.043 289.68 126.893 289.695 126.753 289.743C126.612 289.791 126.484 289.869 126.377 289.973C119.177 296.959 115.411 305.423 115.077 315.363Z" fill="white"/>
</svg>
