<svg width="432" height="436" viewBox="0 0 432 436" fill="none" xmlns="http://www.w3.org/2000/svg">
<path d="M135.501 192.051L80.6551 53.3227L162.864 175.211L227.563 6.32552L240.172 177.485C240.172 177.485 423.943 149.792 427.947 148.526L311.856 214.189C313.027 218.282 413.861 278.538 413.861 278.538C413.861 278.538 272.106 293.836 271.342 297.873C270.577 301.909 287.458 432.117 287.458 432.117L209.933 319.592L54.0622 389.043L126.633 293.617L11.897 305.35L91.9399 246.008L8.45359 136.19L135.501 192.051Z" fill="#D9D9D9"/>
<path d="M148.856 204.664L103.734 99.6699L169.431 191.153L215.171 60.3743L228.681 191.153C228.681 191.153 368.78 165.81 371.817 164.75L284.399 217.645C285.388 220.753 363.959 264.623 363.959 264.623C363.959 264.623 255.754 279.529 255.26 282.637C254.765 285.745 270.624 385.07 270.624 385.07L208.725 300.651L90.9307 357.343L144.353 282.637L56.758 294.205L116.715 246.962L50.312 164.75L148.856 204.664Z" fill="#E25550"/>
<path d="M162.259 217.54L127.47 145.321L176.272 207.452L204.39 114.425L217.799 205.666C217.799 205.666 315.228 183.684 317.325 182.85L257.649 222.552C258.436 224.701 314.826 253.076 314.826 253.076C314.826 253.076 239.437 266.783 239.184 268.976C238.931 271.169 253.039 340.297 253.039 340.297L207.112 283.003L126.26 326.281L161.452 272.318L100.407 283.065L141.006 248.151L91.9885 192.539L162.259 217.54Z" fill="#C43A34"/>
</svg>
