<svg width="787" height="359" viewBox="0 0 787 359" fill="none" xmlns="http://www.w3.org/2000/svg">
<mask id="path-1-outside-1_238_9777" maskUnits="userSpaceOnUse" x="8" y="0" width="775" height="357" fill="black">
<rect fill="white" x="8" width="775" height="357"/>
<path fill-rule="evenodd" clip-rule="evenodd" d="M488 332L754 178.5L488 25V88H22V269H488V332Z"/>
</mask>
<path fill-rule="evenodd" clip-rule="evenodd" d="M488 332L754 178.5L488 25V88H22V269H488V332Z" fill="white"/>
<path d="M754 178.5L760.997 190.626L782.01 178.5L760.997 166.374L754 178.5ZM488 332H474V356.243L494.997 344.126L488 332ZM488 25L494.997 12.8742L474 0.757223V25H488ZM488 88V102H502V88H488ZM22 88V74H8V88H22ZM22 269H8V283H22V269ZM488 269H502V255H488V269ZM747.003 166.374L481.003 319.874L494.997 344.126L760.997 190.626L747.003 166.374ZM481.003 37.1258L747.003 190.626L760.997 166.374L494.997 12.8742L481.003 37.1258ZM502 88V25H474V88H502ZM22 102H488V74H22V102ZM36 269V88H8V269H36ZM488 255H22V283H488V255ZM502 332V269H474V332H502Z" fill="#E25550" mask="url(#path-1-outside-1_238_9777)"/>
<path d="M135.446 207.438C137.743 207.438 139.896 207.174 141.906 206.648C143.916 206.074 145.782 205.356 147.505 204.495C149.228 203.633 150.783 202.652 152.17 201.552C153.606 200.451 154.85 199.351 155.903 198.25H167.89V235H80.3213V203.849L89.5088 202.054V157.696L80.3213 155.901V124.75H144.634V155.901L135.446 157.696V207.438Z" fill="#E25550"/>
<path d="M238.16 236.292C232.322 236.292 226.675 235.933 221.22 235.215C215.813 234.498 210.717 233.158 205.932 231.196C201.194 229.234 196.864 226.722 192.94 223.659C189.016 220.549 185.643 216.84 182.819 212.534C179.996 208.179 177.795 203.203 176.216 197.604C174.685 191.958 173.919 185.617 173.919 178.583C173.919 171.979 174.685 166.022 176.216 160.71C177.747 155.399 179.9 150.686 182.676 146.57C185.451 142.455 188.777 138.914 192.653 135.947C196.577 132.98 200.907 130.564 205.645 128.698C210.43 126.784 215.55 125.372 221.005 124.463C226.508 123.554 232.226 123.099 238.16 123.099C244.093 123.099 249.812 123.554 255.314 124.463C260.817 125.372 265.961 126.784 270.747 128.698C275.532 130.612 279.862 133.052 283.738 136.019C287.662 138.986 291.012 142.527 293.787 146.642C296.562 150.757 298.716 155.471 300.247 160.782C301.778 166.046 302.544 171.979 302.544 178.583C302.544 188.919 300.845 197.795 297.448 205.212C294.098 212.582 289.504 218.611 283.667 223.3C277.829 227.99 271.01 231.339 263.21 233.349C255.41 235.311 247.06 236.292 238.16 236.292ZM238.16 155.901C235.097 155.901 232.513 156.308 230.408 157.122C228.35 157.887 226.627 158.916 225.24 160.208C223.9 161.5 222.871 162.959 222.153 164.586C221.436 166.213 220.885 167.864 220.502 169.539C220.167 171.214 219.976 172.841 219.928 174.42C219.88 175.999 219.856 177.387 219.856 178.583C219.856 179.779 219.88 181.167 219.928 182.746C219.976 184.325 220.167 185.976 220.502 187.699C220.885 189.374 221.436 191.048 222.153 192.723C222.871 194.398 223.9 195.905 225.24 197.245C226.627 198.537 228.35 199.59 230.408 200.403C232.513 201.217 235.097 201.624 238.16 201.624C241.222 201.624 243.782 201.217 245.84 200.403C247.945 199.59 249.692 198.537 251.08 197.245C252.467 195.905 253.52 194.398 254.238 192.723C255.003 191.048 255.554 189.374 255.889 187.699C256.224 185.976 256.415 184.325 256.463 182.746C256.559 181.167 256.606 179.779 256.606 178.583C256.606 177.387 256.559 175.999 256.463 174.42C256.415 172.841 256.224 171.214 255.889 169.539C255.554 167.864 255.003 166.213 254.238 164.586C253.52 162.959 252.467 161.5 251.08 160.208C249.692 158.916 247.945 157.887 245.84 157.122C243.782 156.308 241.222 155.901 238.16 155.901Z" fill="#E25550"/>
<path d="M347.477 235.072L318.12 157.624L307.209 155.901V124.75H374.25V155.901L366.354 157.624L378.771 198.465L391.189 157.624L383.293 155.901V124.75H438.777V155.901L427.939 157.624L398.582 235.072H347.477Z" fill="#E25550"/>
<path d="M502.372 207.438C505.626 207.438 508.688 207.174 511.56 206.648C514.431 206.074 517.062 205.356 519.455 204.495C521.896 203.633 524.097 202.652 526.059 201.552C528.021 200.451 529.743 199.351 531.227 198.25H543.213V235H447.247V203.849L456.435 202.054V157.839L447.247 156.045V124.75H543.213V161.5H531.657C530.126 160.447 528.355 159.371 526.346 158.27C524.336 157.169 522.087 156.188 519.599 155.327C517.158 154.418 514.502 153.7 511.631 153.174C508.76 152.6 505.674 152.312 502.372 152.312V171.908L523.905 167.242V192.651L502.372 187.986V207.438Z" fill="#E25550"/>
</svg>
