<svg width="545" height="229" viewBox="0 0 545 229" fill="none" xmlns="http://www.w3.org/2000/svg">
<path d="M45.692 108.927C31.678 108.927 21.976 105.889 16.586 99.813C12.862 95.501 11 89.474 11 81.732C11 78.4 11.343 74.823 12.029 71.001L18.056 37.191C22.466 12.397 38.391 0 65.831 0C77.199 0 85.823 2.45 91.703 7.35C97.583 12.152 100.523 18.767 100.523 27.195C100.523 31.115 99.935 35.035 98.759 38.955C97.681 42.777 96.603 45.619 95.525 47.481L93.908 50.421H67.889C71.123 46.697 72.74 41.405 72.74 34.545C72.74 30.919 71.809 28.077 69.947 26.019C68.085 23.863 65.341 22.785 61.715 22.785C51.817 22.785 45.937 28.273 44.075 39.249L38.93 68.943C38.44 71.491 38.195 73.99 38.195 76.44C38.195 82.908 42.066 86.142 49.808 86.142C59.118 86.142 64.704 80.899 66.566 70.413H93.026L92.291 74.676C88.371 97.51 72.838 108.927 45.692 108.927Z" fill="#639BFF"/>
<path d="M203.932 1.029L185.41 106.869H158.803L165.565 68.649H136.9L130.285 106.869H103.678L122.347 1.029H148.807L140.869 45.717H169.534L177.472 1.029H203.932Z" fill="#639BFF"/>
<path d="M263.359 0C286.977 0 298.786 9.653 298.786 28.959C298.786 32.193 298.443 35.672 297.757 39.396L292.612 68.796C290.26 82.418 285.164 92.512 277.324 99.078C269.484 105.644 258.459 108.927 244.249 108.927C230.039 108.927 220.141 105.644 214.555 99.078C210.733 94.57 208.822 88.347 208.822 80.409C208.822 76.881 209.214 73.01 209.998 68.796L215.143 39.396C219.749 13.132 235.821 0 263.359 0ZM248.218 86.142C253.118 86.142 257.038 84.868 259.978 82.32C262.918 79.772 264.976 75.068 266.152 68.208L271.15 39.984C271.444 38.024 271.591 36.26 271.591 34.692C271.591 26.754 267.573 22.785 259.537 22.785C249.443 22.981 243.416 28.714 241.456 39.984L236.458 68.208C236.066 70.658 235.87 73.206 235.87 75.852C235.87 82.712 239.986 86.142 248.218 86.142Z" fill="#639BFF"/>
<path d="M331.87 76.734C331.87 83.496 336.721 86.877 346.423 86.877C356.223 86.877 361.123 83.839 361.123 77.763C361.123 74.529 359.457 71.883 356.125 69.825C352.793 67.767 348.726 66.052 343.924 64.68C339.22 63.308 334.467 61.74 329.665 59.976C324.961 58.114 320.943 55.272 317.611 51.45C314.279 47.53 312.613 42.679 312.613 36.897C312.613 12.299 328.44 0 360.094 0C371.658 0 380.38 2.205 386.26 6.615C392.238 10.927 395.227 16.954 395.227 24.696C395.227 27.538 394.835 30.282 394.051 32.928C393.365 35.476 392.63 37.289 391.846 38.367L390.67 40.131H364.651C366.807 37.877 367.885 35.035 367.885 31.605C367.885 25.235 363.72 22.05 355.39 22.05C344.904 22.05 339.661 25.382 339.661 32.046C339.661 35.378 341.327 38.024 344.659 39.984C347.991 41.944 352.009 43.512 356.713 44.688C361.515 45.766 366.317 47.138 371.119 48.804C375.921 50.47 379.988 53.263 383.32 57.183C386.652 61.005 388.318 66.003 388.318 72.177C388.318 84.623 384.594 93.884 377.146 99.96C369.698 105.938 358.232 108.927 342.748 108.927C327.264 108.927 316.68 106.183 310.996 100.695C306.782 96.579 304.675 90.895 304.675 83.643C304.675 80.899 304.969 77.91 305.557 74.676L305.998 72.324H332.458L332.164 74.088C331.968 75.068 331.87 75.95 331.87 76.734Z" fill="#639BFF"/>
<path d="M472.907 106.869H399.113L417.782 1.029H491.576L487.46 23.961H440.126L436.745 43.806H475.847L471.731 66.738H432.629L429.689 83.937H477.023L472.907 106.869Z" fill="#639BFF"/>
<path d="M534.969 1.029L516.447 106.869H489.84L508.509 1.029H534.969Z" fill="#639BFF"/>
<path d="M45.692 168.927C31.678 168.927 21.976 165.889 16.586 159.813C12.862 155.501 11 149.474 11 141.732C11 138.4 11.343 134.823 12.029 131.001L18.056 97.191C22.466 72.397 38.391 60 65.831 60C77.199 60 85.823 62.45 91.703 67.35C97.583 72.152 100.523 78.767 100.523 87.195C100.523 91.115 99.935 95.035 98.759 98.955C97.681 102.777 96.603 105.619 95.525 107.481L93.908 110.421H67.889C71.123 106.697 72.74 101.405 72.74 94.545C72.74 90.919 71.809 88.077 69.947 86.019C68.085 83.863 65.341 82.785 61.715 82.785C51.817 82.785 45.937 88.273 44.075 99.249L38.93 128.943C38.44 131.491 38.195 133.99 38.195 136.44C38.195 142.908 42.066 146.142 49.808 146.142C59.118 146.142 64.704 140.899 66.566 130.413H93.026L92.291 134.676C88.371 157.51 72.838 168.927 45.692 168.927Z" fill="white"/>
<path d="M203.932 61.029L185.41 166.869H158.803L165.565 128.649H136.9L130.285 166.869H103.678L122.347 61.029H148.807L140.869 105.717H169.534L177.472 61.029H203.932Z" fill="white"/>
<path d="M263.359 60C286.977 60 298.786 69.653 298.786 88.959C298.786 92.193 298.443 95.672 297.757 99.396L292.612 128.796C290.26 142.418 285.164 152.512 277.324 159.078C269.484 165.644 258.459 168.927 244.249 168.927C230.039 168.927 220.141 165.644 214.555 159.078C210.733 154.57 208.822 148.347 208.822 140.409C208.822 136.881 209.214 133.01 209.998 128.796L215.143 99.396C219.749 73.132 235.821 60 263.359 60ZM248.218 146.142C253.118 146.142 257.038 144.868 259.978 142.32C262.918 139.772 264.976 135.068 266.152 128.208L271.15 99.984C271.444 98.024 271.591 96.26 271.591 94.692C271.591 86.754 267.573 82.785 259.537 82.785C249.443 82.981 243.416 88.714 241.456 99.984L236.458 128.208C236.066 130.658 235.87 133.206 235.87 135.852C235.87 142.712 239.986 146.142 248.218 146.142Z" fill="white"/>
<path d="M331.87 136.734C331.87 143.496 336.721 146.877 346.423 146.877C356.223 146.877 361.123 143.839 361.123 137.763C361.123 134.529 359.457 131.883 356.125 129.825C352.793 127.767 348.726 126.052 343.924 124.68C339.22 123.308 334.467 121.74 329.665 119.976C324.961 118.114 320.943 115.272 317.611 111.45C314.279 107.53 312.613 102.679 312.613 96.897C312.613 72.299 328.44 60 360.094 60C371.658 60 380.38 62.205 386.26 66.615C392.238 70.927 395.227 76.954 395.227 84.696C395.227 87.538 394.835 90.282 394.051 92.928C393.365 95.476 392.63 97.289 391.846 98.367L390.67 100.131H364.651C366.807 97.877 367.885 95.035 367.885 91.605C367.885 85.235 363.72 82.05 355.39 82.05C344.904 82.05 339.661 85.382 339.661 92.046C339.661 95.378 341.327 98.024 344.659 99.984C347.991 101.944 352.009 103.512 356.713 104.688C361.515 105.766 366.317 107.138 371.119 108.804C375.921 110.47 379.988 113.263 383.32 117.183C386.652 121.005 388.318 126.003 388.318 132.177C388.318 144.623 384.594 153.884 377.146 159.96C369.698 165.938 358.232 168.927 342.748 168.927C327.264 168.927 316.68 166.183 310.996 160.695C306.782 156.579 304.675 150.895 304.675 143.643C304.675 140.899 304.969 137.91 305.557 134.676L305.998 132.324H332.458L332.164 134.088C331.968 135.068 331.87 135.95 331.87 136.734Z" fill="white"/>
<path d="M472.907 166.869H399.113L417.782 61.029H491.576L487.46 83.961H440.126L436.745 103.806H475.847L471.731 126.738H432.629L429.689 143.937H477.023L472.907 166.869Z" fill="white"/>
<path d="M534.969 61.029L516.447 166.869H489.84L508.509 61.029H534.969Z" fill="white"/>
<path d="M45.692 228.927C31.678 228.927 21.976 225.889 16.586 219.813C12.862 215.501 11 209.474 11 201.732C11 198.4 11.343 194.823 12.029 191.001L18.056 157.191C22.466 132.397 38.391 120 65.831 120C77.199 120 85.823 122.45 91.703 127.35C97.583 132.152 100.523 138.767 100.523 147.195C100.523 151.115 99.935 155.035 98.759 158.955C97.681 162.777 96.603 165.619 95.525 167.481L93.908 170.421H67.889C71.123 166.697 72.74 161.405 72.74 154.545C72.74 150.919 71.809 148.077 69.947 146.019C68.085 143.863 65.341 142.785 61.715 142.785C51.817 142.785 45.937 148.273 44.075 159.249L38.93 188.943C38.44 191.491 38.195 193.99 38.195 196.44C38.195 202.908 42.066 206.142 49.808 206.142C59.118 206.142 64.704 200.899 66.566 190.413H93.026L92.291 194.676C88.371 217.51 72.838 228.927 45.692 228.927Z" fill="#639BFF"/>
<path d="M203.932 121.029L185.41 226.869H158.803L165.565 188.649H136.9L130.285 226.869H103.678L122.347 121.029H148.807L140.869 165.717H169.534L177.472 121.029H203.932Z" fill="#639BFF"/>
<path d="M263.359 120C286.977 120 298.786 129.653 298.786 148.959C298.786 152.193 298.443 155.672 297.757 159.396L292.612 188.796C290.26 202.418 285.164 212.512 277.324 219.078C269.484 225.644 258.459 228.927 244.249 228.927C230.039 228.927 220.141 225.644 214.555 219.078C210.733 214.57 208.822 208.347 208.822 200.409C208.822 196.881 209.214 193.01 209.998 188.796L215.143 159.396C219.749 133.132 235.821 120 263.359 120ZM248.218 206.142C253.118 206.142 257.038 204.868 259.978 202.32C262.918 199.772 264.976 195.068 266.152 188.208L271.15 159.984C271.444 158.024 271.591 156.26 271.591 154.692C271.591 146.754 267.573 142.785 259.537 142.785C249.443 142.981 243.416 148.714 241.456 159.984L236.458 188.208C236.066 190.658 235.87 193.206 235.87 195.852C235.87 202.712 239.986 206.142 248.218 206.142Z" fill="#639BFF"/>
<path d="M331.87 196.734C331.87 203.496 336.721 206.877 346.423 206.877C356.223 206.877 361.123 203.839 361.123 197.763C361.123 194.529 359.457 191.883 356.125 189.825C352.793 187.767 348.726 186.052 343.924 184.68C339.22 183.308 334.467 181.74 329.665 179.976C324.961 178.114 320.943 175.272 317.611 171.45C314.279 167.53 312.613 162.679 312.613 156.897C312.613 132.299 328.44 120 360.094 120C371.658 120 380.38 122.205 386.26 126.615C392.238 130.927 395.227 136.954 395.227 144.696C395.227 147.538 394.835 150.282 394.051 152.928C393.365 155.476 392.63 157.289 391.846 158.367L390.67 160.131H364.651C366.807 157.877 367.885 155.035 367.885 151.605C367.885 145.235 363.72 142.05 355.39 142.05C344.904 142.05 339.661 145.382 339.661 152.046C339.661 155.378 341.327 158.024 344.659 159.984C347.991 161.944 352.009 163.512 356.713 164.688C361.515 165.766 366.317 167.138 371.119 168.804C375.921 170.47 379.988 173.263 383.32 177.183C386.652 181.005 388.318 186.003 388.318 192.177C388.318 204.623 384.594 213.884 377.146 219.96C369.698 225.938 358.232 228.927 342.748 228.927C327.264 228.927 316.68 226.183 310.996 220.695C306.782 216.579 304.675 210.895 304.675 203.643C304.675 200.899 304.969 197.91 305.557 194.676L305.998 192.324H332.458L332.164 194.088C331.968 195.068 331.87 195.95 331.87 196.734Z" fill="#639BFF"/>
<path d="M472.907 226.869H399.113L417.782 121.029H491.576L487.46 143.961H440.126L436.745 163.806H475.847L471.731 186.738H432.629L429.689 203.937H477.023L472.907 226.869Z" fill="#639BFF"/>
<path d="M534.969 121.029L516.447 226.869H489.84L508.509 121.029H534.969Z" fill="#639BFF"/>
</svg>
