<svg width="927" height="184" viewBox="0 0 927 184" fill="none" xmlns="http://www.w3.org/2000/svg">
<g clip-path="url(#clip0_234_7)">
<rect width="927" height="184" rx="21" fill="white"/>
<path d="M87.7754 140.594L84.9824 138.875L83.9082 133.826L87.2383 120.828L84.9824 120.291L62.4238 125.877L60.7051 130.926L61.8867 134.363L58.4492 138.338H55.1191C52.1113 136.404 50.9655 133.576 51.6816 129.852L52.3262 127.596H47.1699L44.9141 128.133L40.4023 125.34V121.365L42.6582 119.646H52.3262L55.6562 117.391L61.3496 99.9883L60.168 98.8066H52.3262L48.8887 96.0137L48.3516 92.5762L50.0703 90.9648H58.4492L60.168 91.502L65.2168 89.7832L70.373 75.1738L72.6289 74.5293L77.1406 77.4297L77.6777 80.7598L74.8848 89.2461H81.0078L97.9805 85.8086L104.748 65.5059L107.541 64.9688L112.053 67.7617L112.59 69.4805L108.078 84.1973C111.086 84.1973 113.557 85.1283 115.49 86.9902L116.027 90.3203C112.661 92.2539 108.902 93.3997 104.748 93.7578L100.773 107.83L103.566 108.367L112.053 106.111L116.027 108.367L117.102 111.805C110.728 114.454 104.354 116.531 97.9805 118.035C94.9727 124.767 92.7168 131.893 91.2129 139.412L87.7754 140.594ZM90.6758 111.805V110.623C92.8958 105.753 94.3997 100.49 95.1875 94.832H90.6758L86.1641 96.0137H79.9336L71.4473 97.7324L65.8613 116.316H69.7285L90.6758 111.805ZM167.805 142.527C165.441 141.095 164.403 139.233 164.689 136.941L165.549 135.975H171.887L174.035 136.727L174.787 135.975H181.232C183.238 133.182 184.24 129.852 184.24 125.984L182.307 124.373H174.25L171.027 120.398V118.787L171.564 118.572H182.307L184.885 115.994V108.26L180.91 106.648L168.02 109.764L165.119 104.93C169.846 103.068 175.575 101.671 182.307 100.74V98.4844C180.66 96.3359 179.836 93.9368 179.836 91.2871L176.506 90.5352L149.65 94.6172L145.783 89.7832C147.43 89.2819 149.722 88.5299 152.658 87.5273L153.41 81.5117L152.766 80.8672V68.9434L153.41 68.2988V56.0527C149.686 55.4798 146.714 54.0833 144.494 51.8633L144.064 49.7148L148.791 48.748H171.457C176.542 47.1009 181.841 46.2773 187.355 46.2773L190.578 48.3184V49.3926L189.074 51.541L185.1 52.9375L184.348 59.9199L185.529 64.8613L184.885 67.0098L185.529 67.6543V77.6445L187.355 86.9902V97.5176L192.512 99.666L203.254 98.377L207.551 101.062V102.781L204.436 104.822H193.264L191.223 113.201L192.619 117.176L197.775 117.928L202.717 117.283L207.658 119.539L207.98 120.506L205.617 123.084H192.834L190.578 126.092V132.967L192.834 135.975H207.121L217.004 134.793L221.408 137.049L221.945 139.09L218.938 141.131H209.377L208.625 141.775H177.902L177.258 142.527H167.805ZM203.146 89.8906L197.238 85.7012L196.701 83.3379C197.99 81.2611 198.42 78.6113 197.99 75.3887C197.561 69.8743 196.379 65.0762 194.445 60.9941C198.742 59.5618 203.576 58.8457 208.947 58.8457C215.106 59.2754 220.549 61.4596 225.275 65.3984L227.639 74.4219C228.14 79.1484 226.815 83.0514 223.664 86.1309C220.012 87.7064 216.359 88.9596 212.707 89.8906H203.146ZM179.191 85.0566V79.6855L177.365 77.8594H169.416L161.145 80.0078L160.285 84.9492L165.979 87.2051L166.623 86.5605H173.391L179.191 85.0566ZM216.467 81.9414C219.188 79.2201 220.37 75.7826 220.012 71.6289L217.326 66.6875C214.462 64.8971 211.132 64.2168 207.336 64.6465L204.328 68.4062L205.08 70.5547L204.436 73.0254L207.014 83.123L209.699 84.0898L216.467 81.9414ZM177.473 71.9512L178.869 70.6621L176.184 67.1172H172.961L172.316 67.7617H164.904L161.145 69.373L160.178 73.2402L166.945 73.8848L177.473 71.9512ZM177.258 60.8867L177.902 56.5898L175.539 53.2598H170.061L166.945 53.9043L164.367 53.2598L161.145 54.8711L160.393 60.7793L162.219 62.6055H169.094L169.846 61.9609H176.076L177.258 60.8867ZM301.545 147.039L298.215 143.709V137.371L299.934 125.232V118.25L300.686 117.713V108.797L301.652 104.93L296.066 103.104L284.357 105.789L277.59 102.674L276.945 101.062L278.986 100.418C288.726 99.487 297.893 97.5176 306.486 94.5098L309.602 95.6914L325.607 92.5762H332.16L333.449 96.3359C327.147 98.3411 319.914 99.9883 311.75 101.277L308.85 107.938L309.387 111.053L308.85 111.482V119.432L308.098 119.969V127.488L307.453 128.025V135.33L306.916 138.768L307.453 141.346L305.842 146.502L301.545 147.039ZM274.475 99.8809L269.963 105.252H265.881C264.305 104.106 263.697 102.495 264.055 100.418L272.971 80.2227H267.707L265.236 80.8672L258.684 77.8594L258.146 75.4961L258.898 74.8516H264.699L265.236 75.4961H274.367L277.053 74.6367L278.557 66.6875L265.988 63.6797L261.369 69.6953H258.039L254.709 68.084V64.8613C260.367 55.4798 266.776 46.9577 273.938 39.2949L278.342 41.1211L279.523 44.2363L281.994 45.0957H289.191L294.67 48.1035L295.207 52.0781C291.34 62.4622 286.721 73.1328 281.35 84.0898H287.902L288.439 83.3379H297.785L298.322 82.6934H304.875L315.51 67.8691L305.305 59.5977V58.0938L309.279 55.9453L309.494 56.5898C312.86 59.0247 316.512 60.9583 320.451 62.3906L321.525 61.3164C323.889 59.0964 325.321 56.2318 325.822 52.7227L318.947 51.9707L309.494 53.3672L308.742 52.9375C306.522 53.0807 304.947 52.293 304.016 50.5742L303.479 47.2441H310.783L311.428 46.5996H336.994L339.787 49.2852V51.9707L339.465 52.6152H338.176L328.938 66.9023C332.518 69.4089 335.92 71.2708 339.143 72.4883L340.217 75.8184L336.027 77L323.137 72.8105L318.947 80.2227L327.219 84.3047V85.2715L322.707 87.4199H313.791L313.146 88.2793H296.281L295.744 88.8164H286.398L279.738 85.0566L274.367 100.418L274.475 99.8809ZM271.682 137.908L267.277 135.545V131.678L283.928 112.771H285.109L289.943 116.424V118.143L276.301 137.264L271.682 137.908ZM336.779 132.537C330.477 128.455 324.139 123.836 317.766 118.68L317.229 116.209L317.98 115.35H323.889L339.787 128.777V131.463L336.779 132.537ZM282.316 61.1016L285.969 51.9707L283.82 50.0371H274.367L270.393 58.6309L281.135 62.3906L282.316 61.1016ZM421.75 141.453L416.271 137.586L415.734 137.049V126.521L416.809 120.506L416.271 117.82L419.602 89.1387L416.271 88.0645L395.861 93.543L394.787 98.4844L395.324 100.203L394.787 103.426L396.398 111.697L395.861 113.416L397.043 116.102L394.25 118.895H392.102L388.771 117.82C387.626 115.6 387.053 113.201 387.053 110.623V97.4102L384.367 96.3359C381.073 98.9141 377.385 100.024 373.303 99.666L370.08 96.873L369.543 94.0801C374.986 92.2897 380.643 90.4635 386.516 88.6016L387.053 88.0645V82.5859L385.441 71.5215L388.771 69.9102L393.713 72.7031L394.787 75.9258L394.25 76.5703V83.6602L395.324 85.916L397.043 86.4531C404.348 83.875 411.867 82.013 419.602 80.8672L420.676 79.2559V72.166L420.139 66.5801L424.543 65.5059L428.303 67.7617L428.947 68.2988V73.7773L428.303 77.1074L431.096 78.7188L436.574 76.5703H442.697L445.383 78.7188V81.5117C440.227 83.6602 434.748 85.3073 428.947 86.4531L427.229 91.9316V99.0215L426.154 104.07V109.549L425.08 114.49V120.506L424.543 121.043V126.521L423.898 127.166V134.256L425.08 137.049C424.722 139.197 423.612 140.665 421.75 141.453ZM525.734 140.916L521.438 138.123V136.512L521.975 135.867V129.314L520.793 123.299L521.438 122.762V116.639L519.719 106.219V100.203L517.033 97.9473C507.079 106.756 497.697 115.923 488.889 125.447H485.666L481.799 120.506C501.206 102.889 521.008 85.3073 541.203 67.7617L545.07 67.1172L548.293 69.9102V72.7031L526.379 90.3203V94.6172L527.453 97.9473V104.07L528.527 107.83V113.416L529.064 113.953V124.91L529.602 125.447V131.57L531.857 137.049C530.354 139.197 528.312 140.486 525.734 140.916ZM605.549 138.123L602.219 135.438V131.57L609.846 128.885L611.564 129.422C619.943 126.128 628.68 123.764 637.775 122.332H643.254L644.865 120.613V102.029L645.51 101.492V95.4766L644.865 93.8652L646.047 87.8496V82.3711L646.584 80.1152L643.254 79.041C631.223 81.2611 619.549 84.1973 608.234 87.8496L603.83 84.5195V81.834C618.798 77.8236 633.765 74.1712 648.732 70.877L654.211 73.0254L654.748 73.5625V79.041L654.211 79.5781V89.998L653.137 94.9395V110.301L652.6 110.838V123.406L653.674 128.348C652.242 130.138 650.415 130.854 648.195 130.496L643.791 128.885L643.254 129.422H637.775C627.248 132.358 616.506 135.258 605.549 138.123ZM711.789 111.16L708.244 106.756L708.566 104.07C727.115 101.349 745.663 98.5202 764.211 95.584L767.326 98.6992L767.541 102.137L765.715 104.285L759.592 103.641C743.622 106.147 727.688 108.654 711.789 111.16ZM842.844 142.527L839.514 138.66V130.926L841.662 127.059L847.248 126.414L850.041 129.207V132L849.396 134.256L850.041 135.867L846.711 141.99L842.844 142.527ZM841.125 110.945L837.795 108.26V97.1953C839.299 82.4427 842.987 68.8001 848.859 56.2676H851.652L855.52 58.5234L856.594 62.9277C851.079 75.4603 847.391 88.5299 845.529 102.137V109.334L841.125 110.945Z" fill="#639BFF"/>
</g>
<defs>
<clipPath id="clip0_234_7">
<rect width="927" height="184" fill="white"/>
</clipPath>
</defs>
</svg>
