<svg width="734" height="184" viewBox="0 0 734 184" fill="none" xmlns="http://www.w3.org/2000/svg">
<g clip-path="url(#clip0_234_10)">
<rect width="734" height="184" rx="21" fill="white"/>
<path d="M89.7754 140.594L86.9824 138.875L85.9082 133.826L89.2383 120.828L86.9824 120.291L64.4238 125.877L62.7051 130.926L63.8867 134.363L60.4492 138.338H57.1191C54.1113 136.404 52.9655 133.576 53.6816 129.852L54.3262 127.596H49.1699L46.9141 128.133L42.4023 125.34V121.365L44.6582 119.646H54.3262L57.6562 117.391L63.3496 99.9883L62.168 98.8066H54.3262L50.8887 96.0137L50.3516 92.5762L52.0703 90.9648H60.4492L62.168 91.502L67.2168 89.7832L72.373 75.1738L74.6289 74.5293L79.1406 77.4297L79.6777 80.7598L76.8848 89.2461H83.0078L99.9805 85.8086L106.748 65.5059L109.541 64.9688L114.053 67.7617L114.59 69.4805L110.078 84.1973C113.086 84.1973 115.557 85.1283 117.49 86.9902L118.027 90.3203C114.661 92.2539 110.902 93.3997 106.748 93.7578L102.773 107.83L105.566 108.367L114.053 106.111L118.027 108.367L119.102 111.805C112.728 114.454 106.354 116.531 99.9805 118.035C96.9727 124.767 94.7168 131.893 93.2129 139.412L89.7754 140.594ZM92.6758 111.805V110.623C94.8958 105.753 96.3997 100.49 97.1875 94.832H92.6758L88.1641 96.0137H81.9336L73.4473 97.7324L67.8613 116.316H71.7285L92.6758 111.805ZM164.004 144.891L161.211 143.387L160.781 141.775C168.659 135.76 176.501 128.562 184.307 120.184V114.275L178.506 113.416L170.234 115.779L166.26 112.234V109.979L168.193 103.211L163.789 97.625L165.83 96.2285L167.441 96.7656L173.135 95.4766H180.869L184.307 93.4355L185.488 92.3613V84.1973L180.762 82.1562L179.902 83.123H173.457L170.557 80.6523V79.2559L175.928 78.0742L176.787 74.5293L176.143 70.2324L177.002 67.9766L174.746 65.7207H162.393L160.566 69.2656L161.211 73.6699L160.244 75.8184L157.988 76.248L153.799 71.9512L153.262 70.0176V55.8379L152.725 51.9707L157.881 51.1113L160.029 52.8301L161.426 60.0273L168.623 61.5312L170.664 60.8867L175.498 61.5312L181.191 60.2422H190.107L191.611 55.4082L189.463 42.625L193.545 42.1953L196.553 44.7734L198.486 52.5078L203.535 54.7637H217.5L218.145 54.1191H223.086L225.234 57.0195C223.444 58.7383 220.973 59.8125 217.822 60.2422C215.602 65.7565 214.277 71.8079 213.848 78.3965L215.029 82.5859L212.559 88.3867V95.3691L209.229 97.3027H202.676L202.139 97.8398H195.049L192.148 98.8066L191.504 106.111C193.796 107.758 196.445 108.367 199.453 107.938L199.99 107.4H207.188L209.551 106.756L212.344 107.508L213.203 106.756H219.111L220.615 106.111C222.907 107.544 224.769 109.477 226.201 111.912V121.473C225.771 128.204 224.447 134.22 222.227 139.52L219.541 140.379L212.559 136.619L212.344 135.652L214.922 134.578L218.252 122.977V114.168L215.674 111.59H207.832L207.188 112.234H194.189C191.898 113.953 191.003 116.102 191.504 118.68L192.041 121.902C190.824 124.337 190.215 126.844 190.215 129.422V141.453L188.818 143.709L186.885 144.246L182.695 142.098L182.373 141.453V133.611H178.721L166.26 144.891H164.004ZM184.199 107.4L184.951 101.492L179.043 98.9141L175.498 101.6V105.145L178.613 109.227H181.406L184.199 107.4ZM204.395 91.8242L206.543 85.4863L203.857 81.9414H192.363L191.504 85.0566L192.9 92.8984L197.842 93.7578L201.279 92.5762L202.998 93.4355L204.395 91.8242ZM206.328 77L209.121 60.3496L207.402 58.9531H199.775L198.916 61.9609L199.453 65.6133L198.594 67.2246L197.197 67.5469L188.926 63.6797L184.844 67.0098L183.447 75.1738L187.637 77.6445H202.461L204.824 78.5039L206.328 77ZM264.658 139.734L260.361 136.619L259.824 132.859L264.121 129.637L267.881 132.322L274.219 125.877C276.725 121.294 278.158 116.316 278.516 110.945L276.904 108.797H274.219L267.881 113.094L265.195 116.854L261.973 117.391L257.676 113.631V109.334L258.213 108.797V102.459L258.75 101.922V93.8652L259.287 93.3281V87.957L259.824 87.4199V81.082L260.361 77.8594L259.824 77.3223V69.2656L260.361 68.7285H265.732L271.533 69.8027L273.682 68.7285H283.35L286.572 70.877L287.109 73.0254L280.664 75.1738L277.979 74.6367L267.881 78.3965L267.344 78.9336V85.2715L266.807 85.8086V92.791L265.732 98.6992V104.5H267.344L272.07 102.459H277.979C280.485 103.104 282.633 104.5 284.424 106.648L286.035 113.631C284.961 122.869 280.843 130.711 273.682 137.156C271.247 139.591 268.239 140.451 264.658 139.734ZM323.525 138.66C319.945 137.299 316.901 135.187 314.395 132.322L313.32 128.562C316.543 119.682 320.303 111.124 324.6 102.889C317.438 94.7246 313.32 85.3073 312.246 74.6367L314.395 70.3398L319.229 64.9688H326.211C331.152 65.3268 335.592 67.4753 339.531 71.4141C342.038 73.9206 343.649 76.9642 344.365 80.5449C340.068 88.3509 336.309 96.515 333.086 105.037C336.309 109.692 338.099 114.848 338.457 120.506C338.099 126.951 335.771 132.465 331.475 137.049L329.434 138.66H323.525ZM326.211 132.322C329.004 128.025 330.758 123.227 331.475 117.928C331.475 115.421 330.615 113.81 328.896 113.094C325.316 118.393 322.809 124.087 321.377 130.174L324.062 132.859H325.674L326.211 132.322ZM328.896 96.0137C332.406 89.9264 334.518 83.3379 335.234 76.248L334.16 73.5625L325.137 70.877L320.303 75.7109L319.766 80.0078C321.198 86.3815 324.062 91.8958 328.359 96.5508L328.896 96.0137ZM382.607 142.312L375.625 137.586L374.873 136.404V122.225V118.572V116.531L375.303 109.334V93.8652L375.947 83.0156L375.303 74.7441L374.98 72.5957C380.996 70.6621 387.513 68.8359 394.531 67.1172H400.762L412.686 66.6875H422.461L431.27 67.1172L438.574 67.7617L442.119 68.8359L445.02 83.2305V90.75V93.4355V100.525L446.309 105.467V118.787V122.977L448.457 131.463L452.217 133.182L452.646 134.793C448.564 137.228 443.766 138.66 438.252 139.09L436.318 138.445L424.717 140.486H413.545L405.166 141.023L398.613 142.312H382.607ZM437.607 133.504L440.078 130.496V118.465L439.004 113.309L439.434 112.664V104.822L438.789 104.07V89.3535L438.145 82.2637L435.352 74.0996L432.881 72.166H420.205L403.662 71.6289L397.324 73.5625H390.986L383.467 76.8926L382.393 77.9668V97.7324L381.641 117.713L380.996 122.977V128.025L383.682 136.082L384.756 137.371L393.027 136.727H399.902L400.547 136.189L412.041 135.545H426.113L437.607 133.504ZM402.48 122.225L397.754 117.82L396.357 109.012L397.109 105.789L396.357 103.318L397.754 96.5508V90.1055C397.969 88.888 398.649 88.2793 399.795 88.2793L406.133 90.75H412.686C416.481 91.4661 419.919 93.3997 422.998 96.5508L424.717 99.9883V105.682L422.783 113.523L423.32 116.961C416.875 119.253 409.928 121.007 402.48 122.225ZM412.148 114.061C416.875 110.265 418.773 105.503 417.842 99.7734C415.264 96.4792 412.005 95.3691 408.066 96.4434L404.736 98.0547L403.232 109.119L404.951 115.35H409.355L412.148 114.061ZM499.805 142.527C497.441 141.095 496.403 139.233 496.689 136.941L497.549 135.975H503.887L506.035 136.727L506.787 135.975H513.232C515.238 133.182 516.24 129.852 516.24 125.984L514.307 124.373H506.25L503.027 120.398V118.787L503.564 118.572H514.307L516.885 115.994V108.26L512.91 106.648L500.02 109.764L497.119 104.93C501.846 103.068 507.575 101.671 514.307 100.74V98.4844C512.66 96.3359 511.836 93.9368 511.836 91.2871L508.506 90.5352L481.65 94.6172L477.783 89.7832C479.43 89.2819 481.722 88.5299 484.658 87.5273L485.41 81.5117L484.766 80.8672V68.9434L485.41 68.2988V56.0527C481.686 55.4798 478.714 54.0833 476.494 51.8633L476.064 49.7148L480.791 48.748H503.457C508.542 47.1009 513.841 46.2773 519.355 46.2773L522.578 48.3184V49.3926L521.074 51.541L517.1 52.9375L516.348 59.9199L517.529 64.8613L516.885 67.0098L517.529 67.6543V77.6445L519.355 86.9902V97.5176L524.512 99.666L535.254 98.377L539.551 101.062V102.781L536.436 104.822H525.264L523.223 113.201L524.619 117.176L529.775 117.928L534.717 117.283L539.658 119.539L539.98 120.506L537.617 123.084H524.834L522.578 126.092V132.967L524.834 135.975H539.121L549.004 134.793L553.408 137.049L553.945 139.09L550.938 141.131H541.377L540.625 141.775H509.902L509.258 142.527H499.805ZM535.146 89.8906L529.238 85.7012L528.701 83.3379C529.99 81.2611 530.42 78.6113 529.99 75.3887C529.561 69.8743 528.379 65.0762 526.445 60.9941C530.742 59.5618 535.576 58.8457 540.947 58.8457C547.106 59.2754 552.549 61.4596 557.275 65.3984L559.639 74.4219C560.14 79.1484 558.815 83.0514 555.664 86.1309C552.012 87.7064 548.359 88.9596 544.707 89.8906H535.146ZM511.191 85.0566V79.6855L509.365 77.8594H501.416L493.145 80.0078L492.285 84.9492L497.979 87.2051L498.623 86.5605H505.391L511.191 85.0566ZM548.467 81.9414C551.188 79.2201 552.37 75.7826 552.012 71.6289L549.326 66.6875C546.462 64.8971 543.132 64.2168 539.336 64.6465L536.328 68.4062L537.08 70.5547L536.436 73.0254L539.014 83.123L541.699 84.0898L548.467 81.9414ZM509.473 71.9512L510.869 70.6621L508.184 67.1172H504.961L504.316 67.7617H496.904L493.145 69.373L492.178 73.2402L498.945 73.8848L509.473 71.9512ZM509.258 60.8867L509.902 56.5898L507.539 53.2598H502.061L498.945 53.9043L496.367 53.2598L493.145 54.8711L492.393 60.7793L494.219 62.6055H501.094L501.846 61.9609H508.076L509.258 60.8867ZM633.545 147.039L630.215 143.709V137.371L631.934 125.232V118.25L632.686 117.713V108.797L633.652 104.93L628.066 103.104L616.357 105.789L609.59 102.674L608.945 101.062L610.986 100.418C620.726 99.487 629.893 97.5176 638.486 94.5098L641.602 95.6914L657.607 92.5762H664.16L665.449 96.3359C659.147 98.3411 651.914 99.9883 643.75 101.277L640.85 107.938L641.387 111.053L640.85 111.482V119.432L640.098 119.969V127.488L639.453 128.025V135.33L638.916 138.768L639.453 141.346L637.842 146.502L633.545 147.039ZM606.475 99.8809L601.963 105.252H597.881C596.305 104.106 595.697 102.495 596.055 100.418L604.971 80.2227H599.707L597.236 80.8672L590.684 77.8594L590.146 75.4961L590.898 74.8516H596.699L597.236 75.4961H606.367L609.053 74.6367L610.557 66.6875L597.988 63.6797L593.369 69.6953H590.039L586.709 68.084V64.8613C592.367 55.4798 598.776 46.9577 605.938 39.2949L610.342 41.1211L611.523 44.2363L613.994 45.0957H621.191L626.67 48.1035L627.207 52.0781C623.34 62.4622 618.721 73.1328 613.35 84.0898H619.902L620.439 83.3379H629.785L630.322 82.6934H636.875L647.51 67.8691L637.305 59.5977V58.0938L641.279 55.9453L641.494 56.5898C644.86 59.0247 648.512 60.9583 652.451 62.3906L653.525 61.3164C655.889 59.0964 657.321 56.2318 657.822 52.7227L650.947 51.9707L641.494 53.3672L640.742 52.9375C638.522 53.0807 636.947 52.293 636.016 50.5742L635.479 47.2441H642.783L643.428 46.5996H668.994L671.787 49.2852V51.9707L671.465 52.6152H670.176L660.938 66.9023C664.518 69.4089 667.92 71.2708 671.143 72.4883L672.217 75.8184L668.027 77L655.137 72.8105L650.947 80.2227L659.219 84.3047V85.2715L654.707 87.4199H645.791L645.146 88.2793H628.281L627.744 88.8164H618.398L611.738 85.0566L606.367 100.418L606.475 99.8809ZM603.682 137.908L599.277 135.545V131.678L615.928 112.771H617.109L621.943 116.424V118.143L608.301 137.264L603.682 137.908ZM668.779 132.537C662.477 128.455 656.139 123.836 649.766 118.68L649.229 116.209L649.98 115.35H655.889L671.787 128.777V131.463L668.779 132.537ZM614.316 61.1016L617.969 51.9707L615.82 50.0371H606.367L602.393 58.6309L613.135 62.3906L614.316 61.1016Z" fill="#639BFF"/>
</g>
<defs>
<clipPath id="clip0_234_10">
<rect width="734" height="184" fill="white"/>
</clipPath>
</defs>
</svg>
