<svg width="302" height="460" viewBox="0 0 302 460" fill="none" xmlns="http://www.w3.org/2000/svg">
<path d="M287.166 85.5511C286.779 91.7711 287.036 96.6911 287.936 100.311C288.622 103.071 288.856 105.424 288.636 107.371C288.62 107.506 288.632 107.643 288.672 107.772C288.712 107.901 288.777 108.02 288.866 108.121C289.386 108.748 289.429 109.398 288.996 110.071C288.885 110.254 288.829 110.462 288.836 110.671C289.136 115.541 288.426 120.891 288.346 125.081C288.019 144.208 285.789 163.121 281.656 181.821C281.616 181.981 281.619 182.144 281.666 182.311C283.932 190.304 285.936 198.431 287.676 206.691C288.289 209.591 289.206 212.564 290.426 215.611C298.679 236.178 302.162 257.544 300.876 279.711C300.436 287.281 298.816 295.901 297.606 303.961C297.379 305.474 297.479 307.014 297.906 308.581C306.636 340.641 300.956 391.331 275.336 415.511C235.556 453.061 178.746 460.541 126.076 458.841C113.156 458.421 100.619 456.051 88.4656 451.731C60.6556 441.851 41.5556 416.271 34.4856 388.361C32.7156 381.401 31.7256 372.731 30.5056 364.901C30.2856 363.528 29.749 362.258 28.8956 361.091C17.6956 345.898 10.6657 328.891 7.80566 310.071C2.60566 275.901 7.60561 239.961 14.3756 206.341C19.1356 182.711 20.4757 160.561 16.9357 136.561C15.1423 121.594 11.6723 107.061 6.52563 92.9611C3.4123 84.4211 1.61562 79.0244 1.13562 76.7711C-3.55438 54.6011 6.50567 30.5811 27.1857 19.9811C54.8357 5.81111 86.4356 17.9011 98.8356 45.8711C99.9289 48.3378 102.539 55.3378 106.666 66.8711C113.359 88.5378 117.822 110.624 120.056 133.131C120.078 133.371 120.187 133.595 120.364 133.761C120.541 133.926 120.772 134.023 121.016 134.031C126.896 134.221 129.736 135.181 134.976 131.891C144.916 125.664 155.889 121.564 167.896 119.591C172.749 118.791 178.452 118.241 185.006 117.941C185.263 117.931 185.506 117.82 185.683 117.634C185.861 117.447 185.958 117.199 185.956 116.941C185.842 103.321 184.479 89.9911 181.866 76.9511C180.026 69.7244 178.819 64.4911 178.246 61.2511C172.186 27.0311 200.006 -4.2789 235.456 0.481105C257.176 3.3911 274.196 19.5911 279.086 40.8811C283.806 61.4111 285.806 72.8211 287.166 85.5511ZM202.346 119.371C229.456 125.861 250.486 136.581 268.036 158.961C269.009 160.208 269.602 160.048 269.816 158.481C274.836 121.201 272.806 84.0244 263.726 46.9511C262.299 41.1178 260.606 36.5744 258.646 33.3211C240.576 3.2911 194.166 15.7711 193.506 50.6511C193.452 53.3044 194.039 57.2078 195.266 62.3611C199.632 80.7078 201.736 99.3844 201.576 118.391C201.572 118.618 201.647 118.839 201.787 119.017C201.927 119.196 202.124 119.321 202.346 119.371ZM21.9656 268.831C19.1556 309.801 30.4756 358.741 73.3956 375.751C91.1056 382.781 112.576 383.591 131.966 382.851C179.586 381.021 226.456 373.441 261.816 339.321C278.346 323.381 282.856 299.331 284.746 276.991C285.286 270.611 285.122 264.014 284.256 257.201C283.936 254.674 283.416 254.634 282.696 257.081C280.696 263.868 278.236 270.448 275.316 276.821C272.029 283.994 268.589 289.671 264.996 293.851C253.896 306.741 236.176 313.441 218.706 310.281C215.992 309.788 213.309 309.161 210.656 308.401C208.996 307.928 208.716 308.354 209.816 309.681C214.856 315.754 218.646 322.714 221.186 330.561C224.396 340.491 210.206 346.431 205.966 336.121C200.536 322.911 194.086 313.731 181.446 306.021C167.126 297.281 151.929 293.101 135.856 293.481C133.389 293.541 132.702 294.678 133.796 296.891C136.236 301.791 142.006 311.971 140.356 317.231C139.122 321.151 136.526 323.014 132.566 322.821C126.686 322.541 125.306 318.091 123.536 313.341C122.006 309.221 119.416 305.351 118.306 301.151C116.839 295.558 117.459 290.268 120.166 285.281C127.436 271.911 154.006 276.831 166.896 271.791C184.456 264.941 192.956 245.811 187.066 227.891C181.326 210.421 166.436 203.471 148.586 203.951C120.266 204.711 88.4556 213.331 69.7156 235.111C56.8222 250.084 49.3456 268.018 47.2856 288.911C46.9956 291.781 46.0656 295.291 43.5356 296.251C34.7156 299.581 30.6056 294.271 31.3956 286.291C35.5856 243.631 61.6956 208.371 103.126 195.311C103.312 195.255 103.478 195.144 103.603 194.993C103.727 194.842 103.805 194.657 103.826 194.461C108.906 145.801 102.429 98.8511 84.3956 53.6111C77.8256 37.1511 60.9556 27.2811 43.3356 31.4911C27.0756 35.3711 15.4757 50.1011 16.0757 66.7811C16.3257 73.6111 19.1956 80.2011 21.9056 87.0611C32.4656 113.741 35.8256 145.801 34.7856 174.251C34.4656 182.964 33.7523 190.234 32.6456 196.061C28.0656 220.271 23.6556 244.211 21.9656 268.831ZM157.256 140.581C160.536 141.594 163.749 142.861 166.896 144.381C223.906 172.011 240.796 235.951 215.896 292.071C215.836 292.202 215.806 292.345 215.808 292.489C215.81 292.633 215.843 292.776 215.906 292.906C215.969 293.037 216.059 293.152 216.172 293.245C216.284 293.337 216.415 293.404 216.556 293.441C230.156 297.014 241.546 294.268 250.726 285.201C257.082 278.925 260.927 269.274 264.426 260.49C264.439 260.457 264.452 260.424 264.466 260.391C271.626 242.441 274.666 222.081 270.606 203.191C261.376 160.311 219.956 130.141 176.426 134.801C169.899 135.501 163.502 136.918 157.236 139.051C155.682 139.584 155.689 140.094 157.256 140.581ZM208.926 221.351C203.379 196.058 189.812 176.844 168.226 163.711C154.639 155.451 139.462 150.831 122.696 149.851C122.434 149.835 122.175 149.922 121.977 150.094C121.779 150.266 121.656 150.509 121.636 150.771C121.422 153.344 121.349 155.918 121.416 158.491C121.696 168.901 121.436 179.241 120.776 189.401C120.764 189.552 120.788 189.703 120.844 189.844C120.9 189.984 120.988 190.11 121.101 190.212C121.213 190.314 121.348 190.39 121.494 190.433C121.64 190.476 121.795 190.486 121.946 190.461C131.212 188.848 140.409 187.978 149.536 187.851C174.146 187.491 194.686 198.551 202.516 222.891C205.456 232.031 205.762 241.754 203.436 252.061C200.136 266.648 191.946 277.338 178.866 284.131C177.686 284.744 177.692 285.341 178.886 285.921C184.506 288.641 189.939 291.698 195.186 295.091C195.304 295.168 195.438 295.218 195.577 295.239C195.717 295.261 195.859 295.252 195.995 295.214C196.131 295.177 196.258 295.11 196.367 295.02C196.475 294.93 196.563 294.818 196.626 294.691C202.819 282.064 207.229 268.938 209.856 255.311C211.836 245.024 211.636 233.748 209.256 221.481C209.254 221.474 209.251 221.467 209.246 221.461C209.241 221.456 209.234 221.451 209.226 221.449C209.219 221.446 209.21 221.444 209.201 221.445C209.193 221.445 209.184 221.447 209.176 221.451L209.106 221.491C209.091 221.5 209.074 221.504 209.056 221.501C209.038 221.499 209.019 221.491 209.002 221.477C208.984 221.463 208.969 221.445 208.955 221.423C208.942 221.401 208.932 221.377 208.926 221.351ZM54.7156 397.051C73.9556 442.341 115.686 445.021 158.896 442.271C198.716 439.741 236.866 430.791 266.086 401.831C268.646 399.291 271.556 395.391 273.006 392.651C282.026 375.664 286.119 357.604 285.286 338.471C285.212 336.764 284.722 336.634 283.816 338.081C280.482 343.361 276.529 348.128 271.956 352.381C228.666 392.601 169.476 399.851 113.216 398.881C103.082 398.708 93.0623 397.598 83.1556 395.551C71.7423 393.204 61.1657 388.888 51.4257 382.601C49.9123 381.621 49.4123 381.994 49.9257 383.721C51.2657 388.241 52.8622 392.684 54.7156 397.051Z" fill="white"/>
</svg>
