<svg width="220" height="234" viewBox="0 0 220 234" fill="none" xmlns="http://www.w3.org/2000/svg">
<path d="M23.2571 41.1157C44.2471 29.0057 74.3571 39.5657 90.1371 55.7557C99.4304 65.289 107.49 76.069 114.317 88.0957C114.384 88.2141 114.474 88.3175 114.583 88.3998C114.691 88.4821 114.815 88.5414 114.947 88.5742C115.079 88.6069 115.216 88.6124 115.35 88.5904C115.484 88.5683 115.613 88.519 115.727 88.4457C118.414 86.719 119.147 84.5023 117.927 81.7957C117.842 81.6001 117.818 81.3841 117.857 81.1757C118.464 78.3557 119.284 73.9223 120.317 67.8757C124.947 40.8057 139.077 18.4057 163.227 5.09568C176.28 -2.10432 189.37 -1.67433 202.497 6.38567C217.947 15.8657 218.867 26.0357 219.497 42.4057C220.377 65.4657 214.187 87.5757 205.467 114.086C203.374 120.452 198.25 134.252 190.097 155.486C181.307 178.366 170.227 200.126 157.327 220.966C153.507 227.126 147.957 231.546 141.397 233.436C139.664 233.936 138.094 233.616 136.687 232.476C117.577 216.976 98.6371 201.196 78.6071 186.966C50.2271 166.816 21.5771 147.466 6.7471 113.896C1.04044 100.982 -1.04622 87.089 0.487109 72.2157C1.99711 57.5557 11.0471 48.1557 23.2571 41.1157ZM63.3271 53.5457C45.3071 36.8457 27.9271 53.0957 17.8471 67.9557C17.7671 68.0757 17.7138 68.2023 17.6871 68.3357C17.0404 71.9223 16.4704 75.7023 15.9771 79.6757C12.3071 109.556 40.9371 137.266 62.2471 153.616C64.4871 155.342 71.8838 160.532 84.4371 169.186C89.1038 172.406 102.194 181.982 123.707 197.916C127.08 200.409 133.327 206.169 142.447 215.196C142.547 215.292 142.665 215.367 142.795 215.416C142.924 215.465 143.063 215.487 143.201 215.481C143.338 215.474 143.473 215.439 143.597 215.378C143.72 215.317 143.829 215.231 143.917 215.126C145.29 213.472 146.497 211.482 147.537 209.156C165.427 168.916 176.237 126.506 187.157 84.3357C190.484 71.489 192.994 58.4957 194.687 45.3557C195.707 37.4257 196.367 15.7857 186.707 13.3557C172.737 9.83567 157.147 28.2757 150.257 38.4657C138.187 56.3357 137.357 79.1957 134.867 99.8157C132.837 116.696 132.647 126.506 120.647 135.616C120.542 135.697 120.421 135.756 120.292 135.789C120.163 135.823 120.029 135.83 119.897 135.81C119.766 135.791 119.64 135.745 119.526 135.675C119.413 135.606 119.314 135.514 119.237 135.406C113.427 127.316 107.347 121.326 103.207 112.316C92.8971 89.9257 81.5971 70.4657 63.3271 53.5457Z" fill="#FEFEFE"/>
</svg>
