<svg width="424" height="422" viewBox="0 0 424 422" fill="none" xmlns="http://www.w3.org/2000/svg">
<path d="M326.21 105.398C329.59 98.1849 332.686 90.8482 335.499 83.3882C338.959 74.2082 342.23 68.0182 348.97 62.2582C373.73 41.0882 412.27 51.5082 421.24 83.5882C421.3 83.7882 421.433 83.9016 421.639 83.9282C421.724 83.9398 421.802 83.9781 421.864 84.0374C421.925 84.0968 421.965 84.1741 421.98 84.2582C424.18 95.4882 423.059 104.478 418.749 115.728C405.369 150.638 388.759 183.328 371.389 216.368C370.009 218.988 369.32 221.448 368.6 224.218C360.933 253.692 353.976 283.332 347.73 313.138C343.13 335.048 335.499 356.668 325.139 375.868C313.939 396.608 293.109 409.308 271.069 415.798C242.259 424.268 210.329 422.408 180.829 417.528C154.659 413.198 129.669 407.738 105.769 397.208C99.9395 394.638 93.8095 393.638 87.6995 392.228C55.5695 384.768 29.8295 365.178 12.8195 337.348C4.84951 324.318 1.68949 311.088 6.38949 296.918C9.82949 286.525 16.0595 278.568 25.0795 273.048C26.0795 272.435 26.0628 271.855 25.0295 271.308C7.0795 261.848 -3.0905 243.078 0.839499 222.498C12.6295 160.608 69.9795 121.708 131.959 134.118C137.306 135.185 142.54 136.468 147.66 137.968C147.806 138.011 147.961 138.02 148.112 137.995C148.263 137.969 148.405 137.91 148.529 137.821C148.653 137.732 148.754 137.616 148.825 137.482C148.896 137.348 148.935 137.2 148.939 137.048C149.88 108.368 150.029 79.1082 147.769 50.5082C144.979 15.2182 179.249 -11.5018 212.219 4.99821C229.789 13.7882 236.489 29.4182 237.329 48.8482C237.729 58.2015 238.093 67.5582 238.42 76.9182C238.426 77.1249 238.523 77.2049 238.709 77.1582C238.748 77.1459 238.783 77.1235 238.81 77.0934C238.836 77.0634 238.853 77.027 238.86 76.9882C241.006 65.3882 242.333 55.9282 242.839 48.6082C243.309 41.6782 243.719 35.5382 246.04 29.3682C256.44 1.71822 290.16 -8.68179 314.3 8.86821C338.26 26.2982 332.91 52.9882 328.8 80.5982C328.366 83.4982 326.999 91.6082 324.699 104.928C324.02 108.842 324.523 108.998 326.21 105.398ZM191.92 202.958C191.789 202.827 191.695 202.661 191.649 202.478C186.629 180.648 168.189 165.418 148.63 156.628C122.609 144.938 90.9095 145.368 65.6795 158.988C43.3728 171.042 28.0428 189.778 19.6895 215.198C16.8595 223.788 15.1495 232.198 18.3195 240.678C26.3295 262.108 53.4595 265.038 67.2495 247.288C72.5795 240.428 72.0795 232.828 75.7095 225.498C84.9395 206.858 104.059 200.728 123.149 206.858C140.6 212.468 150.949 226.538 153.979 244.648C156.049 257.028 153.619 270.468 150.549 284.328C146.809 301.218 134.819 322.128 114.919 322.328C100.313 322.468 88.4295 316.848 79.2695 305.468C75.1795 300.378 72.3895 293.888 67.6195 289.738C57.4595 280.898 42.8195 280.118 31.9595 288.208C22.4795 295.278 18.4295 308.828 22.1895 319.678C23.5962 323.725 27.0095 329.422 32.4295 336.768C47.3995 357.088 68.4295 371.288 93.3295 376.518C101.323 378.198 108.31 380.255 114.29 382.688C142.57 394.198 172.349 400.488 202.639 403.778C241.279 407.968 293.079 403.838 312.809 363.778C322.389 344.318 328.54 324.548 332.93 303.378C338.916 274.478 345.633 245.735 353.079 217.148C353.759 214.542 354.763 212.025 356.09 209.598C370.376 183.525 383.433 156.852 395.259 129.578C400.473 117.545 403.763 109.222 405.129 104.608C415.589 69.3482 365.549 51.2382 351.329 88.0982C339.796 117.998 326.313 146.992 310.879 175.078C305.279 185.278 302.79 196.978 299.15 207.168C296.37 214.938 284.509 215.318 283.199 206.648C282.966 205.122 283.263 203.015 284.09 200.328C286.329 193.078 288.97 185.518 290.9 178.628C301.893 139.342 309.889 99.4382 314.889 58.9182C316.969 42.1182 316.56 28.8182 301.67 20.4382C287.21 12.3082 268.72 18.5282 262.329 33.5182C261.09 36.4182 260.109 41.4482 259.389 48.6082C255.549 87.0782 247.6 125.768 237.91 163.168C235.639 171.918 235.799 182.098 234.949 191.148C233.849 202.748 217.719 201.618 218.639 188.698C221.399 149.905 222.383 111.062 221.589 72.1682C221.249 55.5015 220.78 45.3349 220.18 41.6682C218.673 32.4015 214.309 25.5416 207.089 21.0882C191.089 11.2182 170.04 19.3982 165.16 37.3982C163.23 44.5382 164.559 53.0782 165.049 61.7282C166.416 85.9949 166.556 111.498 165.469 138.238C165.336 141.558 165.176 143.915 164.989 145.308C164.965 145.494 164.995 145.683 165.074 145.855C165.154 146.026 165.28 146.173 165.439 146.278C184.329 158.438 198.35 170.358 205.85 191.958C207.66 197.178 208.14 202.558 202.74 205.278C198.93 207.198 194.83 205.908 191.92 202.958ZM68.4695 270.298C73.6495 272.945 78.2328 276.455 82.2195 280.828C85.6395 284.598 88.7395 290.388 91.6095 294.228C96.2562 300.448 102.256 304.192 109.609 305.458C128.789 308.758 134.589 282.628 136.639 269.398C138.709 256.008 139.619 240.318 129.609 229.698C121.969 221.588 107.459 217.918 97.5195 224.338C88.4295 230.208 88.5695 243.608 83.5895 252.638C79.9762 259.178 74.9095 264.485 68.3895 268.558C67.3962 269.185 67.4228 269.765 68.4695 270.298Z" fill="white"/>
</svg>
