<svg width="100" height="100" viewBox="0 0 100 100" fill="none" xmlns="http://www.w3.org/2000/svg">
<path d="M24.794 59.6629C20.2497 59.6629 16.0924 58.5393 12.3221 56.2921C8.57678 54.0449 5.58052 51.0487 3.33333 47.3034C1.11111 43.5331 0 39.3633 0 34.794C0 31.3733 0.636704 28.1648 1.91011 25.1685C3.20849 22.1723 4.99376 19.5381 7.26592 17.2659C9.53808 14.9938 12.1723 13.221 15.1685 11.9476C18.1648 10.6492 21.3733 10 24.794 10H28.6142V18.2397H24.794C21.7728 18.2397 19.0012 18.9888 16.4794 20.4869C13.9825 21.985 11.985 23.9825 10.4869 26.4794C8.98876 28.9763 8.2397 31.7478 8.2397 34.794C8.2397 37.8402 8.97628 40.6242 10.4494 43.1461C11.9476 45.6679 13.9451 47.6779 16.4419 49.176C18.9638 50.6742 21.7478 51.4232 24.794 51.4232H91.2359V59.6629H24.794ZM66.4419 89.1011L60.7491 83.3333L88.6142 55.5431L60.7491 27.6779L66.4419 21.985L100 55.5431L66.4419 89.1011Z" fill="black"/>
</svg>
