<svg width="100" height="100" viewBox="0 0 100 100" fill="none" xmlns="http://www.w3.org/2000/svg">
<g clip-path="url(#clip0_30_143)">
<path fill-rule="evenodd" clip-rule="evenodd" d="M31.3092 24.2381L24.2689 31.34L11.1091 18.1802L18.1802 11.1091L31.3092 24.2381ZM45 18.4751L55 18.4315V0H45V18.4751ZM68.9895 23.9394L76.0915 30.9796L88.8909 18.1802L81.8198 11.1091L68.9895 23.9394ZM82.1868 45L82.2305 55H100V45H82.1868ZM76.393 69.322L69.3528 76.4239L81.8198 88.8909L88.8909 81.8198L76.393 69.322ZM55 82.1897L45 82.2334V100H55V82.1897ZM31.0076 76.0635L23.9056 69.0233L11.1091 81.8198L18.1802 88.8909L31.0076 76.0635ZM18.4722 55L18.4286 45H0V55H18.4722Z" fill="black"/>
</g>
<defs>
<clipPath id="clip0_30_143">
<rect width="100" height="100" fill="white"/>
</clipPath>
</defs>
</svg>
