<svg width="100" height="100" viewBox="0 0 100 100" fill="none" xmlns="http://www.w3.org/2000/svg">
<path d="M8.76404 59.6629V51.4232H75.206C78.2522 51.4232 81.0237 50.6742 83.5206 49.176C86.0424 47.6779 88.04 45.6679 89.5131 43.1461C91.0112 40.6242 91.7603 37.8402 91.7603 34.794C91.7603 31.7478 91.0112 28.9763 89.5131 26.4794C88.015 23.9825 86.0175 21.985 83.5206 20.4869C81.0237 18.9888 78.2522 18.2397 75.206 18.2397H71.3858V10H75.206C79.7753 10 83.9326 11.1236 87.6779 13.3708C91.4232 15.593 94.407 18.5768 96.6292 22.3221C98.8764 26.0674 100 30.2247 100 34.794C100 38.2147 99.3508 41.4357 98.0524 44.4569C96.779 47.4532 95.0062 50.0999 92.7341 52.397C90.4619 54.6692 87.8277 56.4544 84.8315 57.7528C81.8352 59.0262 78.6267 59.6629 75.206 59.6629H8.76404ZM33.5581 89.1011L0 55.5431L33.5581 21.985L39.2884 27.7154L11.4232 55.5431L39.2884 83.3708L33.5581 89.1011Z" fill="black"/>
</svg>
