<svg width="100" height="100" viewBox="0 0 100 100" fill="none" xmlns="http://www.w3.org/2000/svg">
<g clip-path="url(#clip0_88_9)">
<path fill-rule="evenodd" clip-rule="evenodd" d="M60 0H40V13.4899C36.9469 14.3786 34.0548 15.645 31.3774 17.2352L21.7157 7.57355L7.57361 21.7157L17.511 31.6531C16.0955 34.264 14.981 37.0618 14.2139 40H0V60H14.4899C15.3684 63.0179 16.616 65.8787 18.1805 68.5302L8 78.7107L22.1422 92.8528L32.5577 82.4372C34.8984 83.715 37.3905 84.7505 40 85.5101V100H60V85.7862C62.9382 85.019 65.7361 83.9045 68.3469 82.489L78.2843 92.4264L92.4264 78.2842L82.7648 68.6226C84.355 65.9452 85.6215 63.053 86.5101 60H100V40H86.7861C86.0096 37.026 84.8773 34.1958 83.4373 31.5577L92.8528 22.1422L78.7107 8L69.5302 17.1805C66.5875 15.4442 63.3871 14.0981 60 13.2138V0ZM50.5 72C62.9264 72 73 61.9264 73 49.5C73 37.0736 62.9264 27 50.5 27C38.0736 27 28 37.0736 28 49.5C28 61.9264 38.0736 72 50.5 72Z" fill="#D9D9D9"/>
</g>
<defs>
<clipPath id="clip0_88_9">
<rect width="100" height="100" fill="white"/>
</clipPath>
</defs>
</svg>
