<svg width="895" height="123" viewBox="0 0 895 123" fill="none" xmlns="http://www.w3.org/2000/svg">
<path d="M2.99 61.88H17.94V86.45C17.94 88.14 19.89 89.57 21.97 89.57H111.41V121.42H23.53C0.65 121.42 2.99 106.99 2.99 90.35V61.88ZM66.43 69.68L85.54 42.12C86.45 40.69 85.93 39 83.72 39H0V7.15H88.14C111.02 7.15 115.44 27.3 105.3 41.21L84.5 69.68H66.43Z" fill="black"/>
<path d="M132.99 61.88H147.94V86.45C147.94 88.14 149.89 89.57 151.97 89.57H241.41V121.42H153.53C130.65 121.42 132.99 106.99 132.99 90.35V61.88ZM196.43 69.68L215.54 42.12C216.45 40.69 215.93 39 213.72 39H130V7.15H218.14C241.02 7.15 245.44 27.3 235.3 41.21L214.5 69.68H196.43Z" fill="black"/>
<path d="M260 0.130001H274.69V82.55C274.69 84.63 276.51 86.32 278.72 86.32H293.8V122.07H277.29C268.45 122.07 260 114.01 260 98.02V0.130001ZM296.4 56.03H311.22V79.95C311.22 82.03 313.04 83.72 315.12 83.72H373.1V119.47H313.69C304.85 119.47 296.4 111.41 296.4 95.42V56.03ZM374.01 7.15V39.65H295.23V7.15H374.01Z" fill="black"/>
<path d="M474.11 86.71L485.68 46.8C486.07 45.11 485.55 44.33 483.99 44.33H416.39C412.62 53.56 407.16 58.76 399.23 58.76H391.56V22.88H404.17C406.9 22.88 408.46 21.58 409.11 19.11L415.09 1.95H428.74L425.88 12.09H483.99C499.59 12.09 504.66 22.23 501.54 33.8L484.38 97.5C480.35 112.71 473.33 122.33 460.72 122.33H391.56V88.79H437.19L430.04 53.3H443.17L450.32 88.79H471.25C472.68 88.79 473.72 88.14 474.11 86.71Z" fill="black"/>
<path d="M628.55 2.73V38.48L583.31 50.7V122.07H569.79V54.34L520.52 67.47V31.72L628.55 2.73Z" fill="black"/>
<path d="M746.98 53.04V88.14L679.77 65.52V122.33H666.25V0H679.77V30.55L746.98 53.04Z" fill="black"/>
<path d="M894.4 50.18L894.66 87.49C891.15 96.46 876.07 113.36 863.85 117.52C854.75 120.64 847.6 116.48 847.6 104.26V1.17H861.25V89.44C861.25 91.52 862.94 91.78 864.24 91.13C872.17 87.1 887.38 69.81 894.4 50.18ZM805.61 1.56001H818.74V42.9C818.74 95.42 800.67 117.91 776.36 120.25V91.26C790.01 89.57 805.61 73.71 805.61 42.64V1.56001Z" fill="black"/>
</svg>
